<?xml version="1.0" standalone="no"?>
<!DOCTYPE svg PUBLIC "-//W3C//DTD SVG 1.1//EN" "http://www.w3.org/Graphics/SVG/1.1/DTD/svg11.dtd" >
<svg>
<metadata>
Created by FontForge 20090914 at Fri Sep 27 10:02:46 2013
 By www-data
Copyright (c) 2009 Barry Schwartz
</metadata>
<defs>
<font id="GoudyStMTT" horiz-adv-x="337" >
  <font-face 
    font-family="Sorts Mill Goudy TT"
    font-weight="500"
    font-stretch="normal"
    units-per-em="1000"
    panose-1="2 0 5 3 0 0 0 0 0 0"
    ascent="777"
    descent="-223"
    x-height="423.002"
    cap-height="709.998"
    bbox="-367 -438 1106 960"
    underline-thickness="49"
    underline-position="-99"
    unicode-range="U+0020-U+FEFF"
  />
<missing-glyph horiz-adv-x="396" 
d="M23 -64v774h334v-774h-334zM75 612c0 -6 3 -8.99805 9 -8.99805c0.666992 0 7 4.16699 19 12.5s24 12.5 36 12.5c18 0 37.667 -6.83301 59 -20.5s32 -33.5 32 -59.5c0 -20 -15.333 -64.667 -46 -134s-46 -116 -46 -140c0 -15.333 2.83301 -32.333 8.5 -51
s13.5 -28 23.5 -28c5.33301 0 8 3.33301 8 10c0 2.66699 -0.833008 9.16699 -2.5 19.5s-2.5 19.166 -2.5 26.499c0 23.333 7.33301 49.666 22 78.999s30.667 55.333 48 78s33.333 48 48 76s22 53 22 75c0 36 -13.333 64 -40 84s-58 30 -94 30
c-26.667 0 -50.667 -7.33301 -72 -22s-32 -27.667 -32 -39zM97 59.002c0 -5.33301 4.99805 -12.0029 14.998 -20.0029s16 -13 18 -15c6 -7.33301 13.167 -14.666 21.5 -21.999s14.5 -11 18.5 -11s8 1.83301 12 5.5s8.5 8.83398 13.5 15.501s8.83301 11.334 11.5 14.001
c2 2 6.33301 5.16699 13 9.5s11.834 8.5 15.501 12.5s5.5 8.66699 5.5 14c0 2.66699 -2.33301 6.5 -7 11.5s-10.334 10.167 -17.001 15.5l-10 8l-7 10c-5.33301 6.66699 -10.666 12.5 -15.999 17.5s-9.33301 7.5 -12 7.5c-4 0 -8.16699 -1.66699 -12.5 -5
s-9.16602 -8.16602 -14.499 -14.499s-9.33301 -10.5 -12 -12.5c-24 -20.667 -36 -34.334 -36 -41.001z" />
    <glyph glyph-name="f_f" unicode="ff" horiz-adv-x="607" 
d="M29 394c0 6 0.160156 10.165 0.493164 12.498s1.5 4.83301 3.5 7.5s5.33301 4.5 10 5.5s11 1.5 19 1.5c2 0 6.83301 -0.166992 14.5 -0.5s12.834 -0.5 15.501 -0.5c8 0 12.833 1 14.5 3s2.5 7 2.5 15c0 38 9 77.333 27 118s42.667 74.667 74 102
c44.667 38.667 93.334 58 146.001 58c18.667 0 36.334 -3.16699 53.001 -9.5s29.5 -12.666 38.5 -18.999s13.833 -9.5 14.5 -9.5c1.33301 0 7.83301 5.83301 19.5 17.5s27.5 23.334 47.5 35.001s41 17.5 63 17.5c36.667 0 55 -8.66699 55 -26
c0 -9.33301 -1.33301 -19.333 -4 -30c-3.33301 -10.667 -6.66602 -18 -9.99902 -22s-8.66602 -6 -15.999 -6c-3.33301 0 -9.83301 4 -19.5 12s-24.167 12 -43.5 12c-22 0 -40.5 -6.5 -55.5 -19.5s-26.5 -31.667 -34.5 -56s-13.667 -51.333 -17 -81s-5 -64.167 -5 -103.5
c0 -7.33301 3 -11 9 -11h41c15.333 0 27.833 1 37.5 3s15.834 4.33301 18.501 7s5.33398 5 8.00098 7s5.66699 3 9 3c5.33301 0 8 -5.33301 8 -16c0 -8.66699 -4.33301 -20.334 -13 -35.001c-4 -6 -12.333 -9 -25 -9c-14.667 0 -25.834 -0.166992 -33.501 -0.5
s-22.5 -0.5 -44.5 -0.5c-7.33301 0 -11.666 -3.33301 -12.999 -10c-2.66699 -10 -4 -42.667 -4 -98c0 -10.667 -0.166992 -35 -0.5 -73s-0.5 -71 -0.5 -99c0 -17.333 2.83301 -31.166 8.5 -41.499s11.667 -17 18 -20s14.166 -5.5 23.499 -7.5c2 0 4.5 -0.333008 7.5 -1
s5.16699 -1.16699 6.5 -1.5s3.16602 -0.666016 5.49902 -0.999023s4.16602 -0.833008 5.49902 -1.5s2.5 -1.5 3.5 -2.5s1.83301 -2.16699 2.5 -3.5s1 -3 1 -5c0 -8 -4 -12 -12 -12c-0.666992 0 -7.16699 0.5 -19.5 1.5s-26 2 -41 3s-25.833 1.5 -32.5 1.5
c-8 0 -17.333 -0.833008 -28 -2.5s-26.334 -2.5 -47.001 -2.5c-17.333 0 -26 3.66699 -26 11c0 5.33301 2.83301 9.5 8.5 12.5s11.667 5.33301 18 7s12.333 6.5 18 14.5s8.5 19 8.5 33c0 4.66699 0.333008 17.834 1 39.501s1.16699 53.5 1.5 95.5s0.5 90.667 0.5 146
c0 7.33301 -1.66699 12.166 -5 14.499s-10.333 3.5 -21 3.5c-26.667 0 -44 -0.166992 -52 -0.5s-41.333 -0.5 -100 -0.5c-9.33301 0 -14 -3.33301 -14 -10v-117c0 -9.33301 -0.166992 -22 -0.5 -38s-0.5 -27 -0.5 -33v-56c0 -26.667 1 -44.5 3 -53.5s6.33301 -17.5 13 -25.5
c3.33301 -4 11 -7.66699 23 -11s23 -6.83301 33 -10.5s15 -7.5 15 -11.5c0 -6.66699 -4.66699 -10 -14 -10c-0.666992 0 -7.66699 0.333008 -21 1s-28.166 1.5 -44.499 2.5s-27.833 1.5 -34.5 1.5c-6 0 -16.5 -0.833008 -31.5 -2.5s-32.5 -2.5 -52.5 -2.5
c-8.66699 0 -13 3.66699 -13 11c0 2 0.333008 3.83301 1 5.5s1.83398 3 3.50098 4s3 1.66699 4 2s3.33301 1.16602 7 2.49902s5.83398 2 6.50098 2c22 7.33301 33 24 33 50c0 4.66699 -0.166992 18.167 -0.5 40.5s-0.5 54.833 -0.5 97.5v147
c0 5.33301 -1.16699 8.83301 -3.5 10.5s-7.16602 2.5 -14.499 2.5h-41c-13.333 0 -20 6.33301 -20 19zM177.993 432.998c0 -6 0.668945 -9.83301 2.00195 -11.5s4.33301 -2.5 9 -2.5c15.333 0 45.666 -0.333008 90.999 -1s70 -1 74 -1c8 0 13.167 1.5 15.5 4.5
s3.5 8.5 3.5 16.5c0 32 3.16699 61.167 9.5 87.5s12.833 46.833 19.5 61.5s10 23.667 10 27c0 9.33301 -11.833 21.833 -35.5 37.5s-43.834 23.5 -60.501 23.5c-32 0 -63 -19.667 -93 -59s-45 -100.333 -45 -183z" />
    <glyph glyph-name="f_i" unicode="fi" horiz-adv-x="543" 
d="M29 390c0 18 7.33594 27.0039 22.0029 27.0039c2.66699 0 9.5 -0.333008 20.5 -1s17.833 -1 20.5 -1c13.333 0 20 7.66699 20 23c0 49.333 7.83301 93.666 23.5 132.999s36.167 70.5 61.5 93.5s52.166 40.5 80.499 52.5s56.833 18 85.5 18c23.333 0 39.666 -4 48.999 -12
s14 -16.667 14 -26c0 -6 -2.83301 -18.667 -8.5 -38s-11.5 -29 -17.5 -29c-2 0 -4 1.16699 -6 3.5l-8 9.5c-3.33301 4 -7.33301 7.66699 -12 11c-28.667 18.667 -55.667 28 -81 28c-22.667 0 -41.667 -8.33301 -57 -25c-6 -6.66699 -12.667 -16.667 -20 -30
s-15.5 -38.166 -24.5 -74.499s-13.5 -76.166 -13.5 -119.499c0 -12.667 3.66699 -19 11 -19h131c18 0 39.5 4.5 64.5 13.5s40.167 13.5 45.5 13.5c3.33301 0 6.66602 -1.83301 9.99902 -5.5s5 -8.83398 5 -15.501c0 -4.66699 -0.333008 -10.667 -1 -18
s-1.5 -17.166 -2.5 -29.499s-1.83301 -40.166 -2.5 -83.499s-1 -99 -1 -167c0 -31.333 2.66699 -54.5 8 -69.5s17 -24.833 35 -29.5c4 -1.33301 9.16699 -2.33301 15.5 -3s11.166 -1.33398 14.499 -2.00098s6.33301 -2.16699 9 -4.5s4 -5.5 4 -9.5
c0 -7.33301 -6 -11 -18 -11c-6 0 -17.667 1.16699 -35 3.5s-33.666 3.5 -48.999 3.5c-20 0 -39 -1 -57 -3s-28.667 -3 -32 -3c-15.333 0 -23 2.66699 -23 8c0 7.33301 5.66699 13 17 17s19 7.16699 23 9.5s7.83301 10.666 11.5 24.999s5.66699 31.333 6 51
s0.5 53.5 0.5 101.5v99v25c0 13.333 -3.5 24.666 -10.5 33.999s-16.167 14 -27.5 14l-133 3c-10.667 0 -16 -4.33301 -16 -13l-3 -60c-2 -62 -3 -108.667 -3 -140c0 -10.667 0.166992 -23.834 0.5 -39.501s0.5 -25.834 0.5 -30.501c0 -26.667 4.33301 -45.167 13 -55.5
s25.667 -17.5 51 -21.5c15.333 -2 23 -7.66699 23 -17c0 -6 -6.66699 -9 -20 -9c-0.666992 0 -7 0.333008 -19 1s-25.333 1.33398 -40 2.00098s-25.334 1 -32.001 1c-12 0 -28.667 -0.5 -50 -1.5s-32.666 -1.5 -33.999 -1.5c-10.667 0 -16 4 -16 12
c0 4.66699 2.83301 8.16699 8.5 10.5s12 4.16602 19 5.49902s13.333 6.16602 19 14.499s8.5 20.5 8.5 36.5c0 4.66699 0.166992 18 0.5 40s0.5 54.333 0.5 97v147c0 7.33301 -0.666992 11.833 -2 13.5s-5.33301 2.5 -12 2.5c-3.33301 0 -9.83301 0.333008 -19.5 1
s-17.5 1 -23.5 1c-10 0 -16.167 0.833008 -18.5 2.5s-3.5 5.16699 -3.5 10.5z" />
    <glyph glyph-name="f_l" unicode="fl" horiz-adv-x="542" 
d="M28 390c0 12 2.83105 19.998 8.49805 23.998s16.5 6 32.5 6c4.66699 0 10.334 -0.166992 17.001 -0.5s10.667 -0.5 12 -0.5c5.33301 0 9 1 11 3s3 5.66699 3 11c0 48.667 8 93.167 24 133.5s36 72 60 95s48.333 40.833 73 53.5s47 19 67 19
c5.33301 0 13.666 -0.333008 24.999 -1s18.333 -1 21 -1c12.667 0 23.5 3 32.5 9s16.833 9 23.5 9c7.33301 0 11 -8 11 -24c0 -2.66699 -0.5 -10 -1.5 -22s-2 -29 -3 -51s-1.5 -46.333 -1.5 -73v-56c0 -31.333 -0.5 -57.833 -1.5 -79.5s-1.5 -39.5 -1.5 -53.5v-298
c0 -21.333 4.33301 -37.666 13 -48.999s18 -17.666 28 -18.999s19.333 -3.16602 28 -5.49902s13 -6.5 13 -12.5c0 -5.33301 -1.5 -8.83301 -4.5 -10.5s-9.16699 -2.5 -18.5 -2.5c-6 0 -20.667 0.833008 -44 2.5s-40.666 2.5 -51.999 2.5
c-17.333 0 -32.5 -0.833008 -45.5 -2.5s-22.167 -2.5 -27.5 -2.5c-4.66699 0 -8.66699 1.16699 -12 3.5s-5 4.5 -5 6.5c0 5.33301 3 9.66602 9 12.999s12.667 6.33301 20 9s14 9.33398 20 20.001s9 25 9 43c0 143.333 0.333008 251.666 1 324.999s1 140 1 200
c0 47.333 -24.333 71 -73 71c-18.667 0 -35.334 -5.66699 -50.001 -17c-22 -16.667 -38.833 -47.167 -50.5 -91.5s-17.5 -86.166 -17.5 -125.499c0 -22.667 1.66699 -34 5 -34c45.333 0 75 1 89 3c3.33301 0 10.666 3 21.999 9s19 9 23 9c4.66699 0 7 -2.66699 7 -8
c0 -7.33301 -4.5 -17.5 -13.5 -30.5s-18.5 -19.5 -28.5 -19.5h-90c-10.667 0 -16 -4.66699 -16 -14c0 -0.666992 -0.166992 -13.167 -0.5 -37.5s-0.666016 -53.333 -0.999023 -87s-0.5 -61.834 -0.5 -84.501v-28c0 -19.333 1.16699 -35.5 3.5 -48.5s4.33301 -22.833 6 -29.5
s6.5 -12.167 14.5 -16.5s13.667 -7 17 -8s12 -2.83301 26 -5.5c10.667 -2 16 -7.66699 16 -17c0 -4.66699 -3.66699 -7 -11 -7c-0.666992 0 -5.66699 0.5 -15 1.5s-20.166 2 -32.499 3s-21.833 1.5 -28.5 1.5c-11.333 0 -30 -1.33301 -56 -4s-40 -4 -42 -4
c-13.333 0 -20 5.33301 -20 16c0 6 5.83301 10.333 17.5 13s18.834 5.66699 21.501 9c9.33301 10.667 14 29 14 55c0 4.66699 -0.166992 17 -0.5 37s-0.5 50.167 -0.5 90.5v143.5c0 14 -6.33301 21 -19 21c-3.33301 0 -9 -0.333008 -17 -1s-15 -1 -21 -1
c-15.333 0 -23 4 -23 12z" />
    <glyph glyph-name="f_f_i" unicode="ffi" horiz-adv-x="804" 
d="M28 394c0 10 1.83301 16.499 5.5 19.499s13.167 4.5 28.5 4.5h29c8 0 13.167 1.5 15.5 4.5s3.5 8.16699 3.5 15.5c0 76 25.167 141.333 75.5 196s106.833 82 169.5 82c20 0 38.833 -3.66699 56.5 -11s31.334 -14.833 41.001 -22.5s14.834 -11.5 15.501 -11.5
s7.33398 5.5 20.001 16.5s30.167 22.167 52.5 33.5s45.5 17 69.5 17c51.333 0 77 -11.333 77 -34c0 -10.667 -2.5 -24.834 -7.5 -42.501s-11.167 -26.5 -18.5 -26.5c-4 0 -6.83301 1 -8.5 3s-3.83398 5 -6.50098 9s-6 7.66699 -10 11c-24.667 18.667 -49.334 28 -74.001 28
c-80 0 -120 -86 -120 -258c0 -7.33301 2.66699 -11 8 -11h41c25.333 0 50.833 0.5 76.5 1.5s42.5 1.5 50.5 1.5c18 0 33.833 4.33301 47.5 13s23.167 13 28.5 13c8 0 12 -6.33301 12 -19c0 -2 -0.666992 -11.833 -2 -29.5s-2 -43.167 -2 -76.5v-223
c0 -23.333 4.33301 -41 13 -53s18 -18.5 28 -19.5s19.333 -2.5 28 -4.5s13 -6 13 -12c0 -8 -7 -12 -21 -12c-6 0 -16.333 0.5 -31 1.5s-29.667 1.5 -45 1.5c-19.333 0 -38 -1 -56 -3s-29 -3 -33 -3c-16 0 -24 2.66699 -24 8c0 7.33301 6 13 18 17
c19.333 6.66699 30.833 18 34.5 34s5.5 67 5.5 153v99c0 3.33301 0.166992 7.83301 0.5 13.5s0.5 9.5 0.5 11.5c0 13.333 -3.5 25 -10.5 35s-16.167 15 -27.5 15c-6 0 -16.667 -0.166992 -32 -0.5s-24.666 -0.5 -27.999 -0.5c-14.667 0 -26 -0.166992 -34 -0.5
s-23 -0.5 -45 -0.5c-4.66699 0 -7.83398 -0.5 -9.50098 -1.5s-3.16699 -5.5 -4.5 -13.5s-2.16602 -18.667 -2.49902 -32s-0.5 -34.333 -0.5 -63c0 -10.667 0.333008 -31.667 1 -63s1 -61.333 1 -90c0 -30 3.16699 -51.167 9.5 -63.5s15.166 -20.166 26.499 -23.499
c4.66699 -1.33301 11.5 -2.83301 20.5 -4.5s15.833 -3.33398 20.5 -5.00098s7 -4.16699 7 -7.5c0 -4.66699 -0.666992 -7.83398 -2 -9.50098s-4.66602 -2.5 -9.99902 -2.5c-0.666992 0 -11.167 0.666992 -31.5 2s-41.166 2 -62.499 2c-8.66699 0 -19.834 -1 -33.501 -3
s-28.834 -3 -45.501 -3c-15.333 0 -23 4 -23 12c0 6 5 10 15 12l6 1c4.66699 0.666992 7.5 1.33398 8.5 2.00098s3.33301 1.83398 7 3.50098s6.16699 4 7.5 7s3.16602 6.83301 5.49902 11.5s3.83301 10.834 4.5 18.501s1 16.167 1 25.5v269c0 6 -0.166992 10.167 -0.5 12.5
s-1.83301 4.33301 -4.5 6s-7 2.5 -13 2.5c-26.667 0 -45.5 -0.333008 -56.5 -1s-45.833 -1 -104.5 -1c-10 0 -15 -4 -15 -12v-117v-71v-56c0 -24 1.5 -40.833 4.5 -50.5s8.5 -19.5 16.5 -29.5c3.33301 -4.66699 15 -9.83398 35 -15.501s30 -11.167 30 -16.5
c0 -2.66699 -1.33301 -5.33398 -4 -8.00098s-6 -4 -10 -4c-0.666992 0 -7.66699 0.5 -21 1.5s-28 2 -44 3s-27.333 1.5 -34 1.5c-9.33301 0 -21 -1.33301 -35 -4s-25.333 -4 -34 -4c-16 0 -24 4 -24 12c0 4.66699 2.66699 8.5 8 11.5s11 5.33301 17 7
s11.667 6.83398 17 15.501s8 20.334 8 35.001v285c0 7.33301 -1.33301 12 -4 14s-7.66699 3 -15 3h-41c-13.333 0 -20 5 -20 15zM178 430.999c0 -6.66699 4.33105 -10.666 12.998 -11.999s38.334 -2 89.001 -2h84c7.33301 0 11 7 11 21c0 34.667 3.5 65.167 10.5 91.5
s14 46.166 21 59.499s10.5 21.333 10.5 24c0 9.33301 -11.667 22 -35 38s-42.333 24 -57 24c-43.333 0 -78.666 -23.667 -105.999 -71s-41 -105 -41 -173z" />
    <glyph glyph-name="f_f_l" unicode="ffl" horiz-adv-x="808" 
d="M28 394c0 10.667 1.83594 17.502 5.50293 20.502s13.167 4.5 28.5 4.5h29c8 0 12.833 1.16699 14.5 3.5s2.5 7.5 2.5 15.5c0 68.667 24.167 132.167 72.5 190.5s106.5 87.5 174.5 87.5c25.333 0 50.666 -6.66699 75.999 -20s38.333 -20 39 -20c2 0 3.66699 0.5 5 1.5
s3.16602 2.66699 5.49902 5s4.5 4.16602 6.5 5.49902c42 32.667 80.667 49 116 49c6 0 14.333 -0.166992 25 -0.5s16.667 -0.5 18 -0.5c8.66699 0 17.167 3 25.5 9s16.166 9 23.499 9c8 0 12 -9.66699 12 -29c0 -2.66699 -0.166992 -10 -0.5 -22
s-0.666016 -28.833 -0.999023 -50.5s-0.5 -45.834 -0.5 -72.501v-56c0 -14.667 -0.333008 -30.667 -1 -48s-1 -38.666 -1 -63.999c0 -15.333 0.5 -53.5 1.5 -114.5s1.5 -99.167 1.5 -114.5c0 -74 2.66699 -116.333 8 -127c5.33301 -12 14.5 -20 27.5 -24
s24.167 -6.83301 33.5 -8.5s14 -6.16699 14 -13.5c0 -5.33301 -1.5 -8.83301 -4.5 -10.5s-9.5 -2.5 -19.5 -2.5c-6 0 -21.333 0.5 -46 1.5s-42.667 1.5 -54 1.5c-17.333 0 -32.666 -0.5 -45.999 -1.5s-22.666 -1.5 -27.999 -1.5c-10.667 0 -16 3 -16 9
c0 5.33301 3 9.5 9 12.5s12.5 5.66699 19.5 8s13.5 8.83301 19.5 19.5s9 25 9 43c0 143.333 -0.5 255.833 -1.5 337.5s-1.5 152.5 -1.5 212.5c0 32 -22.667 48 -68 48c-22.667 0 -42 -6.33301 -58 -19c-22 -16.667 -37.5 -46.167 -46.5 -88.5s-13.5 -85.166 -13.5 -128.499
c0 -21.333 1.66699 -32 5 -32c1.33301 0 10.833 0.166992 28.5 0.5s28.834 0.5 33.501 0.5c21.333 0 37.833 3.5 49.5 10.5s20.167 10.5 25.5 10.5c2.66699 0 4 -2.66699 4 -8c0 -9.33301 -3.66699 -20.5 -11 -33.5s-14.666 -19.5 -21.999 -19.5
c-14.667 0 -29.167 0.166992 -43.5 0.5s-32.5 0.5 -54.5 0.5c-9.33301 0 -14.833 -10.833 -16.5 -32.5s-2.5 -94.834 -2.5 -219.501c0 -63.333 15.333 -97 46 -101c7.33301 -1.33301 12.333 -2.16602 15 -2.49902s6.5 -1.33301 11.5 -3s8.5 -4 10.5 -7s3 -6.83301 3 -11.5
s-3.66699 -7 -11 -7c-0.666992 0 -7.33398 0.333008 -20.001 1s-26.834 1.33398 -42.501 2.00098s-26.834 1 -33.501 1c-11.333 0 -27.666 -1 -48.999 -3s-33 -3 -35 -3c-12.667 0 -19 5.33301 -19 16c0 6 2.83301 10 8.5 12s12 3.16699 19 3.5s13.333 4.66602 19 12.999
s8.5 21.166 8.5 38.499v85v40c0 10 -0.166992 34.333 -0.5 73s-0.5 70.334 -0.5 95.001c0 5.33301 -1 8.66602 -3 9.99902s-6 2 -12 2c-18 0 -37.167 -0.333008 -57.5 -1s-33.833 -1 -40.5 -1c-6 0 -16.333 -0.166992 -31 -0.5s-25.667 -0.5 -33 -0.5
c-9.33301 0 -14 -4.66699 -14 -14v-117c0 -9.33301 0.166992 -22 0.5 -38s0.5 -27 0.5 -33v-56c0 -37.333 5 -63.666 15 -78.999c3.33301 -5.33301 15.833 -10.833 37.5 -16.5s32.5 -11.167 32.5 -16.5c0 -7.33301 -4.66699 -11 -14 -11c-0.666992 0 -8 0.166992 -22 0.5
s-29.333 0.5 -46 0.5h-35c-10 0 -21.667 -1 -35 -3s-24.333 -3 -33 -3c-16 0 -24 5.66699 -24 17c0 7.33301 5 12 15 14c1.33301 0 4.16602 0.166992 8.49902 0.5s7.33301 0.833008 9 1.5s4.16699 2 7.5 4s5.66602 4.66699 6.99902 8s2.66602 8.16602 3.99902 14.499
s2 14.166 2 23.499v285c0 10 -6.33301 15 -19 15h-42c-12.667 0 -19 5.66699 -19 17zM179.003 433.002c0 -5.33301 0.833984 -9.00098 2.50098 -11.001s4.83398 -3 9.50098 -3h42h122c4.66699 0 8.16699 0.333008 10.5 1s4.16602 2.33398 5.49902 5.00098s2 7 2 13
c0 32.667 3.66699 62.5 11 89.5s14.666 48 21.999 63s11 23.833 11 26.5c0 9.33301 -12.667 21.333 -38 36s-46.666 22 -63.999 22c-22.667 0 -44.334 -10.333 -65.001 -31c-47.333 -46 -71 -116.333 -71 -211z" />
    <glyph glyph-name="f_j" unicode="fj" horiz-adv-x="522" 
d="M29 390c0 17.333 7.33496 26.001 22.002 26.001c2.66699 0 9.5 -0.166992 20.5 -0.5s17.833 -0.5 20.5 -0.5c13.333 0 20 7.66699 20 23c0 49.333 7.83301 93.666 23.5 132.999s36.167 70.5 61.5 93.5s52.166 40.5 80.499 52.5s56.833 18 85.5 18
c23.333 0 39.666 -4 48.999 -12s14 -16.667 14 -26c0 -6 -2.83301 -18.667 -8.5 -38s-11.5 -29 -17.5 -29c-2 0 -4 1.16699 -6 3.5l-8 9.5c-3.33301 4 -7.33301 7.66699 -12 11c-28.667 18.667 -55.667 28 -81 28c-22.667 0 -41.667 -8.33301 -57 -25
s-28.666 -45 -39.999 -85s-17 -85.667 -17 -137c0 -9.33301 1.5 -15.166 4.5 -17.499s11.5 -3.5 25.5 -3.5h60c48.667 0 87.167 4.33301 115.5 13s43.5 13 45.5 13c6 0 9.83301 -2.16699 11.5 -6.5s2.5 -12.166 2.5 -23.499c0 -6 -1 -23.167 -3 -51.5s-3 -53.5 -3 -75.5
v-248c0 -36.667 -3.33301 -71.334 -10 -104.001s-20.5 -62.667 -41.5 -90s-47.833 -41 -80.5 -41c-26 0 -39 9 -39 27c0 3.33301 -0.333008 9.33301 -1 18s-1 14.667 -1 18c0 19.333 7.33301 29 22 29c7.33301 0 17.5 -7.16699 30.5 -21.5s21.833 -21.5 26.5 -21.5
c6 0 10.667 4.5 14 13.5s5.83301 25.333 7.5 49s2.5 56.5 2.5 98.5v311c0 11.333 -0.666992 20.5 -2 27.5s-6.16602 13.667 -14.499 20s-20.166 9.5 -35.499 9.5c-21.333 0 -44 0.5 -68 1.5s-37.667 1.5 -41 1.5c-17.333 0 -26 -4.33301 -26 -13c-4 -110 -6 -170 -6 -180
c0 -6 0.166992 -18.333 0.5 -37s0.5 -36.334 0.5 -53.001c0 -24 4.5 -42 13.5 -54s19 -18.333 30 -19s21 -2.33398 30 -5.00098s13.5 -8 13.5 -16c0 -6 -6.66699 -9 -20 -9c-0.666992 0 -7 0.333008 -19 1s-25.333 1.33398 -40 2.00098s-25.334 1 -32.001 1
c-12 0 -26.333 -0.333008 -43 -1s-27.334 -1 -32.001 -1c-6.66699 0 -11.334 0.166992 -14.001 0.5s-5 1.33301 -7 3s-3 4.5 -3 8.5c0 4.66699 4.5 8 13.5 10s18 6.83301 27 14.5s13.5 21.5 13.5 41.5c0 4.66699 0.166992 18 0.5 40s0.5 54.333 0.5 97v147
c0 7.33301 -0.666992 11.833 -2 13.5s-5.33301 2.5 -12 2.5c-3.33301 0 -9.83301 0.166992 -19.5 0.5s-17.5 0.5 -23.5 0.5c-9.33301 0 -15.333 1 -18 3s-4 5.66699 -4 11z" />
    <glyph glyph-name="f_f_j" unicode="ffj" horiz-adv-x="787" 
d="M28 394c0 10 1.8291 16.5039 5.49609 19.5039s13.167 4.5 28.5 4.5h29c8 0 13.167 1.5 15.5 4.5s3.5 8.16699 3.5 15.5c0 76 25.167 141.333 75.5 196s106.833 82 169.5 82c20 0 38.833 -3.66699 56.5 -11s31.334 -14.833 41.001 -22.5s14.834 -11.5 15.501 -11.5
s7.33398 5.5 20.001 16.5s30.167 22.167 52.5 33.5s45.5 17 69.5 17c51.333 0 77 -11.333 77 -34c0 -12 -2.5 -26.167 -7.5 -42.5s-10.5 -24.5 -16.5 -24.5c-3.33301 0 -8.83301 4.16699 -16.5 12.5s-18.667 16.5 -33 24.5s-31.5 12 -51.5 12c-80 0 -120 -86 -120 -258
c0 -7.33301 2.66699 -11 8 -11h41c25.333 0 50.833 0.5 76.5 1.5s42.5 1.5 50.5 1.5c18 0 33.833 4.33301 47.5 13s23.167 13 28.5 13c8 0 12 -6.33301 12 -19c0 -2 -0.666992 -12.5 -2 -31.5s-2 -31.167 -2 -36.5v-324c0 -36.667 -3.33301 -71.334 -10 -104.001
s-20.5 -62.667 -41.5 -90s-47.833 -41 -80.5 -41c-26 0 -39 9 -39 27c0 3.33301 -0.333008 9.33301 -1 18s-1 14.667 -1 18c0 19.333 7.33301 29 22 29c7.33301 0 17.5 -7.16699 30.5 -21.5s21.833 -21.5 26.5 -21.5c10 0 16.333 12.5 19 37.5s4 79.5 4 163.5
c0 9.33301 0.166992 31.166 0.5 65.499s0.5 64.5 0.5 90.5v118c0 26 -5.33301 41.667 -16 47s-37.667 8 -81 8c-14.667 0 -26 -0.166992 -34 -0.5s-23 -0.5 -45 -0.5c-4.66699 0 -7.83398 -0.5 -9.50098 -1.5s-3.16699 -5.5 -4.5 -13.5s-2.16602 -18.667 -2.49902 -32
s-0.5 -34.333 -0.5 -63c0 -10.667 0.333008 -31.667 1 -63s1 -61.333 1 -90c0 -30 3.16699 -51.167 9.5 -63.5s15.166 -20.166 26.499 -23.499c4.66699 -1.33301 11.5 -2.83301 20.5 -4.5s15.833 -3.33398 20.5 -5.00098s7 -4.16699 7 -7.5
c0 -4.66699 -0.666992 -7.83398 -2 -9.50098s-4.66602 -2.5 -9.99902 -2.5c-9.33301 0 -28.5 0.5 -57.5 1.5s-43.833 1.5 -44.5 1.5c-5.33301 0 -14.333 -0.833008 -27 -2.5s-27.334 -2.5 -44.001 -2.5c-15.333 0 -23 4 -23 12c0 6 5 10 15 12s16.167 3.66699 18.5 5
s5.83301 4 10.5 8s7.33398 11.667 8.00098 23s1.33398 25.166 2.00098 41.499s1 40.5 1 72.5v188c0 6 -0.166992 10.167 -0.5 12.5s-1.83301 4.33301 -4.5 6s-7 2.5 -13 2.5c-26.667 0 -45.5 -0.333008 -56.5 -1s-45.833 -1 -104.5 -1c-10 0 -15 -4 -15 -12v-244
c0 -24 1.5 -40.833 4.5 -50.5s8.5 -19.5 16.5 -29.5c3.33301 -4.66699 15 -9.83398 35 -15.501s30 -11.167 30 -16.5c0 -2.66699 -1.33301 -5.33398 -4 -8.00098s-6 -4 -10 -4c-0.666992 0 -7.66699 0.333008 -21 1s-28 1.5 -44 2.5s-27.333 1.5 -34 1.5
c-6 0 -17.333 -1.16699 -34 -3.5s-28.667 -3.5 -36 -3.5c-15.333 0 -23 4 -23 12c0 4.66699 2.66699 8.5 8 11.5s11 5.33301 17 7s11.667 6.83398 17 15.501s8 20.334 8 35.001v285c0 7.33301 -1.33301 12 -4 14s-7.66699 3 -15 3h-41c-13.333 0 -20 5 -20 15z
M177.996 431.004c0 -6 2.66699 -9.83203 8 -11.499s16.666 -2.5 33.999 -2.5c5.33301 0 23.833 0.166992 55.5 0.5s61.167 0.5 88.5 0.5c7.33301 0 11 6.66699 11 20c0 34.667 3.5 65.167 10.5 91.5s14 46.166 21 59.499s10.5 21.333 10.5 24c0 9.33301 -11.667 22 -35 38
s-42.333 24 -57 24c-43.333 0 -78.666 -23.667 -105.999 -71s-41 -105 -41 -173z" />
    <glyph glyph-name="f_b" unicode="fb" horiz-adv-x="836" 
d="M28 390c0 12 2.49902 19.832 7.49902 23.499s15.5 5.5 31.5 5.5c4.66699 0 11.667 -0.166992 21 -0.5s14.666 -0.5 15.999 -0.5c5.33301 0 8 5 8 15c0 48.667 8 93.167 24 133.5s36 72 60 95s48.333 40.833 73 53.5s47 19 67 19c5.33301 0 13.666 -0.333008 24.999 -1
s18.333 -1 21 -1c12.667 0 23.5 3 32.5 9s16.833 9 23.5 9c7.33301 0 11 -8 11 -24c0 -3.33301 -0.166992 -7.16602 -0.5 -11.499s-0.833008 -12 -1.5 -23s-1.16699 -26.333 -1.5 -46s-0.666016 -51.5 -0.999023 -95.5s-0.5 -96.667 -0.5 -158c0 -11.333 2.33301 -17 7 -17
c2.66699 0 7 3.5 13 10.5s13.167 14.667 21.5 23s23 16 44 23s45.833 10.5 74.5 10.5c64 0 112.167 -21 144.5 -63s48.5 -90 48.5 -144c0 -31.333 -8.16699 -67.5 -24.5 -108.5s-38.5 -72.167 -66.5 -93.5c-38.667 -29.333 -85 -44 -139 -44
c-27.333 0 -52.666 4.83301 -75.999 14.5s-40.833 19.334 -52.5 29.001s-17.834 14.5 -18.501 14.5c-2.66699 0 -9.16699 -10.667 -19.5 -32s-20.166 -32 -29.499 -32c-8 0 -12 4.33301 -12 13c0 9.33301 0.666992 25.166 2 47.499s2 33.833 2 34.5c0 22 1.5 61.333 4.5 118
s4.5 105.334 4.5 146.001c0 28.667 0.166992 77.167 0.5 145.5s0.5 110.5 0.5 126.5c0 47.333 -24.333 71 -73 71c-18.667 0 -35.334 -5.66699 -50.001 -17c-22 -16.667 -38.833 -47.167 -50.5 -91.5s-17.5 -86.166 -17.5 -125.499c0 -22.667 1.66699 -34 5 -34
c14 0 25.833 0.166992 35.5 0.5s18.5 0.5 26.5 0.5c20 0 36.167 3.33301 48.5 10s20.166 10 23.499 10c4.66699 0 7 -2.66699 7 -8c0 -7.33301 -4.5 -17.5 -13.5 -30.5s-18.5 -19.5 -28.5 -19.5h-90c-10.667 0 -16 -4.66699 -16 -14
c0 -0.666992 -0.166992 -13.167 -0.5 -37.5s-0.666016 -53.333 -0.999023 -87s-0.5 -61.834 -0.5 -84.501v-28c0 -19.333 1.16699 -35.5 3.5 -48.5s4.33301 -22.833 6 -29.5s6.5 -12.167 14.5 -16.5s13.667 -7 17 -8s12 -2.83301 26 -5.5c10.667 -2 16 -7.66699 16 -17
c0 -4.66699 -3.66699 -7 -11 -7c-0.666992 0 -5.66699 0.5 -15 1.5s-20.166 2 -32.499 3s-21.833 1.5 -28.5 1.5c-11.333 0 -30 -1.33301 -56 -4s-40 -4 -42 -4c-13.333 0 -20 5.33301 -20 16c0 6 5.83301 10.333 17.5 13s18.834 5.66699 21.501 9
c9.33301 10.667 14 29 14 55c0 4.66699 -0.166992 17 -0.5 37s-0.5 50.167 -0.5 90.5v143.5c0 9.33301 -1 15.166 -3 17.499s-6.33301 3.5 -13 3.5c-3.33301 0 -9.5 -0.166992 -18.5 -0.5s-16.5 -0.5 -22.5 -0.5c-15.333 0 -23 3.66699 -23 11zM443.999 131.999
c0 -18 13.167 -40.333 39.5 -67s61.833 -40 106.5 -40c46 0 81.167 15.5 105.5 46.5s36.5 68.833 36.5 113.5c0 52.667 -15.833 99.667 -47.5 141s-74.5 62 -128.5 62c-31.333 0 -58 -9.33301 -80 -28c-21.333 -17.333 -32 -33 -32 -47v-181z" />
    <glyph glyph-name="f_f_b" unicode="ffb" horiz-adv-x="1095" 
d="M28 394c0 10.667 1.83789 17.5 5.50488 20.5s13.167 4.5 28.5 4.5h29c8 0 12.833 1.16699 14.5 3.5s2.5 7.5 2.5 15.5c0 68.667 24.167 132.167 72.5 190.5s106.5 87.5 174.5 87.5c25.333 0 50.666 -6.66699 75.999 -20s38.333 -20 39 -20c2 0 3.66699 0.5 5 1.5
s3.16602 2.66699 5.49902 5s4.5 4.16602 6.5 5.49902c42 32.667 80.667 49 116 49c6 0 14.333 -0.166992 25 -0.5s16.667 -0.5 18 -0.5c8.66699 0 17.167 3 25.5 9s16.166 9 23.499 9c8 0 12 -9.66699 12 -29v-2c-2.66699 -22.667 -4 -126.667 -4 -312
c0 -24 2.33301 -36 7 -36c2.66699 0 6.66699 3.5 12 10.5s11.833 14.667 19.5 23s22.5 16 44.5 23s49.333 10.5 82 10.5c59.333 0 105.5 -20.667 138.5 -62s49.5 -89.666 49.5 -144.999c0 -31.333 -8.16699 -67.5 -24.5 -108.5s-38.5 -72.167 -66.5 -93.5
c-38.667 -29.333 -85 -44 -139 -44c-27.333 0 -52.666 4.83301 -75.999 14.5s-40.833 19.334 -52.5 29.001s-17.834 14.5 -18.501 14.5c-2.66699 0 -9.16699 -10.667 -19.5 -32s-20.166 -32 -29.499 -32c-8 0 -12 4.33301 -12 13c0 9.33301 0.666992 25.166 2 47.499
s2 33.833 2 34.5c0 22 1.5 61.333 4.5 118s4.5 105.334 4.5 146.001v165c0 16.667 -0.333008 37 -1 61s-1 47.667 -1 71c0 32 -22.667 48 -68 48c-22.667 0 -42 -6.33301 -58 -19c-22 -16.667 -37.5 -46.167 -46.5 -88.5s-13.5 -85.166 -13.5 -128.499
c0 -21.333 1.66699 -32 5 -32c1.33301 0 10.833 0.166992 28.5 0.5s28.834 0.5 33.501 0.5c21.333 0 37.833 3.5 49.5 10.5s20.167 10.5 25.5 10.5c2.66699 0 4 -2.66699 4 -8c0 -9.33301 -3.66699 -20.5 -11 -33.5s-14.666 -19.5 -21.999 -19.5
c-14.667 0 -29.167 0.166992 -43.5 0.5s-32.5 0.5 -54.5 0.5c-9.33301 0 -14.833 -10.833 -16.5 -32.5s-2.5 -94.834 -2.5 -219.501c0 -63.333 15.333 -97 46 -101c7.33301 -1.33301 12.333 -2.16602 15 -2.49902s6.5 -1.33301 11.5 -3s8.5 -4 10.5 -7s3 -6.83301 3 -11.5
s-3.66699 -7 -11 -7c-0.666992 0 -7.33398 0.333008 -20.001 1s-26.834 1.33398 -42.501 2.00098s-26.834 1 -33.501 1c-11.333 0 -27.666 -1 -48.999 -3s-33 -3 -35 -3c-12.667 0 -19 5.33301 -19 16c0 6 2.83301 10 8.5 12s12 3.16699 19 3.5s13.333 4.66602 19 12.999
s8.5 21.166 8.5 38.499v85v40c0 10 -0.166992 34.167 -0.5 72.5s-0.5 69.833 -0.5 94.5c0 5.33301 -1 8.5 -3 9.5s-6 1.5 -12 1.5h-98c-6 0 -16.333 -0.166992 -31 -0.5s-25.667 -0.5 -33 -0.5c-9.33301 0 -14 -4.66699 -14 -14v-117c0 -9.33301 0.166992 -22 0.5 -38
s0.5 -27 0.5 -33v-56c0 -37.333 5 -63.666 15 -78.999c3.33301 -5.33301 15.833 -10.833 37.5 -16.5s32.5 -11.167 32.5 -16.5c0 -7.33301 -4.66699 -11 -14 -11c-0.666992 0 -8 0.166992 -22 0.5s-29.333 0.5 -46 0.5h-35c-10 0 -21.5 -1 -34.5 -3s-24.167 -3 -33.5 -3
c-16 0 -24 5.66699 -24 17c0 7.33301 5 12 15 14c1.33301 0 4.16602 0.166992 8.49902 0.5s7.33301 0.833008 9 1.5s4.16699 2 7.5 4s5.66602 4.66699 6.99902 8s2.66602 8.16602 3.99902 14.499s2 14.166 2 23.499v285c0 10 -6.33301 15 -19 15h-29
c-13.333 0 -22 0.833008 -26 2.5s-6 6.5 -6 14.5zM179.005 433c0 -5.33301 0.833008 -8.99902 2.5 -10.999s4.83398 -3 9.50098 -3h166c6 0 10.167 0.833008 12.5 2.5s3.5 6.5 3.5 14.5c0 32.667 3.66699 62.667 11 90s14.666 48.666 21.999 63.999s11 24.333 11 27
c0 9.33301 -12.667 21.333 -38 36s-46.666 22 -63.999 22c-22.667 0 -44.334 -10.333 -65.001 -31c-47.333 -46 -71 -116.333 -71 -211zM703.005 132.001c0 -18 13.167 -40.333 39.5 -67s61.833 -40 106.5 -40c46 0 81.167 15.5 105.5 46.5s36.5 68.833 36.5 113.5
c0 52.667 -16 99.667 -48 141s-75 62 -129 62c-31.333 0 -58 -9.33301 -80 -28c-20.667 -17.333 -31 -33 -31 -47v-181z" />
    <glyph glyph-name="f_h" unicode="fh" horiz-adv-x="864" 
d="M28 390c0 12 2.49805 19.8379 7.49805 23.5049s15.5 5.5 31.5 5.5c4.66699 0 11.667 -0.166992 21 -0.5s14.666 -0.5 15.999 -0.5c5.33301 0 8 5 8 15c0 48.667 8 93.167 24 133.5s36 72 60 95s48.333 40.833 73 53.5s47 19 67 19c5.33301 0 13.666 -0.333008 24.999 -1
s18.333 -1 21 -1c12.667 0 23.5 3 32.5 9s16.833 9 23.5 9c7.33301 0 11 -8 11 -24c0 -0.666992 -2 -58.167 -6 -172.5s-6 -172.166 -6 -173.499c0 -13.333 3 -20 9 -20c1.33301 0 8.16602 6.16699 20.499 18.5s29.166 24.666 50.499 36.999s44.333 18.5 69 18.5
c54 0 96 -16 126 -48s45 -81.667 45 -149v-145c0 -12 2.66699 -24.333 8 -37s14 -19.667 26 -21c35.333 -3.33301 53 -10.333 53 -21s-10.333 -16 -31 -16c-3.33301 0 -16.166 0.833008 -38.499 2.5s-37.5 2.5 -45.5 2.5c-6 0 -19.833 -0.5 -41.5 -1.5
s-33.5 -1.5 -35.5 -1.5c-15.333 0 -23 3.33301 -23 10c0 7.33301 2.83301 12.166 8.5 14.499s11.834 3.5 18.501 3.5s12.834 3.66699 18.501 11s8.5 18.666 8.5 33.999c0 2.66699 0.166992 6 0.5 10s0.5 9.5 0.5 16.5s0.166992 22.5 0.5 46.5s0.5 55 0.5 93
c0 40.667 -12.333 75.834 -37 105.501s-53.667 44.5 -87 44.5c-31.333 0 -63.666 -13 -96.999 -39c-12 -9.33301 -19.5 -24.333 -22.5 -45s-4.5 -67.334 -4.5 -140.001v-23c0 -30.667 2.33301 -55 7 -73s15.334 -30.667 32.001 -38c5.33301 -2 12.666 -3.33301 21.999 -4
s16.5 -1.83398 21.5 -3.50098s7.5 -5.16699 7.5 -10.5c0 -8 -3.66699 -12 -11 -12l-52 2c-34 2 -52 3 -54 3c-4.66699 0 -16.5 -0.833008 -35.5 -2.5s-31.167 -2.5 -36.5 -2.5c-8.66699 0 -15 0.5 -19 1.5s-6.16699 2 -6.5 3s-0.5 2.83301 -0.5 5.5c0 6.66699 4 11 12 13
c18.667 5.33301 30.834 13.833 36.501 25.5s8.5 28.834 8.5 51.501l4 341c0 7.33301 0.166992 16.166 0.5 26.499s0.5 17.833 0.5 22.5c0 6.66699 -0.166992 24.667 -0.5 54s-0.5 52.666 -0.5 69.999c0 47.333 -24.333 71 -73 71c-18.667 0 -35.334 -5.66699 -50.001 -17
c-22 -16.667 -38.833 -47.167 -50.5 -91.5s-17.5 -86.166 -17.5 -125.499c0 -22.667 1.66699 -34 5 -34c14 0 25.833 0.166992 35.5 0.5s18.5 0.5 26.5 0.5c20 0 36.167 3.33301 48.5 10s20.166 10 23.499 10c4.66699 0 7 -2.66699 7 -8c0 -7.33301 -4.5 -17.5 -13.5 -30.5
s-18.5 -19.5 -28.5 -19.5h-90c-10.667 0 -16 -4.66699 -16 -14c0 -0.666992 -0.166992 -13.167 -0.5 -37.5s-0.666016 -53.333 -0.999023 -87s-0.5 -61.834 -0.5 -84.501v-28c0 -19.333 1.16699 -35.5 3.5 -48.5s4.33301 -22.833 6 -29.5s6.5 -12.167 14.5 -16.5
s13.667 -7 17 -8s12 -2.83301 26 -5.5c10.667 -2 16 -7.66699 16 -17c0 -4.66699 -3.66699 -7 -11 -7c-0.666992 0 -5.66699 0.5 -15 1.5s-20.166 2 -32.499 3s-21.833 1.5 -28.5 1.5c-11.333 0 -30 -1.16699 -56 -3.5s-40 -3.5 -42 -3.5c-13.333 0 -20 4.33301 -20 13
c0 6.66699 5.83301 11.5 17.5 14.5s18.834 6.16699 21.501 9.5c9.33301 10.667 14 29 14 55c0 4.66699 -0.166992 17 -0.5 37s-0.5 50.167 -0.5 90.5v143.5c0 9.33301 -1 15.166 -3 17.499s-6.33301 3.5 -13 3.5c-3.33301 0 -9.5 -0.166992 -18.5 -0.5
s-16.5 -0.5 -22.5 -0.5c-15.333 0 -23 3.66699 -23 11z" />
    <glyph glyph-name="f_f_h" unicode="ffh" horiz-adv-x="1126" 
d="M28 394c0 10.667 1.8418 17.5049 5.50879 20.5049s13.167 4.5 28.5 4.5h29c8 0 12.833 1.16699 14.5 3.5s2.5 7.5 2.5 15.5c0 68.667 24.167 132.167 72.5 190.5s106.5 87.5 174.5 87.5c25.333 0 50.666 -6.66699 75.999 -20s38.333 -20 39 -20c2 0 3.66699 0.5 5 1.5
s3.16602 2.66699 5.49902 5s4.5 4.16602 6.5 5.49902c42 32.667 80.667 49 116 49c6 0 14.333 -0.166992 25 -0.5s16.667 -0.5 18 -0.5c8.66699 0 17.167 3 25.5 9s16.166 9 23.499 9c8 0 12 -9.66699 12 -29v-26c0 -31.333 -0.833008 -91.833 -2.5 -181.5
s-3.5 -134.834 -5.5 -135.501c0 -14.667 3 -22 9 -22c1.33301 0 8.16602 6.16699 20.499 18.5s29.333 24.666 51 36.999s44.834 18.5 69.501 18.5c54 0 96 -16 126 -48s45 -81.667 45 -149v-145c0 -6.66699 0.666992 -13.834 2 -21.501s4.66602 -15.5 9.99902 -23.5
s12.333 -12.333 21 -13c35.333 -3.33301 53 -10.333 53 -21s-10.333 -16 -31 -16c-3.33301 0 -16 0.833008 -38 2.5s-37 2.5 -45 2.5c-6 0 -19.833 -0.5 -41.5 -1.5s-33.5 -1.5 -35.5 -1.5c-15.333 0 -23 3.33301 -23 10c0 7.33301 2.83301 12.166 8.5 14.499
s11.667 3.5 18 3.5s12.333 3.66699 18 11s8.5 18.666 8.5 33.999c0 2.66699 0.166992 6 0.5 10s0.5 9.5 0.5 16.5s0.166992 22.5 0.5 46.5s0.5 55 0.5 93c0 40.667 -12.333 75.834 -37 105.501s-53.667 44.5 -87 44.5c-24 0 -49.333 -8.16699 -76 -24.5
s-41.334 -34.166 -44.001 -53.499c-2.66699 -23.333 -4 -72 -4 -146v-23c0 -30.667 2.33301 -55 7 -73s15.334 -30.667 32.001 -38c5.33301 -2 12.666 -3.33301 21.999 -4s16.5 -1.83398 21.5 -3.50098s7.5 -5.16699 7.5 -10.5c0 -8 -3.66699 -12 -11 -12l-26 1
c-16.667 0.666992 -33.834 1.5 -51.501 2.5s-27.167 1.5 -28.5 1.5c-4.66699 0 -16.334 -0.833008 -35.001 -2.5s-30.667 -2.5 -36 -2.5c-8.66699 0 -15.167 0.5 -19.5 1.5s-6.66602 2 -6.99902 3s-0.5 2.83301 -0.5 5.5c0 6.66699 4 11 12 13
c18.667 5.33301 30.834 13.833 36.501 25.5s8.5 28.834 8.5 51.501c1.33301 194.667 2 299 2 313c0 99.333 -1.33301 174.666 -4 225.999c-1.33301 32 -24 48 -68 48c-22.667 0 -42 -6.33301 -58 -19c-22 -16.667 -37.5 -46.167 -46.5 -88.5s-13.5 -85.166 -13.5 -128.499
c0 -21.333 1.66699 -32 5 -32c1.33301 0 10.833 0.166992 28.5 0.5s28.834 0.5 33.501 0.5c20 0 36.667 3.66699 50 11s21 11 23 11c4 0 6 -2.66699 6 -8c0 -9.33301 -3.5 -20.666 -10.5 -33.999s-14.5 -20 -22.5 -20c-14.667 0 -29.167 0.166992 -43.5 0.5
s-32.5 0.5 -54.5 0.5c-9.33301 0 -14.833 -10.833 -16.5 -32.5s-2.5 -94.834 -2.5 -219.501c0 -63.333 15.333 -97 46 -101c7.33301 -1.33301 12.333 -2.16602 15 -2.49902s6.5 -1.33301 11.5 -3s8.5 -4 10.5 -7s3 -6.83301 3 -11.5s-3.66699 -7 -11 -7
c-0.666992 0 -7.33398 0.333008 -20.001 1s-26.834 1.33398 -42.501 2.00098s-26.834 1 -33.501 1c-11.333 0 -27.666 -1 -48.999 -3s-33 -3 -35 -3c-12.667 0 -19 5.33301 -19 16c0 6 2.83301 10 8.5 12s12 3.16699 19 3.5s13.333 4.66602 19 12.999s8.5 21.166 8.5 38.499
v85v40c0 10 -0.166992 34.333 -0.5 73s-0.5 70.334 -0.5 95.001c0 5.33301 -1 8.66602 -3 9.99902s-6 2 -12 2c-18 0 -37.167 -0.333008 -57.5 -1s-33.833 -1 -40.5 -1c-6 0 -16.333 -0.166992 -31 -0.5s-25.667 -0.5 -33 -0.5c-9.33301 0 -14 -4.66699 -14 -14v-117
c0 -9.33301 0.166992 -22 0.5 -38s0.5 -27 0.5 -33v-56c0 -37.333 5 -63.666 15 -78.999c2.66699 -4.66699 15 -9.16699 37 -13.5s33 -10.833 33 -19.5c0 -7.33301 -4.66699 -11 -14 -11c-0.666992 0 -8 0.166992 -22 0.5s-29.333 0.5 -46 0.5h-35
c-8 0 -17.833 -0.666992 -29.5 -2s-23.167 -2 -34.5 -2c-8 0 -13.5 0.166992 -16.5 0.5s-5.66699 1.5 -8 3.5s-3.5 5 -3.5 9c0 7.33301 5 12 15 14c1.33301 0 4.16602 0.333008 8.49902 1s7.33301 1.16699 9 1.5s4.16699 1.66602 7.5 3.99902s5.66602 5.33301 6.99902 9
s2.66602 8.66699 3.99902 15s2 14.166 2 23.499v285c0 10 -6.33301 15 -19 15h-42c-12.667 0 -19 5.66699 -19 17zM179.009 433.005c0 -5.33301 0.833984 -9.00098 2.50098 -11.001s4.83398 -3 9.50098 -3h42h122c4.66699 0 8.16699 0.333008 10.5 1
s4.16602 2.33398 5.49902 5.00098s2 7 2 13c0 32.667 3.66699 62.5 11 89.5s14.666 48 21.999 63s11 23.833 11 26.5c0 9.33301 -12.667 21.333 -38 36s-46.666 22 -63.999 22c-22.667 0 -44.334 -10.333 -65.001 -31c-47.333 -46 -71 -116.333 -71 -211z" />
    <glyph glyph-name="f_k" unicode="fk" horiz-adv-x="830" 
d="M28 390c0 13.333 2.33496 21.502 7.00195 24.502s15 4.5 31 4.5h32c5.33301 0 9 1 11 3s3 6 3 12c0 48.667 8 93 24 133s36 71.667 60 95s48.167 41.166 72.5 53.499s46.833 18.5 67.5 18.5c5.33301 0 13.666 -0.333008 24.999 -1s18.333 -1 21 -1
c12.667 0 23.5 3 32.5 9s16.833 9 23.5 9c7.33301 0 11 -8 11 -24c0 -12 -1.33301 -81.5 -4 -208.5s-4 -204.833 -4 -233.5v-21c0 -28 1.33301 -42 4 -42c4 0 7.66699 1 11 3s7.16602 5.33301 11.499 10s7.83301 8 10.5 10c93.333 74.667 140 117 140 127
c0 8.66699 -7.5 16 -22.5 22s-22.5 11.667 -22.5 17c0 6.66699 4 10 12 10c26.667 0 61.167 0.666992 103.5 2s64.166 2 65.499 2c14.667 0 22 -3 22 -9c0 -4.66699 -2.16699 -8.16699 -6.5 -10.5s-10 -4 -17 -5s-17 -4 -30 -9s-26.5 -12.167 -40.5 -21.5
c-8.66699 -6 -20 -14.333 -34 -25c-56 -42.667 -88.167 -67.5 -96.5 -74.5s-12.5 -13.5 -12.5 -19.5s3.33301 -13.333 10 -22c58.667 -72 111 -128 157 -168c18 -16 36.167 -26.333 54.5 -31s31.5 -7 39.5 -7s12 -3 12 -9c0 -8 -2.83301 -13 -8.5 -15s-16.5 -3 -32.5 -3
c-4.66699 0 -22.334 0.333008 -53.001 1s-47.667 1 -51 1c-4 0 -9.83301 2.83301 -17.5 8.5s-16.667 13.667 -27 24s-20.5 21.166 -30.5 32.499l-33.5 38.5l-31 37l-27 33.5l-18.5 23c-2.66699 4 -6.33398 6 -11.001 6c-8 0 -15.167 -5 -21.5 -15s-9.5 -20.333 -9.5 -31
c0 -1.33301 0.166992 -3.83301 0.5 -7.5s0.5 -6.83398 0.5 -9.50098c0 -7.33301 0.333008 -16.666 1 -27.999c1.33301 -32 3.66602 -50 6.99902 -54c0.666992 -0.666992 1.66699 -2 3 -4l7 -9c5.33301 -7.33301 17.666 -13 36.999 -17s29 -9 29 -15
c0 -8.66699 -10.333 -13 -31 -13c-1.33301 0 -13 0.5 -35 1.5s-39.333 1.5 -52 1.5c-8.66699 -0 -18.667 -0.666992 -30 -2s-24.666 -2 -39.999 -2c-16 0 -24 4 -24 12c0 5.33301 7.83301 10.666 23.5 15.999s24.834 13.333 27.501 24c4 18 6 41 6 69
c0 7.33301 0.166992 16 0.5 26s0.5 16 0.5 18l1 423c0 7.33301 0.166992 14.833 0.5 22.5s0.5 12.167 0.5 13.5c0 43.333 -23.667 65 -71 65c-19.333 0 -36.666 -5.66699 -51.999 -17c-22 -16.667 -38.833 -47.167 -50.5 -91.5s-17.5 -86.166 -17.5 -125.499
c0 -22.667 1.66699 -34 5 -34c45.333 0 75 1 89 3c3.33301 0 10.666 3 21.999 9s19 9 23 9c4.66699 0 7 -2.66699 7 -8c0 -7.33301 -4.5 -17.5 -13.5 -30.5s-18.5 -19.5 -28.5 -19.5h-90c-10.667 0 -16 -4.66699 -16 -14c0 -0.666992 -0.166992 -13.167 -0.5 -37.5
s-0.666016 -53.333 -0.999023 -87s-0.5 -61.834 -0.5 -84.501v-28c0 -30 2.33301 -52.167 7 -66.5s10.167 -23.333 16.5 -27s17.833 -7.16699 34.5 -10.5c1.33301 -0.666992 2.33301 -1 3 -1s1.66699 -0.166992 3 -0.5s2.33301 -0.5 3 -0.5c10.667 -2 16 -8.33301 16 -19
c0 -4.66699 -3.66699 -7 -11 -7c-0.666992 0 -5.66699 0.333008 -15 1s-20.166 1.33398 -32.499 2.00098s-21.833 1 -28.5 1c-11.333 0 -30 -1 -56 -3s-40 -3 -42 -3c-13.333 0 -20 5.33301 -20 16c0 6 5.83301 10.333 17.5 13s18.834 5.66699 21.501 9
c9.33301 10.667 14 29 14 55c0 4.66699 -0.166992 17 -0.5 37s-0.5 50.167 -0.5 90.5v143.5c0 14 -6.33301 21 -19 21c-3.33301 0 -9 -0.166992 -17 -0.5s-15 -0.5 -21 -0.5c-15.333 0 -23 3.66699 -23 11z" />
    <glyph glyph-name="f_f_k" unicode="ffk" horiz-adv-x="1090" 
d="M28 394c0 10.667 1.83789 17.5039 5.50488 20.5039s13.167 4.5 28.5 4.5h29c8 0 12.833 1.16699 14.5 3.5s2.5 7.5 2.5 15.5c0 68.667 24.167 132.167 72.5 190.5s106.5 87.5 174.5 87.5c25.333 0 50.666 -6.66699 75.999 -20s38.333 -20 39 -20c2 0 3.66699 0.5 5 1.5
s3.16602 2.66699 5.49902 5s4.5 4.16602 6.5 5.49902c42 32.667 80.667 49 116 49c6 0 14.333 -0.166992 25 -0.5s16.667 -0.5 18 -0.5c8.66699 0 17.167 3 25.5 9s16.166 9 23.499 9c8 0 12 -9.66699 12 -29c0 -0.666992 -0.166992 -8.16699 -0.5 -22.5
s-0.666016 -39.666 -0.999023 -75.999s-0.5 -82.5 -0.5 -138.5c0 -22.667 -0.5 -56.834 -1.5 -102.501s-1.5 -79.834 -1.5 -102.501v-21c0 -28 1.33301 -42 4 -42c4 0 7.5 1 10.5 3s6.66699 5.33301 11 10s7.83301 8 10.5 10c93.333 74.667 140 117 140 127
c0 8.66699 -7.5 16 -22.5 22s-22.5 11.667 -22.5 17c0 6.66699 4 10 12 10c27.333 0 58 0.666992 92 2s57 2 69 2c20 0 30 -3 30 -9c0 -4.66699 -2 -8 -6 -10s-9.33301 -3.5 -16 -4.5s-16.334 -3.83301 -29.001 -8.5s-25.667 -11.334 -39 -20.001l-6 -4
c-2 -1.33301 -4.16699 -3 -6.5 -5s-6.66602 -5.33301 -12.999 -10l-21.5 -16l-37 -28c-31.333 -24 -49.666 -38.333 -54.999 -43s-8 -9.66699 -8 -15s3.66699 -13 11 -23c60.667 -74 112.667 -130 156 -168c18 -16 36.167 -26.333 54.5 -31s31.5 -7 39.5 -7s12 -3 12 -9
c0 -8 -2.83301 -12.833 -8.5 -14.5s-16.5 -2.5 -32.5 -2.5c-4.66699 0 -22.334 0.166992 -53.001 0.5s-47.667 0.5 -51 0.5c-5.33301 0 -14 5.16699 -26 15.5s-26.5 25 -43.5 44l-43.5 50l-44 53.5c-17.333 21.333 -26.333 32.666 -27 33.999c-3.33301 4 -7.33301 6 -12 6
c-6.66699 0 -13.334 -4.66699 -20.001 -14s-10 -20 -10 -32c0 -1.33301 0.166992 -3.83301 0.5 -7.5s0.5 -6.83398 0.5 -9.50098c0.666992 -10.667 1.16699 -21.5 1.5 -32.5s0.5 -18.667 0.5 -23s0.166992 -8.66602 0.5 -12.999s1.16602 -7.66602 2.49902 -9.99902
s2.83301 -4.66602 4.5 -6.99902s4.16699 -5.5 7.5 -9.5c5.33301 -6 14.166 -10.5 26.499 -13.5s22.833 -5.66699 31.5 -8s13 -5.83301 13 -10.5c0 -10.667 -8.66699 -16 -26 -16c-1.33301 0 -14.666 1 -39.999 3s-44.333 3 -57 3c-8.66699 0 -18.667 -0.666992 -30 -2
s-24.666 -2 -39.999 -2c-16 0 -24 4 -24 12c0 3.33301 1.5 6.16602 4.5 8.49902s5.83301 4 8.5 5s4.33398 1.5 5.00098 1.5c4 0 10.167 2.83301 18.5 8.5s13.5 12.167 15.5 19.5c4 16 6 52.667 6 110c0.666992 240.667 1 391.334 1 452.001
c0 29.333 -4.83301 49.166 -14.5 59.499s-28.5 15.5 -56.5 15.5c-22.667 0 -42 -6.33301 -58 -19c-22 -16.667 -37.5 -46.167 -46.5 -88.5s-13.5 -85.166 -13.5 -128.499c0 -21.333 1.66699 -32 5 -32c1.33301 0 10.833 0.166992 28.5 0.5s28.834 0.5 33.501 0.5
c21.333 0 37.833 3.5 49.5 10.5s20.167 10.5 25.5 10.5c2.66699 0 4 -2.66699 4 -8c0 -9.33301 -3.66699 -20.5 -11 -33.5s-14.666 -19.5 -21.999 -19.5c-14.667 0 -29.167 0.166992 -43.5 0.5s-32.5 0.5 -54.5 0.5c-9.33301 0 -14.833 -10.833 -16.5 -32.5
s-2.5 -94.834 -2.5 -219.501c0 -63.333 15.333 -97 46 -101c7.33301 -1.33301 12.333 -2.16602 15 -2.49902s6.5 -1.33301 11.5 -3s8.5 -4 10.5 -7s3 -6.83301 3 -11.5s-3.66699 -7 -11 -7c-0.666992 0 -7.33398 0.333008 -20.001 1s-26.834 1.33398 -42.501 2.00098
s-26.834 1 -33.501 1c-11.333 0 -27.666 -1 -48.999 -3s-33 -3 -35 -3c-12.667 0 -19 5.33301 -19 16c0 6 2.83301 10 8.5 12s12 3.16699 19 3.5s13.333 4.66602 19 12.999s8.5 21.166 8.5 38.499v85v40c0 10 -0.166992 34.333 -0.5 73s-0.5 70.334 -0.5 95.001
c0 5.33301 -1 8.66602 -3 9.99902s-6 2 -12 2c-18 0 -37.167 -0.333008 -57.5 -1s-33.833 -1 -40.5 -1c-6 0 -16.333 -0.166992 -31 -0.5s-25.667 -0.5 -33 -0.5c-9.33301 0 -14 -4.66699 -14 -14v-117c0 -9.33301 0.166992 -22 0.5 -38s0.5 -27 0.5 -33v-56
c0 -37.333 5 -63.666 15 -78.999c3.33301 -5.33301 15.833 -10.833 37.5 -16.5s32.5 -11.167 32.5 -16.5c0 -7.33301 -4.66699 -11 -14 -11c-0.666992 0 -8 0.166992 -22 0.5s-29.333 0.5 -46 0.5h-35c-10 0 -21 -1 -33 -3s-23.667 -3 -35 -3c-16 0 -24 5.66699 -24 17
c0 7.33301 5 12 15 14c1.33301 0 4.16602 0.166992 8.49902 0.5s7.33301 0.833008 9 1.5s4.16699 2 7.5 4s5.66602 4.66699 6.99902 8s2.66602 8.16602 3.99902 14.499s2 14.166 2 23.499v285c0 10 -6.33301 15 -19 15h-42c-12.667 0 -19 5.66699 -19 17zM179.005 433.004
c0 -5.33301 0.833984 -9.00098 2.50098 -11.001s4.83398 -3 9.50098 -3h42h122c4.66699 0 8.16699 0.333008 10.5 1s4.16602 2.33398 5.49902 5.00098s2 7 2 13c0 32.667 3.66699 62.5 11 89.5s14.666 48 21.999 63s11 23.833 11 26.5c0 9.33301 -12.667 21.333 -38 36
s-46.666 22 -63.999 22c-22.667 0 -44.334 -10.333 -65.001 -31c-47.333 -46 -71 -116.333 -71 -211z" />
    <glyph glyph-name=".notdef" horiz-adv-x="396" 
d="M23 -64v774h334v-774h-334zM75 612c0 -6 3 -8.99805 9 -8.99805c0.666992 0 7 4.16699 19 12.5s24 12.5 36 12.5c18 0 37.667 -6.83301 59 -20.5s32 -33.5 32 -59.5c0 -20 -15.333 -64.667 -46 -134s-46 -116 -46 -140c0 -15.333 2.83301 -32.333 8.5 -51
s13.5 -28 23.5 -28c5.33301 0 8 3.33301 8 10c0 2.66699 -0.833008 9.16699 -2.5 19.5s-2.5 19.166 -2.5 26.499c0 23.333 7.33301 49.666 22 78.999s30.667 55.333 48 78s33.333 48 48 76s22 53 22 75c0 36 -13.333 64 -40 84s-58 30 -94 30
c-26.667 0 -50.667 -7.33301 -72 -22s-32 -27.667 -32 -39zM97 59.002c0 -5.33301 4.99805 -12.0029 14.998 -20.0029s16 -13 18 -15c6 -7.33301 13.167 -14.666 21.5 -21.999s14.5 -11 18.5 -11s8 1.83301 12 5.5s8.5 8.83398 13.5 15.501s8.83301 11.334 11.5 14.001
c2 2 6.33301 5.16699 13 9.5s11.834 8.5 15.501 12.5s5.5 8.66699 5.5 14c0 2.66699 -2.33301 6.5 -7 11.5s-10.334 10.167 -17.001 15.5l-10 8l-7 10c-5.33301 6.66699 -10.666 12.5 -15.999 17.5s-9.33301 7.5 -12 7.5c-4 0 -8.16699 -1.66699 -12.5 -5
s-9.16602 -8.16602 -14.499 -14.499s-9.33301 -10.5 -12 -12.5c-24 -20.667 -36 -34.334 -36 -41.001z" />
    <glyph glyph-name="space" unicode=" " horiz-adv-x="213" 
 />
    <glyph glyph-name="exclam" unicode="!" horiz-adv-x="276" 
d="M68 63c0 4.66699 9.66504 15.335 28.998 32.002c2.66699 2 6.83398 6.66699 12.501 14s11.167 13.166 16.5 17.499s10.666 6.5 15.999 6.5c2.66699 0 5 -0.666992 7 -2s5 -4.16602 9 -8.49902s6.33301 -6.83301 7 -7.5c7.33301 -8 14.833 -15 22.5 -21l17 -13
c3.66699 -2.66699 6.83398 -5.5 9.50098 -8.5s4 -6.5 4 -10.5c0 -5.33301 -2.16699 -10.333 -6.5 -15s-10.166 -9.5 -17.499 -14.5s-12 -8.5 -14 -10.5c-2.66699 -2.66699 -6.33398 -7.33398 -11.001 -14.001s-9.16699 -11.834 -13.5 -15.501s-8.5 -5.5 -12.5 -5.5
s-10.667 3.83301 -20 11.5s-16.666 15.167 -21.999 22.5c-2 2.66699 -6 6.5 -12 11.5s-11 10 -15 15s-6 10.167 -6 15.5zM97.998 651.001c0 25.333 16.333 37.999 49 37.999c16 0 27.667 -2.33301 35 -7s11 -13 11 -25c0 -2 -0.166992 -4.33301 -0.5 -7
s-1 -7.16699 -2 -13.5s-1.83301 -12.5 -2.5 -18.5c-2.66699 -22.667 -6.66699 -76.5 -12 -161.5s-13 -167.167 -23 -246.5c-1.33301 -7.33301 -6 -11 -14 -11s-12 3 -12 9c-6 68.667 -10.333 123.167 -13 163.5s-4.16699 65.5 -4.5 75.5l-1 29.5
c-0.333008 9.66699 -0.833008 19.834 -1.5 30.501c-6 84 -9 132 -9 144z" />
    <glyph glyph-name="quotedbl" unicode="&#x22;" horiz-adv-x="459" 
d="M251 649c0 4 8.99707 14.999 26.9971 32.999c1.33301 1.33301 4.83301 5.5 10.5 12.5s10.667 11.833 15 14.5s9.16602 4 14.499 4c4.66699 0 11.834 -3.33301 21.501 -10s19.834 -19.167 30.501 -37.5s16 -39.833 16 -64.5c0 -28 -4.66699 -54 -14 -78
s-20.5 -42.5 -33.5 -55.5s-25 -23 -36 -30s-19.5 -10.5 -25.5 -10.5c-3.33301 0 -6.33301 1.5 -9 4.5s-4 5.5 -4 7.5c0 4 3 8.5 9 13.5l19 16c6.66699 5.66699 13 14.834 19 27.501s9 27.667 9 45c0 18 -3.66699 33.167 -11 45.5s-15.166 20.833 -23.499 25.5
s-16.166 10 -23.499 16s-11 13 -11 21zM55.9971 648.999c0 4 8.99805 14.998 26.998 32.998c1.33301 1.33301 4.83301 5.5 10.5 12.5s10.667 11.833 15 14.5s9.16602 4 14.499 4c2 0 5.33301 -1.16699 10 -3.5s10.334 -6.5 17.001 -12.5s13 -13 19 -21s11 -18.667 15 -32
s6 -27.666 6 -42.999c0 -28 -4.66699 -54 -14 -78s-20.333 -42.5 -33 -55.5s-24.5 -23 -35.5 -30s-19.5 -10.5 -25.5 -10.5c-3.33301 0 -6.33301 1.5 -9 4.5s-4 5.5 -4 7.5c0 4 2.83301 8.5 8.5 13.5s12.167 10.333 19.5 16s13.833 14.834 19.5 27.501s8.5 27.667 8.5 45
c0 18 -3.66699 33.167 -11 45.5s-15.166 20.833 -23.499 25.5s-16.166 10 -23.499 16s-11 13 -11 21z" />
    <glyph glyph-name="numbersign" unicode="#" horiz-adv-x="533" 
d="M59 139l0.00292969 3.00195c0 8 0.666992 13.5 2 16.5s5.33301 4.5 12 4.5h82c2 0 3 0.666992 3 2c1.33301 12 3.66602 29.333 6.99902 52l8.5 57.5c2.33301 15.667 3.5 24.167 3.5 25.5c0 3.33301 -2.33301 5 -7 5h-95c-6 0 -10.167 1.16699 -12.5 3.5
s-3.5 7.83301 -3.5 16.5c0 14.667 5.33301 22 16 22h102c6 0 9 2.33301 9 7c9.33301 66.667 16.666 122.334 21.999 167.001c2 13.333 3.33301 20.666 4 21.999c3.33301 4.66699 10.666 7 21.999 7c13.333 0 20 -4 20 -12c0 -2 -4.33301 -33 -13 -93s-13 -91 -13 -93
c0 -3.33301 2 -5 6 -5h98c5.33301 0 8.33301 2.33301 9 7c17.333 125.333 26.666 188.666 27.999 189.999c2.66699 4 10.334 6 23.001 6c10.667 0 16 -3.33301 16 -10c0 -2.66699 -4.16699 -34 -12.5 -94s-12.5 -91.333 -12.5 -94c0 -3.33301 1.66699 -5 5 -5h69
c12 0 18 -8.33301 18 -25c0 -11.333 -5 -17 -15 -17h-81c-2 0 -3.66699 -2 -5 -6c-12 -86 -18 -129.333 -18 -130c0 -4 2.33301 -6 7 -6h95c4 0 7 -0.333008 9 -1s3.83301 -2.5 5.5 -5.5s2.5 -7.5 2.5 -13.5c0 -14.667 -5.66699 -22 -17 -22h-98
c-6 0 -9.66699 -3.33301 -11 -10l-12 -86c-6 -45.333 -10.333 -71.833 -13 -79.5s-9.66699 -11.5 -21 -11.5c-12.667 0 -19 4.33301 -19 13c0 2 3.83301 30.167 11.5 84.5s11.5 82.166 11.5 83.499c0 4 -2.33301 6 -7 6h-66c-12.667 0 -22 -0.333008 -28 -1
s-9.5 -1.5 -10.5 -2.5s-1.83301 -2.5 -2.5 -4.5c-14.667 -110.667 -22.667 -167.667 -24 -171c-3.33301 -5.33301 -11 -8 -23 -8s-18 4.33301 -18 13c0 2 3.83301 30 11.5 84s11.5 81.667 11.5 83c0 4.66699 -2.66699 7 -8 7h-70c-9.33301 0 -14 6 -14 18zM201.003 168.002
c0 -3.33301 2.66699 -4.99805 8 -4.99805h95c6 0 9.33301 2.33301 10 7c2 17.333 4.16699 33.666 6.5 48.999l5.5 35.5c1.33301 8.33301 2.5 16 3.5 23s1.66699 12.167 2 15.5s0.5 5.66602 0.5 6.99902c0 3.33301 -2 5 -6 5h-98c-4.66699 0 -7.66699 -2.33301 -9 -7
c-12 -86 -18 -129.333 -18 -130z" />
    <glyph glyph-name="dollar" unicode="$" horiz-adv-x="533" 
d="M64 96c0 4 0.49707 10.502 1.49707 19.502s3.33301 19.667 7 32s8.5 18.5 14.5 18.5c6.66699 0 11.834 -2.16699 15.501 -6.5s9 -14 16 -29l15.5 -32.5c10.667 -19.333 27 -36 49 -50s42.333 -21 61 -21c6.66699 0 10 5 10 15c0 42.667 0.5 90.834 1.5 144.501
s1.5 99.5 1.5 137.5c0 9.33301 -12 17.666 -36 24.999c-39.333 12.667 -71.5 31.334 -96.5 56.001s-37.5 60.667 -37.5 108s16.333 87.666 49 120.999s71.334 53 116.001 59c4.66699 0.666992 8 2.33398 10 5.00098s3 8.66699 3 18c0 4 -0.166992 8.66699 -0.5 14
s-0.5 9.66602 -0.5 12.999c0 15.333 7.33301 23 22 23c10 0 16.167 -1.33301 18.5 -4s3.5 -7.33398 3.5 -14.001v-22c0 -6.66699 -0.166992 -12 -0.5 -16s-0.5 -6.33301 -0.5 -7c0 -6 1.66699 -9 5 -9c21.333 -2.66699 41 -7.33398 59 -14.001s32 -13.667 42 -21
s18.5 -14.833 25.5 -22.5s11.833 -14 14.5 -19s4 -8.5 4 -10.5c0 -10 -3.5 -23.167 -10.5 -39.5s-13.5 -24.5 -19.5 -24.5s-10.333 3.66699 -13 11c-11.333 24.667 -26.666 47.167 -45.999 67.5s-38 30.5 -56 30.5c-6 0 -9 -6.33301 -9 -19
c0 -56 -0.833008 -99.333 -2.5 -130s-2.5 -52.667 -2.5 -66c0 -10.667 0.666992 -17.667 2 -21s5 -5.66602 11 -6.99902c60 -16.667 104.5 -41 133.5 -73s43.5 -74.667 43.5 -128c0 -33.333 -5.5 -63.333 -16.5 -90s-25.833 -48 -44.5 -64s-37.167 -28.833 -55.5 -38.5
s-37.833 -17.167 -58.5 -22.5c-2 -0.666992 -4.33301 -1.33398 -7 -2.00098c-8 -2 -12.333 -4.66699 -13 -8c-0.666992 -2 -1 -5 -1 -9v-19v-63c0 -18 -1.5 -29.5 -4.5 -34.5s-8.83301 -7.5 -17.5 -7.5c-14 0 -21 7 -21 21c0 12 0.5 29.5 1.5 52.5s1.5 38.167 1.5 45.5
c0 12.667 -2 19 -6 19c-31.333 0 -64 7.5 -98 22.5s-58.333 31.5 -73 49.5c-7.33301 8.66699 -11 20.667 -11 36zM145.997 539.002c0 -56 35 -93.001 105 -111.001h2c6 0 9 5.66699 9 17c0 29.333 0.166992 62.333 0.5 99s0.5 69 0.5 97c0 8 -3.66699 12 -11 12
c-18 0 -40.167 -10.167 -66.5 -30.5s-39.5 -48.166 -39.5 -83.499zM292.997 40.001c0 -8.66699 2.33594 -13.001 7.00293 -13.001c3.33301 0 8.66602 0.666992 15.999 2s17.833 5.33301 31.5 12s26.167 15.167 37.5 25.5s21.333 25.833 30 46.5s13 44.667 13 72
c0 20.667 -4.16699 39.334 -12.5 56.001s-18.333 29.667 -30 39s-23.834 17.166 -36.501 23.499s-22.834 10.666 -30.501 12.999s-12.5 3.5 -14.5 3.5c-4.66699 0 -7 -4.66699 -7 -14c0 -35.333 -0.666992 -79.666 -2 -132.999s-2 -97.666 -2 -132.999z" />
    <glyph glyph-name="percent" unicode="%" horiz-adv-x="771" 
d="M59 344c0 54 19.165 106.331 57.498 156.998s85.5 76 141.5 76c21.333 0 40.166 -5.83301 56.499 -17.5l46.5 -34.5c14.667 -11.333 30.334 -17 47.001 -17c12.667 0 26.667 2.83301 42 8.5s29.166 11.834 41.499 18.501s26.333 16.167 42 28.5
s27.334 21.833 35.001 28.5l31.5 28l19 18c5.33301 5.33301 11.333 8 18 8c6 0 9 -3 9 -9c0 -5.33301 -2.66699 -12.333 -8 -21l-435 -663c-17.333 -26.667 -27.666 -40.667 -30.999 -42c-4 -1.33301 -7.33301 -2 -10 -2c-8 0 -15.5 2.66699 -22.5 8
s-10.5 10.666 -10.5 15.999c0 8 9.66699 26.333 29 55c4.66699 6 8.33398 11 11.001 15l165 237l106.5 150l74.5 102c14 19.333 21 30 21 32c0 2.66699 -1.33301 4 -4 4c-0.666992 0 -7.16699 -3.66699 -19.5 -11s-28 -14.666 -47 -21.999s-37.5 -11 -55.5 -11
c-7.33301 0 -14.666 0.833008 -21.999 2.5s-13.5 3.33398 -18.5 5.00098s-7.83301 2.5 -8.5 2.5s-1 -0.333008 -1 -1l1 -7c0.666992 -4 1 -8 1 -12c0 -38 -3.33301 -69 -10 -93s-20.334 -51 -41.001 -81c-36 -53.333 -83.333 -80 -142 -80
c-23.333 0 -47.5 10.833 -72.5 32.5s-37.5 52.167 -37.5 91.5zM130.998 363.998c0 -36.667 5.33203 -65.333 15.999 -86s25.334 -31 44.001 -31c32 0 57.667 22 77 66s29 91.667 29 143c0 26.667 -4.33301 48.667 -13 66s-20 26 -34 26c-37.333 0 -66.5 -18.833 -87.5 -56.5
s-31.5 -80.167 -31.5 -127.5zM385.997 63.999c0 56.667 18.332 109.001 54.999 157.001s84.334 72 143.001 72c36 0 63 -11.333 81 -34s27 -52.334 27 -89.001c0 -58 -18.333 -113.833 -55 -167.5s-80 -80.5 -130 -80.5c-39.333 0 -69.333 13.5 -90 40.5
s-31 60.833 -31 101.5zM456.996 73c0 -36.667 5.33203 -65.667 15.999 -87s25.334 -32 44.001 -32c30 0 55.667 22.667 77 68s32 93 32 143c0 26.667 -4.83301 49.5 -14.5 68.5s-21.5 28.5 -35.5 28.5c-37.333 0 -66.5 -19.5 -87.5 -58.5s-31.5 -82.5 -31.5 -130.5z" />
    <glyph glyph-name="ampersand" unicode="&#x26;" horiz-adv-x="947" 
d="M59 242c0 22.667 3.83398 46.1631 11.501 70.4961s17.167 43.833 28.5 58.5c16 19.333 34.167 34.333 54.5 45s36.666 17.334 48.999 20.001s18.5 4.66699 18.5 6c0 2 -4 7.83301 -12 17.5s-16 24.334 -24 44.001s-12 42.167 -12 67.5c0 44 19.333 77.167 58 99.5
s82 33.5 130 33.5c23.333 0 45.333 -3.83301 66 -11.5s32.334 -11.5 35.001 -11.5s6.16699 0.5 10.5 1.5s8.16602 1.5 11.499 1.5c10.667 0 16 -7.66699 16 -23c0 -0.666992 0.333008 -5.16699 1 -13.5s1.33398 -17.833 2.00098 -28.5s1 -19.334 1 -26.001
c0 -19.333 -0.5 -31 -1.5 -35s-4.16699 -6 -9.5 -6c-4 0 -11 6 -21 18l-32 39.5c-11.333 14.333 -26.5 27.5 -45.5 39.5s-38.5 18 -58.5 18c-31.333 0 -54.666 -8.16699 -69.999 -24.5s-23 -33.833 -23 -52.5c0 -16.667 9.16699 -38.167 27.5 -64.5s37 -49.5 56 -69.5
l80.5 -82c50 -50 98.333 -95 145 -135s73 -60 79 -60c4 0 8 2.83301 12 8.5s7.33301 15.167 10 28.5s4 29 4 47c0 24.667 -3.5 44.5 -10.5 59.5s-13.167 24.333 -18.5 28s-14.666 8.83398 -27.999 15.501c-4.66699 2 -10.5 3.33301 -17.5 4s-12.167 1.83398 -15.5 3.50098
s-5 5.16699 -5 10.5c0 4.66699 1.5 7.66699 4.5 9s9.83301 2 20.5 2c14 0 29.5 -0.333008 46.5 -1s51.167 -1 102.5 -1c12.667 0 19 -4.33301 19 -13c0 -4.66699 -1.83301 -8.16699 -5.5 -10.5s-8 -4.16602 -13 -5.49902s-9.66699 -5.33301 -14 -12s-6.83301 -16 -7.5 -28
c-0.666992 -8 -1.5 -17 -2.5 -27s-2.16699 -20.167 -3.5 -30.5s-2.33301 -17.5 -3 -21.5c-2 -12.667 -6 -26.334 -12 -41.001s-11.5 -27 -16.5 -37s-7.5 -16 -7.5 -18c0 -6 19.833 -21.5 59.5 -46.5s79.834 -47.5 120.501 -67.5c13.333 -6.66699 27.666 -10 42.999 -10
c4.66699 0 11 0.5 19 1.5s13.667 1.5 17 1.5c8.66699 0 13 -3 13 -9c0 -10.667 -9.5 -19.667 -28.5 -27s-41.833 -11 -68.5 -11c-26 0 -51 3.5 -75 10.5s-44.333 15.333 -61 25s-31.334 19.5 -44.001 29.5s-22.834 18.5 -30.501 25.5s-12.167 10.5 -13.5 10.5
c-2.66699 0 -7.83398 -3.5 -15.501 -10.5s-17.834 -15.667 -30.501 -26s-28 -20.666 -46 -30.999s-42 -19 -72 -26s-63 -10.5 -99 -10.5c-21.333 0 -42.666 1.5 -63.999 4.5s-46.833 9.83301 -76.5 20.5s-55.667 25 -78 43s-41.333 44 -57 78s-23.5 73.333 -23.5 118z
M125.001 275.996c0 -23.333 5.66406 -47.665 16.9971 -72.998s27.833 -50.166 49.5 -74.499s51.834 -44.333 90.501 -60s82 -23.5 130 -23.5c28.667 0 56.834 4.83301 84.501 14.5s48.5 19.334 62.5 29.001s21 16.5 21 20.5c0 2.66699 -8.66699 10.5 -26 23.5
s-46 36.5 -86 70.5s-80.667 71.667 -122 113l-27.5 27.5l-22.5 22.5l-17.5 17.5l-13.5 13.5c-3.33301 3.33301 -6.5 6.66602 -9.5 9.99902s-5.5 5.66602 -7.5 6.99902s-3.83301 2.66602 -5.5 3.99902s-3.16699 2.16602 -4.5 2.49902s-2.66602 0.5 -3.99902 0.5
c-22 0 -45.667 -14 -71 -42s-38 -62.333 -38 -103z" />
    <glyph glyph-name="quotesingle" unicode="'" horiz-adv-x="264" 
d="M56 649c0 4 8.99805 14.998 26.998 32.998c1.33301 1.33301 4.83301 5.5 10.5 12.5s10.667 11.833 15 14.5s9.16602 4 14.499 4c2 0 5.33301 -1.16699 10 -3.5s10.334 -6.5 17.001 -12.5s13 -13 19 -21s11 -18.667 15 -32s6 -27.666 6 -42.999
c0 -28 -4.66699 -54 -14 -78s-20.333 -42.5 -33 -55.5s-24.5 -23 -35.5 -30s-19.5 -10.5 -25.5 -10.5c-3.33301 0 -6.33301 1.5 -9 4.5s-4 5.5 -4 7.5c0 4 2.83301 8.5 8.5 13.5s12.167 10.333 19.5 16s13.833 14.834 19.5 27.501s8.5 27.667 8.5 45
c0 18 -3.66699 33.167 -11 45.5s-15.166 20.833 -23.499 25.5s-16.166 10 -23.499 16s-11 13 -11 21z" />
    <glyph glyph-name="parenleft" unicode="(" horiz-adv-x="326" 
d="M73 278c0 59.333 6.99805 116.664 20.998 171.997s31 101.666 51 138.999s40.833 70.333 62.5 99s40.334 49.834 56.001 63.501s26.167 20.5 31.5 20.5c14 0 21 -7 21 -21c0 -4 -6.83301 -12.667 -20.5 -26s-30.167 -31.666 -49.5 -54.999s-38.666 -51.333 -57.999 -84
s-35.833 -76.167 -49.5 -130.5s-20.5 -113.833 -20.5 -178.5c0 -59.333 6.66699 -115.166 20 -167.499s29.5 -95.333 48.5 -129s38.167 -63 57.5 -88s35.666 -44.833 48.999 -59.5s20 -24 20 -28c0 -6 -2.33301 -10.667 -7 -14s-9 -5 -13 -5
c-7.33301 0 -19.166 8 -35.499 24s-35 39.333 -56 70s-41.167 65.334 -60.5 104.001s-35.5 84.167 -48.5 136.5s-19.5 104.833 -19.5 157.5z" />
    <glyph glyph-name="parenright" unicode=")" horiz-adv-x="326" 
d="M10 -192c0 4 6.83496 12.668 20.502 26.001s30.167 31.5 49.5 54.5s38.666 50.833 57.999 83.5s35.833 76.167 49.5 130.5s20.5 113.833 20.5 178.5c0 59.333 -6.66699 115.166 -20 167.499s-29.5 95.333 -48.5 129s-38.167 63 -57.5 88s-35.666 44.833 -48.999 59.5
s-20 24 -20 28c0 6 2.33301 10.667 7 14s9 5 13 5c7.33301 0 19.166 -8 35.499 -24s35 -39.333 56 -70s41.167 -65.334 60.5 -104.001s35.5 -84.167 48.5 -136.5s19.5 -104.833 19.5 -157.5c0 -59.333 -7 -116.666 -21 -171.999s-31 -101.666 -51 -138.999
s-40.833 -70.333 -62.5 -99s-40.334 -49.834 -56.001 -63.501s-26.167 -20.5 -31.5 -20.5c-14 0 -21 7.33301 -21 22z" />
    <glyph glyph-name="asterisk" unicode="*" horiz-adv-x="431" 
d="M59 383c0 8.66699 18.001 21.002 54.001 37.002s54 25 54 27c0 2.66699 -18 12.334 -54 29.001s-54 29 -54 37c0 6 3.16699 13.333 9.5 22s13.833 13 22.5 13c6 0 22 -8.83301 48 -26.5s40.333 -26.5 43 -26.5c3.33301 0 5 6.33301 5 19c0 6.66699 -0.5 19.167 -1.5 37.5
s-1.5 32.166 -1.5 41.499c0 8.66699 1.66699 14.334 5 17.001s10.333 4 21 4c16 0 26.167 -2 30.5 -6s6.5 -14 6.5 -30c0 -6 -0.666992 -16.667 -2 -32s-2 -26.333 -2 -33c0 -12 1.66699 -18 5 -18s18.5 9 45.5 27s42.5 27 46.5 27c8 0 15.5 -4.16699 22.5 -12.5
s10.5 -15.833 10.5 -22.5c0 -8 -18.167 -20.333 -54.5 -37s-54.5 -26.334 -54.5 -29.001c0 -3.33301 18.167 -13 54.5 -29s54.5 -28 54.5 -36c0 -6.66699 -3.33301 -14.167 -10 -22.5s-14.667 -12.5 -24 -12.5c-6 0 -22 8.83301 -48 26.5s-40 26.5 -42 26.5
c-3.33301 0 -5 -6.33301 -5 -19c0 -6.66699 0.5 -16.834 1.5 -30.501s1.5 -22.834 1.5 -27.501c0 -19.333 -1.83301 -31.166 -5.5 -35.499s-13.834 -6.5 -30.501 -6.5c-18 0 -27 8 -27 24c0 5.33301 0.5 16.666 1.5 33.999s1.5 30 1.5 38c0 15.333 -1.66699 23 -5 23
c-2.66699 0 -17.5 -8.83301 -44.5 -26.5s-42.5 -26.5 -46.5 -26.5c-8.66699 0 -16.167 4.33301 -22.5 13s-9.5 16 -9.5 22z" />
    <glyph glyph-name="plus" unicode="+" horiz-adv-x="527" 
d="M31 212c0 5.33301 0.167969 9.16602 0.500977 11.499s1.83301 4.33301 4.5 6s7 2.5 13 2.5h170c14.667 0 22 6.33301 22 19v176c0 4.66699 0.833008 8.16699 2.5 10.5s3.66699 3.66602 6 3.99902s6.5 0.5 12.5 0.5s10.333 -0.166992 13 -0.5
s5.16699 -2.16602 7.5 -5.49902s3.5 -8 3.5 -14v-163c0 -18 5.66699 -27 17 -27h177c5.33301 0 9.16602 -0.833008 11.499 -2.5s3.66602 -3.66699 3.99902 -6s0.5 -6.5 0.5 -12.5c0 -9.33301 -1 -15.5 -3 -18.5s-8 -4.5 -18 -4.5h-172c-8 0 -12.833 -1.16699 -14.5 -3.5
s-2.5 -7.16602 -2.5 -14.499v-175c0 -7.33301 -1.66699 -12 -5 -14s-8.33301 -3 -15 -3c-10.667 0 -17.5 0.833008 -20.5 2.5s-4.5 6.83398 -4.5 15.501v174c0 8 -1.5 13 -4.5 15s-9.5 3 -19.5 3h-169c-6 0 -10.167 1 -12.5 3s-3.66602 4.16699 -3.99902 6.5
s-0.5 7.16602 -0.5 14.499z" />
    <glyph glyph-name="comma" unicode="," horiz-adv-x="250" 
d="M54 54c0 3.33301 1.00098 6.66992 3.00098 10.0029s4.16699 6.16602 6.5 8.49902l10.5 10l11 10.5c2 2 4.66699 5.33301 8 10s6.33301 8.33398 9 11.001s6.16699 5.16699 10.5 7.5s9.16602 3.5 14.499 3.5c3.33301 0 10 -4 20 -12s20.667 -22.333 32 -43s17 -44 17 -70
c0 -42 -14.833 -80.167 -44.5 -114.5s-53.5 -51.5 -71.5 -51.5c-10 0 -15 4.33301 -15 13c0 4.66699 3.16699 10 9.5 16s13.5 12.167 21.5 18.5s15.167 15.666 21.5 27.999s9.5 26.5 9.5 42.5c0 13.333 -3 25.166 -9 35.499s-11.5 17.666 -16.5 21.999
s-15.167 12.166 -30.5 23.499c-8.66699 6 -13.667 9.83301 -15 11.5s-2 4.83398 -2 9.50098z" />
    <glyph glyph-name="hyphen" unicode="-" horiz-adv-x="340" 
d="M44 145v10.9971c0 19.333 3.16699 31.666 9.5 36.999s22.166 11.666 47.499 18.999c35.333 10.667 66.666 20.834 93.999 30.501s45.833 16.334 55.5 20.001s17.5 5.5 23.5 5.5c14.667 0 22 -11.333 22 -34v-6c0 -6 -0.166992 -10.667 -0.5 -14
s-1.66602 -6.66602 -3.99902 -9.99902s-4.33301 -5.66602 -6 -6.99902s-5.66699 -3.33301 -12 -6s-12 -4.66699 -17 -6l-25 -7c-11.667 -3.33301 -22.5 -6.66602 -32.5 -9.99902c-18.667 -6 -37.167 -12.333 -55.5 -19l-40 -14.5c-8.33301 -3 -16.166 -5.5 -23.499 -7.5
s-14 -3 -20 -3c-10.667 0 -16 7 -16 21z" />
    <glyph glyph-name="period" unicode="." horiz-adv-x="252" 
d="M54 55c0 8 10.333 21 31 39c2.66699 2.66699 6.5 7.33398 11.5 14.001s10 11.834 15 15.501s10.167 5.5 15.5 5.5s19 -13 41 -39c2 -2 5.83301 -5.5 11.5 -10.5s10.167 -9.66699 13.5 -14s5 -7.83301 5 -10.5c0 -3.33301 -1.66699 -6.83301 -5 -10.5
s-8.33301 -8.16699 -15 -13.5l-15 -12c-2.66699 -2.66699 -6.5 -7.33398 -11.5 -14.001s-9.66699 -11.834 -14 -15.501s-8.5 -5.5 -12.5 -5.5c-6 0 -13.667 5.83301 -23 17.5s-15 18.167 -17 19.5c-20.667 14.667 -31 26 -31 34z" />
    <glyph glyph-name="slash" unicode="/" horiz-adv-x="416" 
d="M20 -170c0 1.33301 6.33398 20.333 19.001 57c203.333 548.667 305.666 825.334 306.999 830.001c2.66699 7.33301 5.83398 12.166 9.50098 14.499s10.167 3.5 19.5 3.5c14 0 21 -4 21 -12c0 -5.33301 -4.66699 -20 -14 -44l-304 -831
c-5.33301 -14.667 -9.83301 -23.5 -13.5 -26.5s-9.83398 -4.5 -18.501 -4.5c-17.333 0 -26 4.33301 -26 13z" />
    <glyph glyph-name="zero" unicode="0" horiz-adv-x="529" 
d="M39 212c0 67.333 22.333 120 67 158s97.334 57 158.001 57c62 0 115.167 -18.833 159.5 -56.5s66.5 -92.5 66.5 -164.5c0 -60 -19.333 -111.833 -58 -155.5s-92.334 -65.5 -161.001 -65.5c-75.333 0 -132.833 22.333 -172.5 67s-59.5 98 -59.5 160zM95 207
c0 -54 17.668 -95.499 53.001 -124.499s76.333 -43.5 123 -43.5c45.333 0 84.333 16 117 48s49 74.333 49 127c0 49.333 -17.833 88.666 -53.5 117.999s-76.834 44 -123.501 44c-46 0 -85 -14.5 -117 -43.5s-48 -70.833 -48 -125.5z" />
    <glyph glyph-name="one" unicode="1" horiz-adv-x="340" 
d="M20 12c0 6 4.66699 10.501 14 13.501s19.666 4.83301 30.999 5.5s22.166 3.83398 32.499 9.50098s16.5 14.167 18.5 25.5c6 36 9 70.333 9 103v80c0 7.33301 0.166992 16.666 0.5 27.999s0.5 19 0.5 23c0 41.333 -4.5 66.666 -13.5 75.999s-31.167 15 -66.5 17
c-12 0 -18 5 -18 15c0 7.33301 7 11 21 11c1.33301 0 11 -1 29 -3s47 -3 87 -3c26.667 0 49.5 0.833008 68.5 2.5s31.167 2.5 36.5 2.5c7.33301 0 13 -1.66699 17 -5s6 -6.66602 6 -9.99902c0 -4 -1.16699 -7.16699 -3.5 -9.5s-4.83301 -3.83301 -7.5 -4.5
s-6.5 -1.16699 -11.5 -1.5s-8.5 -0.833008 -10.5 -1.5c-3.33301 -0.666992 -9 -1.5 -17 -2.5s-13.167 -1.83301 -15.5 -2.5s-6 -2.83398 -11 -6.50098s-8.16699 -8.66699 -9.5 -15s-2.83301 -15.166 -4.5 -26.499s-2.5 -25.333 -2.5 -42c0 -4 -0.166992 -11.333 -0.5 -22
s-0.5 -20.334 -0.5 -29.001c0 -6.66699 -0.333008 -23.5 -1 -50.5s-1 -48.167 -1 -63.5v-23c0 -17.333 1.33301 -31.333 4 -42c4 -12 15.833 -20.5 35.5 -25.5s38.5 -8.83301 56.5 -11.5s27 -7.66699 27 -15c0 -6 -2 -9.66699 -6 -11s-11.333 -2 -22 -2
c-9.33301 0 -29.166 0.833008 -59.499 2.5s-53.166 2.5 -68.499 2.5s-36.5 -0.833008 -63.5 -2.5s-44.5 -2.5 -52.5 -2.5c-18.667 0 -28 5.33301 -28 16z" />
    <glyph glyph-name="two" unicode="2" horiz-adv-x="468" 
d="M29 8c0 4 1.8291 7.33203 5.49609 9.99902s11.167 6.33398 22.5 11.001s22 10 32 16c74.667 44.667 129.334 89 164.001 133s52 83.667 52 119c0 28.667 -11.167 51.667 -33.5 69s-44.5 26 -66.5 26c-39.333 0 -59 -15.333 -59 -46c0 -7.33301 2.66699 -18 8 -32
s8 -23 8 -27c0 -6.66699 -4.33301 -10 -13 -10c-16.667 0 -32.5 3.83301 -47.5 11.5s-22.5 15.834 -22.5 24.501c0 8 2.66699 17.667 8 29s13.666 23.5 24.999 36.5s29 23.833 53 32.5s52 13 84 13c39.333 0 71.5 -9.33301 96.5 -28s37.5 -45.334 37.5 -80.001
c0 -28.667 -13.167 -60 -39.5 -94s-56.166 -64.667 -89.499 -92c-40.667 -33.333 -61 -52.666 -61 -57.999s15.333 -8 46 -8c66.667 0 114 4.33301 142 13c10.667 3.33301 21.834 12.5 33.501 27.5s18.834 22.5 21.501 22.5c8 0 12 -3.66699 12 -11
c0 -2 -8.33301 -18.833 -25 -50.5s-26 -48.834 -28 -51.501c-10 -11.333 -17 -17.333 -21 -18c-2.66699 0 -8 0.166992 -16 0.5s-25.667 0.833008 -53 1.5s-64.666 1 -111.999 1c-43.333 0 -76.5 -0.166992 -99.5 -0.5s-35.5 -0.5 -37.5 -0.5c-18 0 -27 3.33301 -27 10z" />
    <glyph glyph-name="three" unicode="3" horiz-adv-x="404" 
d="M39 -136c0 21.333 6.00098 32 18.001 32c2.66699 0 7.66699 -4.33301 15 -13s18.666 -17.167 33.999 -25.5s34 -12.5 56 -12.5c39.333 0 72.333 16.167 99 48.5s40 66.5 40 102.5c0 32 -13.667 58.667 -41 80s-63 32 -107 32c-6 0 -12.667 -0.333008 -20 -1
s-13.333 -1.5 -18 -2.5s-7.33398 -1.5 -8.00098 -1.5c-8.66699 0 -13 3.66699 -13 11c0 3.33301 0.333008 5.66602 1 6.99902s2.83398 3 6.50098 5s8 4.16699 13 6.5s12.833 6.83301 23.5 13.5l35 23c19.333 14 37 32 53 54s24 46.333 24 73
c0 20.667 -9.16699 39.167 -27.5 55.5s-39.833 24.5 -64.5 24.5c-21.333 0 -38.833 -5.33301 -52.5 -16s-22.5 -16 -26.5 -16c-7.33301 0 -11 3.33301 -11 10c0 11.333 13.333 25.833 40 43.5s54.667 26.5 84 26.5c34 0 64.167 -7.16699 90.5 -21.5
s39.5 -38.166 39.5 -71.499c0 -19.333 -5.83301 -38.833 -17.5 -58.5s-24.334 -35.834 -38.001 -48.501l-38 -34c-11.667 -10 -17.5 -16.333 -17.5 -19c0 -0.666992 3.5 -1.5 10.5 -2.5s16.833 -3 29.5 -6s24.334 -7.16699 35.001 -12.5c48 -24 72 -60 72 -108
c0 -55.333 -23.667 -110.166 -71 -164.499s-101.333 -81.5 -162 -81.5c-56.667 0 -85 12 -85 36v20z" />
    <glyph glyph-name="four" unicode="4" horiz-adv-x="504" 
d="M10 14c0 6.66699 2.83105 13.668 8.49805 21.001s24.167 28 55.5 62l246 272c1.33301 2 4.16602 5.5 8.49902 10.5l11 13c3 3.66699 6.66699 7.5 11 11.5s8.16602 7.16699 11.499 9.5s6.33301 3.5 9 3.5c7.33301 0 11 -8 11 -24c0 -0.666992 -1 -23.834 -3 -69.501
l-6.5 -145c-2.33301 -51 -3.5 -83.5 -3.5 -97.5c0 -9.33301 6 -14 18 -14c16 0 29 1.16699 39 3.5s16.333 5 19 8s5.33398 5.66699 8.00098 8s5.66699 3.5 9 3.5c8.66699 0 13 -4.33301 13 -13c0 -4 -0.833008 -8.66699 -2.5 -14s-4.16699 -11.833 -7.5 -19.5
s-5.66602 -13.167 -6.99902 -16.5c-0.666992 -1.33301 -1.66699 -3.83301 -3 -7.5s-2.5 -6.66699 -3.5 -9s-2.33301 -4.83301 -4 -7.5s-3.5 -4.66699 -5.5 -6s-4.33301 -2 -7 -2c-5.33301 0 -14.666 0.166992 -27.999 0.5s-22.333 0.5 -27 0.5
c-6 0 -9.83301 -1.33301 -11.5 -4s-2.5 -7.66699 -2.5 -15c0 -10 0.5 -27.5 1.5 -52.5s1.5 -42.833 1.5 -53.5c0 -1.33301 0.166992 -5 0.5 -11s0.5 -11 0.5 -15c0 -12.667 -5.33301 -20.667 -16 -24c-17.333 -4.66699 -32 -7 -44 -7c-12.667 0 -19 4.66699 -19 14
c0 2.66699 0.5 5.83398 1.5 9.50098s1.83301 8.66699 2.5 15s1.5 20.833 2.5 43.5s1.5 52 1.5 88c0 10.667 -3 16 -9 16c-8 0 -29 -0.333008 -63 -1s-62.667 -1 -86 -1c-14.667 0 -33.167 0.166992 -55.5 0.5s-38.166 0.5 -47.499 0.5c-8 0 -13.5 0.166992 -16.5 0.5
s-5.66699 1.66602 -8 3.99902s-3.5 5.83301 -3.5 10.5zM102.998 76.001c0 -8 12.6689 -12 38.002 -12h37c7.33301 0 20.166 -0.166992 38.499 -0.5s31.833 -0.5 40.5 -0.5c18 0 30 0.5 36 1.5s9 3.83301 9 8.5c2 94.667 3 161 3 199c0 16 -1.66699 24 -5 24
s-14.333 -9.83301 -33 -29.5s-31.334 -33.5 -38.001 -41.5c-12.667 -16 -30.167 -36.167 -52.5 -60.5l-53.5 -60c-13.333 -15.667 -20 -25.167 -20 -28.5z" />
    <glyph glyph-name="five" unicode="5" horiz-adv-x="342" 
d="M-47 -127c0 18.667 4.00391 27.998 12.0039 27.998c5.33301 0 12.5 -5.16699 21.5 -15.5s21.667 -20.833 38 -31.5s36.166 -16 59.499 -16c36 0 67.5 21.333 94.5 64s40.5 89.667 40.5 141c0 31.333 -4.16699 56.5 -12.5 75.5s-25.5 37.833 -51.5 56.5
c-14.667 10 -29.834 17.667 -45.501 23s-28.167 8.5 -37.5 9.5s-17.166 3 -23.499 6s-9.5 8.16699 -9.5 15.5c0 6.66699 1.33301 12.834 4 18.501s8.83398 20.667 18.501 45s20.5 56.5 32.5 96.5c4.66699 16 15 24 31 24c1.33301 0 11.166 -0.333008 29.499 -1
s33.166 -1 44.499 -1h5h25c6.66699 0 12.667 0.166992 18 0.5s9.5 0.666016 12.5 0.999023s5.66699 0.666016 8 0.999023s4.16602 1 5.49902 2s2.33301 1.66699 3 2s1.66699 1.5 3 3.5s2.33301 3.33301 3 4c2.66699 2.66699 5.5 6 8.5 10s5.33301 7 7 9s3.5 3.83301 5.5 5.5
s4 2.5 6 2.5c8.66699 0 13 -3.66699 13 -11c0 -3.33301 -1 -7.33301 -3 -12c-6 -12 -11.333 -23.5 -16 -34.5s-8 -19.167 -10 -24.5l-5.5 -14.5c-1.66699 -4.33301 -3.33398 -7 -5.00098 -8s-3.5 -1.83301 -5.5 -2.5s-5.33301 -1 -10 -1c-106 -0.666992 -160 -4 -162 -10
c-10 -23.333 -15 -38.333 -15 -45s7.83301 -12.167 23.5 -16.5s36.5 -11.833 62.5 -22.5s47.667 -25.334 65 -44.001c8.66699 -9.33301 18 -25.166 28 -47.499s15 -47.166 15 -74.499c0 -56.667 -15.333 -110.667 -46 -162c-50 -84.667 -121.333 -127 -214 -127
c-18 0 -37 5.66699 -57 17c-4 2.66699 -7.33301 11.834 -10 27.501s-4 26.834 -4 33.501z" />
    <glyph glyph-name="six" unicode="6" horiz-adv-x="497" 
d="M44 255c0 76 21.5 148.335 64.5 217.002s94.833 124 155.5 166c24.667 17.333 51.5 31 80.5 41s51.167 15 66.5 15c10 0 15 -4.33301 15 -13s-3.33301 -13.334 -10 -14.001c-29.333 -4 -54.333 -11.333 -75 -22s-45 -28 -73 -52
c-29.333 -24.667 -54.833 -55.334 -76.5 -92.001s-36.167 -65.667 -43.5 -87s-11 -34.333 -11 -39c0 -2.66699 1 -4 3 -4c0.666992 0 5.83398 4.5 15.501 13.5s24 18 43 27s40.833 13.5 65.5 13.5c58 0 104 -19.667 138 -59s51 -92 51 -158
c0 -63.333 -17.833 -117.166 -53.5 -161.499s-83.834 -66.5 -144.501 -66.5c-54 0 -104.667 24.333 -152 73c-39.333 41.333 -59 108.666 -59 201.999zM125 261.002c0 -45.333 4.83691 -84.999 14.5039 -118.999s22.167 -60 37.5 -78s30.833 -31.167 46.5 -39.5
s31.167 -12.5 46.5 -12.5c29.333 0 56.333 13.667 81 41s37 66 37 116c0 18 -3.16699 38.333 -9.5 61s-15.5 45.667 -27.5 69s-29.333 43 -52 59s-48.334 24 -77.001 24c-22.667 0 -48.334 -10.333 -77.001 -31c-4.66699 -4 -7.83398 -7 -9.50098 -9
s-3.83398 -9.83301 -6.50098 -23.5s-4 -32.834 -4 -57.501z" />
    <glyph glyph-name="seven" unicode="7" horiz-adv-x="501" 
d="M23 -175c0 10 62.166 95.668 186.499 257.001s186.5 245.666 186.5 252.999s-20.333 11 -61 11h-78c-24 0 -43.5 -0.333008 -58.5 -1s-32.667 -2.5 -53 -5.5s-36.333 -8.5 -48 -16.5s-18.834 -18 -21.501 -30c-1.33301 -6 -5.66602 -9 -12.999 -9
c-6.66699 0 -10 2.66699 -10 8c0 9.33301 2.83301 26.833 8.5 52.5s8.5 43.5 8.5 53.5c0.666992 9.33301 15.334 14 44.001 14c19.333 0 50.166 -0.666992 92.499 -2s76.5 -2 102.5 -2c38 0 69 0.833008 93 2.5s39.167 3.5 45.5 5.5s11.333 3.83301 15 5.5s6.5 2.5 8.5 2.5
c7.33301 0 11 -3.66699 11 -11c0 -6 -11 -25.667 -33 -59l-267 -394c-11.333 -16.667 -21.333 -32.5 -30 -47.5s-15.334 -27.333 -20.001 -37s-8.66699 -18.5 -12 -26.5s-5.66602 -14.167 -6.99902 -18.5s-2.66602 -8 -3.99902 -11s-2.83301 -5 -4.5 -6
s-4.16699 -1.5 -7.5 -1.5c-2 0 -8.83301 0.333008 -20.5 1s-22.167 1 -31.5 1c-14.667 0 -22 3.66699 -22 11z" />
    <glyph glyph-name="eight" unicode="8" horiz-adv-x="500" 
d="M39 179c0 26.667 4.49805 50.3389 13.498 71.0059s20 36.667 33 48s26 20.666 39 27.999s24 12.833 33 16.5s13.5 6.16699 13.5 7.5s-5.83301 6 -17.5 14s-24.5 17.333 -38.5 28s-26.833 26.667 -38.5 48s-17.5 44.666 -17.5 69.999c0 51.333 17.167 93.666 51.5 126.999
s77.5 50 129.5 50c58 0 102.667 -15.167 134 -45.5s47 -69.5 47 -117.5c0 -22 -3.16699 -42 -9.5 -60s-14.166 -32.167 -23.499 -42.5s-18.666 -19 -27.999 -26s-17.166 -12.5 -23.499 -16.5s-9.5 -6.66699 -9.5 -8c0 -2.66699 7 -8.33398 21 -17.001
s29.333 -18.834 46 -30.501s32 -29.667 46 -54s21 -51.5 21 -81.5c0 -54.667 -17.333 -103.334 -52 -146.001s-85.667 -64 -153 -64c-52.667 0 -93.334 8.33301 -122.001 25c-30 17.333 -53.333 41.5 -70 72.5s-25 65.5 -25 103.5zM82.998 180.005
c0 -50 15.832 -91.001 47.499 -123.001s71.5 -48 119.5 -48c49.333 0 86.333 14.833 111 44.5s37 62.167 37 97.5c0 42.667 -23 83.5 -69 122.5s-80 58.5 -102 58.5c-5.33301 0 -12.666 -0.833008 -21.999 -2.5s-21.333 -5.83398 -36 -12.501s-28.167 -15.167 -40.5 -25.5
s-23 -25.166 -32 -44.499s-13.5 -41.666 -13.5 -66.999zM116.997 534.004c0 -34.667 22.333 -67.001 67 -97.001s78 -45 100 -45c16.667 0 37.5 12.5 62.5 37.5s37.5 57.5 37.5 97.5c0 26.667 -12.167 54.834 -36.5 84.501s-57.833 44.5 -100.5 44.5
c-32.667 0 -62.5 -11 -89.5 -33s-40.5 -51.667 -40.5 -89z" />
    <glyph glyph-name="nine" unicode="9" horiz-adv-x="486" 
d="M39 189c0 58 18.6689 111.335 56.002 160.002s87 73 149 73c63.333 0 113 -23.667 149 -71s54 -106.333 54 -177c0 -62.667 -15 -124.334 -45 -185.001s-74.667 -111.334 -134 -152.001c-40 -28 -91.333 -42 -154 -42c-12.667 0 -19 5.66699 -19 17
c0 9.33301 8.66699 14 26 14c40 0 83.667 20 131 60c25.333 21.333 46.666 46.666 63.999 75.999s26 50.333 26 63c0 1.33301 -0.666992 2 -2 2c-0.666992 0 -4.83398 -3.16699 -12.501 -9.5s-20.167 -12.666 -37.5 -18.999s-38.333 -9.5 -63 -9.5
c-60.667 0 -107.167 19.333 -139.5 58s-48.5 86 -48.5 142zM109.002 240.002c0 -50 14.9971 -96.832 44.9971 -140.499s66.333 -65.5 109 -65.5c12 0 23.333 1.5 34 4.5s22.334 8.66699 35.001 17s22.834 22 30.501 41s11.5 42.5 11.5 70.5
c0 65.333 -15.833 118.166 -47.5 158.499s-67.167 60.5 -106.5 60.5c-29.333 0 -55.166 -12.833 -77.499 -38.5s-33.5 -61.5 -33.5 -107.5z" />
    <glyph glyph-name="colon" unicode=":" horiz-adv-x="260" 
d="M59 55c0 5.33301 11.6709 18.3359 35.0039 39.0029c2 2 5.83301 6.33301 11.5 13s10.667 11.667 15 15s9.5 5 15.5 5c1.33301 0 3 -0.666992 5 -2s4.16699 -3.33301 6.5 -6s4.66602 -5.16699 6.99902 -7.5s5.16602 -5.83301 8.49902 -10.5s6.33301 -8.33398 9 -11.001
c2 -2 5.83301 -5.5 11.5 -10.5s10.167 -9.66699 13.5 -14s5 -7.83301 5 -10.5c0 -3.33301 -1.66699 -6.83301 -5 -10.5s-8.33301 -8.16699 -15 -13.5l-15 -12c-2.66699 -2.66699 -6.33398 -7.33398 -11.001 -14.001s-9.16699 -11.834 -13.5 -15.501s-8.5 -5.5 -12.5 -5.5
c-4.66699 0 -9.33398 2.33301 -14.001 7s-9.5 10.167 -14.5 16.5s-9.16699 10.833 -12.5 13.5c-20 14 -30 25.333 -30 34zM66.0039 336.003c0 7.33301 10.001 19.667 30.001 37c2.66699 2.66699 6.16699 7 10.5 13s8.66602 10.833 12.999 14.5s9.16602 5.5 14.499 5.5
s17.333 -12.333 36 -37c1.33301 -2 4.5 -5.16699 9.5 -9.5s9 -8.5 12 -12.5s4.5 -8 4.5 -12c0 -2.66699 -1 -5.5 -3 -8.5s-4.16699 -5.5 -6.5 -7.5l-10.5 -9c-4.66699 -4 -8 -7 -10 -9c-2.66699 -2.66699 -6.16699 -7 -10.5 -13s-8.5 -10.833 -12.5 -14.5
s-8.33301 -5.5 -13 -5.5s-9.16699 2.16699 -13.5 6.5s-8.33301 9.66602 -12 15.999s-6.5 10.5 -8.5 12.5c-2.66699 2.66699 -6.16699 5.83398 -10.5 9.50098s-7.66602 6.66699 -9.99902 9s-4.5 4.83301 -6.5 7.5s-3 5 -3 7z" />
    <glyph glyph-name="semicolon" unicode=";" horiz-adv-x="262" 
d="M59 342c0 6.66699 10.335 18.998 31.002 36.998c2.66699 2.66699 6 7 10 13s8.16699 11 12.5 15s9.5 6 15.5 6c5.33301 0 17.666 -12.667 36.999 -38c2 -2 5.5 -5.16699 10.5 -9.5s9.16699 -8.66602 12.5 -12.999s5 -8.5 5 -12.5c0 -2.66699 -1 -5.5 -3 -8.5
s-4.16699 -5.5 -6.5 -7.5l-10.5 -9c-4.66699 -4 -8 -7 -10 -9c-2.66699 -2 -6.33398 -6.16699 -11.001 -12.5s-9.16699 -11.333 -13.5 -15s-8.83301 -5.5 -13.5 -5.5s-9.16699 2.16699 -13.5 6.5s-8.5 9.83301 -12.5 16.5s-7 11 -9 13
c-2.66699 2.66699 -6.16699 5.83398 -10.5 9.50098l-10.5 9c-2.66699 2.33301 -5 4.83301 -7 7.5s-3 5 -3 7zM61.002 53.998c0 4 1.33105 7.83398 3.99805 11.501s7.5 8.66699 14.5 15s11.5 10.5 13.5 12.5s5.33301 6.33301 10 13s9.33398 11.5 14.001 14.5
s10.334 4.5 17.001 4.5c1.33301 0 4.33301 -1.5 9 -4.5s10.5 -7.83301 17.5 -14.5s13.667 -14.667 20 -24s11.833 -21.333 16.5 -36s7 -30 7 -46c0 -42 -15.333 -80.5 -46 -115.5s-55 -52.5 -73 -52.5c-2 0 -4.5 1.5 -7.5 4.5s-4.5 6.5 -4.5 10.5
c0 4.66699 5 11.167 15 19.5s20.167 19.666 30.5 33.999s15.5 31.5 15.5 51.5c0 17.333 -4.33301 31.5 -13 42.5s-22.667 23.833 -42 38.5c-11.333 12 -17.333 19 -18 21z" />
    <glyph glyph-name="less" unicode="&#x3c;" horiz-adv-x="527" 
d="M41 211c0 4 0.168945 6.83008 0.501953 8.49707s1.66602 3.5 3.99902 5.5s5.83301 4 10.5 6l361 132c24 8.66699 38.167 13.834 42.5 15.501s7.16602 2.5 8.49902 2.5c12.667 0 19 -8.33301 19 -25c0 -8 -5.33301 -13.333 -16 -16l-305 -111c-28 -10 -42 -17 -42 -21
c0 -2 14 -8 42 -18l310 -112c7.33301 -2.66699 11 -7 11 -13c0 -5.33301 -2 -10.666 -6 -15.999s-10 -8 -18 -8c-2 0 -138 49 -408 147c-6.66699 2.66699 -10.667 5.33398 -12 8.00098s-2 7.66699 -2 15z" />
    <glyph glyph-name="equal" unicode="=" horiz-adv-x="527" 
d="M31 114c0 5.33301 0.167969 9.16797 0.500977 11.501s1.83301 4.5 4.5 6.5s7 3 13 3h431c5.33301 0 9.16602 -0.833008 11.499 -2.5s3.66602 -3.66699 3.99902 -6s0.5 -6.5 0.5 -12.5c0 -10 -1 -16.5 -3 -19.5s-8 -4.5 -18 -4.5h-427c-6 0 -10.167 1 -12.5 3
s-3.66602 4.16699 -3.99902 6.5s-0.5 7.16602 -0.5 14.499zM31.001 310.002c0 5.33301 0.167969 9.16797 0.500977 11.501s1.83301 4.33301 4.5 6s7 2.5 13 2.5h431c5.33301 0 9.16602 -0.833008 11.499 -2.5s3.66602 -3.66699 3.99902 -6s0.5 -6.5 0.5 -12.5
c0 -9.33301 -1 -15.5 -3 -18.5s-8 -4.5 -18 -4.5h-427c-6 0 -10.167 1 -12.5 3s-3.66602 4.16699 -3.99902 6.5s-0.5 7.16602 -0.5 14.499z" />
    <glyph glyph-name="greater" unicode="&#x3e;" horiz-adv-x="527" 
d="M41 65c0 6.66699 3.33398 11.002 10.001 13.002l311 112c28 10 42 16 42 18c0 4 -14 11 -42 21l-306 111c-10 2.66699 -15 8 -15 16c0 16.667 6 25 18 25c2 0 19 -6 51 -18l361 -132c10.667 -4 16 -10.667 16 -20c0 -7.33301 -0.833008 -12.333 -2.5 -15
s-5.83398 -5.33398 -12.501 -8.00098c-270 -98 -406 -147 -408 -147c-8 0 -13.833 2.66699 -17.5 8s-5.5 10.666 -5.5 15.999z" />
    <glyph glyph-name="question" unicode="?" horiz-adv-x="350" 
d="M75 612c0 11.333 10.667 24.3311 32 38.998s45.333 22 72 22c36 0 67.333 -10 94 -30s40 -48 40 -84c0 -22 -7.33301 -47 -22 -75s-30.667 -53.333 -48 -76s-33.333 -48.667 -48 -78s-22 -55.666 -22 -78.999c0 -7.33301 0.833008 -16.166 2.5 -26.499
s2.5 -16.833 2.5 -19.5c0 -6.66699 -2.66699 -10 -8 -10c-10 0 -17.833 9.33301 -23.5 28s-8.5 35.667 -8.5 51c0 24 15.333 70.667 46 140s46 114 46 134c0 26 -10.667 45.833 -32 59.5s-41 20.5 -59 20.5c-12 0 -24 -4.16699 -36 -12.5s-18.333 -12.5 -19 -12.5
c-6 0 -9 3 -9 9zM97 58.998c0 6.66699 12.002 20.3369 36.002 41.0039c2.66699 2 6.66699 6.16699 12 12.5s10.166 11.166 14.499 14.499s8.5 5 12.5 5c2.66699 0 6.66699 -2.5 12 -7.5s10.666 -10.833 15.999 -17.5l7 -10l10 -8
c6.66699 -5.33301 12.334 -10.5 17.001 -15.5s7 -8.83301 7 -11.5c0 -5.33301 -1.83301 -10 -5.5 -14s-8.83398 -8.16699 -15.501 -12.5s-11 -7.5 -13 -9.5c-2.66699 -2.66699 -6.5 -7.33398 -11.5 -14.001s-9.5 -11.834 -13.5 -15.501s-8 -5.5 -12 -5.5
s-10.167 3.66699 -18.5 11s-15.5 14.666 -21.5 21.999c-2 2 -8 7 -18 15s-15 14.667 -15 20z" />
    <glyph glyph-name="at" unicode="@" horiz-adv-x="821" 
d="M44 286c0 64 10.832 121.334 32.499 172.001s48.334 90.5 80.001 119.5s67.5 53 107.5 72s76.167 31.667 108.5 38s62.5 9.5 90.5 9.5c92.667 0 168.167 -29.5 226.5 -88.5s87.5 -131.167 87.5 -216.5c0 -72.667 -22.833 -134.667 -68.5 -186s-98.834 -77 -159.501 -77
c-21.333 0 -38.333 4.16699 -51 12.5s-20.334 17.5 -23.001 27.5s-4.66699 19.167 -6 27.5s-2.66602 12.5 -3.99902 12.5s-6.5 -5.16699 -15.5 -15.5s-19.5 -21.5 -31.5 -33.5s-27.833 -23.167 -47.5 -33.5s-39.834 -15.5 -60.501 -15.5
c-31.333 0 -54.666 8.83301 -69.999 26.5s-23 41.167 -23 70.5c0 38 10.5 78.667 31.5 122s49.833 80.5 86.5 111.5s74.334 46.5 113.001 46.5c12.667 0 27.5 -1.5 44.5 -4.5s26.167 -4.5 27.5 -4.5c4.66699 0 11 6.66699 19 20s15.667 20 23 20c5.33301 0 8 -6.33301 8 -19
c0 -2.66699 -4 -20.167 -12 -52.5s-16.167 -68.5 -24.5 -108.5s-12.5 -71 -12.5 -93v-13c0 -39.333 13.667 -59 41 -59c50.667 0 92.334 19.167 125.001 57.5s49 93.5 49 165.5c0 82 -26 146.167 -78 192.5s-116.667 69.5 -194 69.5
c-100.667 0 -185.834 -33.5 -255.501 -100.5s-104.5 -154.167 -104.5 -261.5c0 -94.667 29.5 -172.334 88.5 -233.001s135.833 -91 230.5 -91c42 0 80 5.5 114 16.5s59.667 21.833 77 32.5s26.333 16 27 16c7.33301 0 11 -4 11 -12c0 -4 -3.66699 -9.5 -11 -16.5
s-18.333 -14.667 -33 -23s-31.5 -16.333 -50.5 -24s-42 -14 -69 -19s-54.833 -7.5 -83.5 -7.5c-106.667 0 -193.5 31 -260.5 93s-100.5 147.667 -100.5 257zM283.999 227.001c0 -20 5.83398 -35 17.501 -45s26.5 -15 44.5 -15c18.667 0 37 5.66699 55 17
s30 21.666 36 30.999c8.66699 12.667 17 34.667 25 66c26.667 100.667 40 152.334 40 155.001c0 4 -7.33301 8.33301 -22 13s-28 7 -40 7c-32.667 0 -66.834 -21.5 -102.501 -64.5s-53.5 -97.833 -53.5 -164.5z" />
    <glyph glyph-name="A" unicode="A" horiz-adv-x="812" 
d="M20 8c0 9.33301 4.99805 15.6699 14.998 19.0029c21.333 8 40 25.833 56 53.5s55.667 110.5 119 248.5l173 372c4.66699 10 8.83398 16.333 12.501 19s9.5 4 17.5 4c6 0 10 -1.33301 12 -4s6.33301 -13.667 13 -33l10.5 -29l14.5 -39c6.66699 -18 14 -36.667 22 -56
l110.5 -261.5c52.333 -121.667 80.833 -187.5 85.5 -197.5c11.333 -22.667 24 -39.834 38 -51.501s26.167 -18 36.5 -19s19 -2.66699 26 -5s10.5 -7.5 10.5 -15.5c0 -10 -9 -15 -27 -15c-7.33301 0 -21.666 1 -42.999 3s-37 3 -47 3c-12.667 0 -29 -0.666992 -49 -2
s-34.667 -2 -44 -2c-20.667 0 -33.834 0.833008 -39.501 2.5s-8.5 5.5 -8.5 11.5c0 4.66699 2.66699 8.5 8 11.5s11 5 17 6s11.667 4 17 9s8 11.833 8 20.5c0 14.667 -8.33301 44.667 -25 90s-30.667 78.666 -42 99.999c-6 11.333 -19.667 17 -41 17
c-3.33301 0 -18 -0.333008 -44 -1s-51.667 -1 -77 -1h-53c-30 0 -48.833 -1.66699 -56.5 -5s-14.5 -11.333 -20.5 -24l-20 -41.5c-9.33301 -19 -15.666 -32.167 -18.999 -39.5l-12.5 -28.5c-5 -11.667 -8.33301 -21 -10 -28s-2.5 -13.167 -2.5 -18.5
c0 -15.333 3.83301 -27 11.5 -35s16.167 -12.5 25.5 -13.5s17.833 -2.83301 25.5 -5.5s11.5 -7.33398 11.5 -14.001c0 -4.66699 -1 -8.16699 -3 -10.5s-6.66699 -3.5 -14 -3.5c-4 0 -15.5 0.166992 -34.5 0.5s-35.167 0.5 -48.5 0.5c-14.667 -0 -31.167 -0.666992 -49.5 -2
s-30.5 -2 -36.5 -2c-19.333 0 -29 4 -29 12zM270.998 338.004c0 -8.66699 3.00098 -14.001 9.00098 -16.001s20 -3 42 -3h31l95 1c26 0 39 5.33301 39 16c0 8.66699 -16.333 49.834 -49 123.501s-53.334 110.5 -62.001 110.5c-6 0 -25 -36.833 -57 -110.5
s-48 -114.167 -48 -121.5z" />
    <glyph glyph-name="B" unicode="B" horiz-adv-x="630" 
d="M20 694c0 10 3.00098 15.0029 9.00098 15.0029c2 0 6.33301 -0.166992 13 -0.5s15.667 -0.5 27 -0.5c13.333 0 39.833 0.166992 79.5 0.5s61.834 0.5 66.501 0.5c15.333 0 34.666 0.5 57.999 1.5s40.666 1.5 51.999 1.5c60.667 0 111.334 -14.5 152.001 -43.5
s61 -70.167 61 -123.5c0 -19.333 -3.5 -37.5 -10.5 -54.5s-15.333 -30.833 -25 -41.5s-19.334 -19.834 -29.001 -27.501s-18 -13.667 -25 -18s-10.5 -6.83301 -10.5 -7.5c0 -2 5.66699 -4.5 17 -7.5s25 -8 41 -15s31.833 -16.5 47.5 -28.5s29.167 -29.833 40.5 -53.5
s17 -51.5 17 -83.5c0 -28.667 -8.33301 -59.334 -25 -92.001s-36.334 -56.667 -59.001 -72c-29.333 -20.667 -56.666 -34.5 -81.999 -41.5s-56 -10.5 -92 -10.5c-26.667 0 -62 1.83301 -106 5.5s-68.333 5.5 -73 5.5c-7.33301 0 -20.5 -0.666992 -39.5 -2s-34.5 -2 -46.5 -2
h-14c-14 0 -21 5 -21 15c0 9.33301 3.66699 14 11 14c4 0 8.33301 0.166992 13 0.5s8 0.5 10 0.5c6 0 11.833 2.16699 17.5 6.5s11.5 14 17.5 29s9.33301 34.167 10 57.5c2 43.333 3 147.333 3 312v170c0 4.66699 -0.833008 10.167 -2.5 16.5s-5 14.666 -10 24.999
s-14 19 -27 26s-29.167 10.5 -48.5 10.5c-11.333 0 -17 4 -17 12zM201.001 92.0029c0 -40 32.668 -60.002 98.001 -60.002h23c36 0 64.667 1.66699 86 5c31.333 5.33301 57.166 21.666 77.499 48.999s30.5 60 30.5 98c0 32.667 -6 60.834 -18 84.501s-25.667 41.5 -41 53.5
s-33.5 21.333 -54.5 28s-37.333 10.667 -49 12s-22.834 2 -33.501 2c-21.333 0 -38.833 0.166992 -52.5 0.5s-22.334 0.5 -26.001 0.5s-6.66699 0.166992 -9 0.5s-4.16602 0.5 -5.49902 0.5c-6 0 -10.333 -0.833008 -13 -2.5s-5.16699 -8 -7.5 -19
s-3.66602 -26.833 -3.99902 -47.5s-0.5 -51.667 -0.5 -93v-8v-60c0 -15.333 -0.166992 -26.166 -0.5 -32.499s-0.5 -10.166 -0.5 -11.499zM207.002 545.001c0 -33.333 0.168945 -59.333 0.501953 -78s1.16602 -33 2.49902 -43s2.66602 -16.333 3.99902 -19s3.33301 -4 6 -4
c18.667 -2 35.667 -3 51 -3h64c42 0 73.5 11 94.5 33s31.5 50.333 31.5 85c0 37.333 -17.5 73.5 -52.5 108.5s-84.833 52.5 -149.5 52.5c-20.667 0 -34.5 -6.16699 -41.5 -18.5s-10.5 -40.5 -10.5 -84.5v-29z" />
    <glyph glyph-name="C" unicode="C" horiz-adv-x="807" 
d="M44 324c0 72.667 13.9971 137.997 41.9971 195.997s71.167 104.833 129.5 140.5s127.5 53.5 207.5 53.5c40.667 0 81.667 -6 123 -18s74.333 -24 99 -36l37 -19c2 0 5.33301 1.66699 10 5s8.33398 5 11.001 5c3.33301 0 6.66602 -1.33301 9.99902 -4s5 -6.66699 5 -12
c0.666992 -19.333 2.16699 -39.833 4.5 -61.5s4.5 -39.5 6.5 -53.5s3 -22.333 3 -25c0 -12 -4 -18 -12 -18c-6 0 -11.667 4.66699 -17 14c-64.667 121.333 -158 182 -280 182c-83.333 0 -151.666 -26.667 -204.999 -80s-80 -123 -80 -209
c0 -47.333 6.16699 -91.666 18.5 -132.999s31 -79.166 56 -113.499s59.5 -61.5 103.5 -81.5s95.333 -30 154 -30c96 0 176.667 50 242 150c2.66699 4.66699 7.66699 7 15 7c6 0 9 -4.66699 9 -14c0 -7.33301 -1.16699 -17.166 -3.5 -29.499s-5.16602 -26 -8.49902 -41
s-5.33301 -24.167 -6 -27.5c-1.33301 -7.33301 -6.66602 -13.333 -15.999 -18c-36 -17.333 -64.167 -30.333 -84.5 -39s-46.166 -16.5 -77.499 -23.5s-63.333 -10.5 -96 -10.5c-58 0 -110.333 7 -157 21s-84.834 32.333 -114.501 55s-54.5 49.167 -74.5 79.5s-34 61 -42 92
s-12 63.167 -12 96.5z" />
    <glyph glyph-name="D" unicode="D" horiz-adv-x="792" 
d="M20 700c0 6 2.83008 9.49609 8.49707 10.4961s19.834 1.5 42.501 1.5h87c16.667 0 47.334 0.666992 92.001 2s79 2 103 2c46 0 92 -7 138 -21s88.333 -34.167 127 -60.5s70 -60.666 94 -102.999s36 -89.5 36 -141.5c0 -46.667 -3.16699 -87.167 -9.5 -121.5
s-16.833 -64 -31.5 -89s-29.334 -45.333 -44.001 -61s-34.667 -34.167 -60 -55.5c-20 -16 -49 -31 -87 -45s-77 -21 -117 -21c-4 0 -38 0.833008 -102 2.5s-110 2.5 -138 2.5c-23.333 0 -45 -0.833008 -65 -2.5s-31.667 -2.5 -35 -2.5c-16 0 -24 4.33301 -24 13
c0 5.33301 1.16699 9.16602 3.5 11.499s7.33301 4.5 15 6.5s13.167 3.66699 16.5 5c10.667 4.66699 20.5 13.5 29.5 26.5s13.5 25.833 13.5 38.5c0 37.333 0.166992 85 0.5 143s0.5 100.667 0.5 128c0 24 -0.166992 61.5 -0.5 112.5s-0.5 98.167 -0.5 141.5
c0 11.333 -5.5 22.833 -16.5 34.5s-23.167 17.834 -36.5 18.501c-9.33301 0.666992 -16.166 1.33398 -20.499 2.00098s-8.66602 2.83398 -12.999 6.50098s-6.5 8.83398 -6.5 15.501zM196.997 140.996c0 -12.667 0.168945 -22.9971 0.501953 -30.9971
s1.66602 -15.333 3.99902 -22s4.16602 -11.334 5.49902 -14.001s5.33301 -5.66699 12 -9s11.834 -5.5 15.501 -6.5l23.5 -6.5c12 -3.33301 22 -6 30 -8c23.333 -6.66699 47.666 -10 72.999 -10h20c45.333 0 84 6.5 116 19.5s62.667 33.5 92 61.5
c49.333 47.333 74 124 74 230c0 53.333 -10.5 101.666 -31.5 144.999s-48.5 77.833 -82.5 103.5s-70.667 45.334 -110 59.001s-79 20.5 -119 20.5h-39.5c-8.33301 0 -18 -0.833008 -29 -2.5s-18.333 -3 -22 -4s-8.16699 -4.33301 -13.5 -10s-8.5 -10.5 -9.5 -14.5
s-2.33301 -11.833 -4 -23.5s-2.5 -21.834 -2.5 -30.501v-42c0 -14.667 -0.333008 -49.167 -1 -103.5s-1 -83.833 -1 -88.5c0 -40 -0.166992 -83.333 -0.5 -130s-0.5 -74.334 -0.5 -83.001z" />
    <glyph glyph-name="E" unicode="E" horiz-adv-x="604" 
d="M20 699c0 9.33301 9.33203 13.9971 27.999 13.9971c2.66699 0 7 -0.333008 13 -1s10.667 -1 14 -1c2 0 33.333 -0.833008 94 -2.5s110.667 -2.5 150 -2.5c14 0 48.5 0.666992 103.5 2s87.167 2 96.5 2c12.667 0 19 -7.66699 19 -23c0 -4 -2 -17.167 -6 -39.5
s-6 -43.166 -6 -62.499c0 -6 -1.66699 -11.167 -5 -15.5s-7 -6.5 -11 -6.5c-10 0 -15 7 -15 21c0 18 -5.66699 34.333 -17 49s-25.333 22.334 -42 23.001c-60 4.66699 -106 7 -138 7h-26c-34.667 0 -54.834 -2.5 -60.501 -7.5s-9.16699 -22.833 -10.5 -53.5
c-2.66699 -48 -4 -103.667 -4 -167c0 -33.333 6.33301 -50.333 19 -51h25h42h31c40 0 66.667 1.33301 80 4s25.333 7.66699 36 15c12.667 8.66699 20.334 21 23.001 37c2 11.333 6.66699 17 14 17c6 0 9.66699 -1 11 -3s2 -6.33301 2 -13c0 -4.66699 -1.33301 -20 -4 -46
s-4 -45.667 -4 -59c0 -12.667 0.5 -24.667 1.5 -36s1.5 -19.666 1.5 -24.999c0 -16.667 -2.33301 -25 -7 -25c-10 0 -17.333 8 -22 24c-9.33301 28 -17.666 44.333 -24.999 49c-14 9.33301 -46 14 -96 14h-48.5c-12.333 0 -20.333 0.166992 -24 0.5s-6.66699 0.5 -9 0.5
h-6.5c-27.333 0 -41 -6.33301 -41 -19c0 -19.333 -0.333008 -43.5 -1 -72.5s-1 -52.833 -1 -71.5v-40c0 -48 8 -74.333 24 -79c16.667 -5.33301 31 -8 43 -8c50 0 93.833 2.33301 131.5 7s66 10.5 85 17.5s34.833 14.667 47.5 23s20.834 16 24.501 23
s7.33398 12.833 11.001 17.5s7.5 7 11.5 7c8 0 12 -5.66699 12 -17c0 -28.667 -14.333 -57.667 -43 -87s-53.667 -44 -75 -44c-48 0 -102.167 1.66699 -162.5 5s-97.833 5 -112.5 5c-18.667 0 -42 -1.5 -70 -4.5s-50 -4.5 -66 -4.5c-14 0 -21 3.33301 -21 10v12
c0 2 1 3.66699 3 5s4.16699 2.16602 6.5 2.49902s6.66602 1.5 12.999 3.5s13.166 4.66699 20.499 8c16 8 26.5 23.667 31.5 47s7.5 72.333 7.5 147v124c0 18 0.5 46 1.5 84s1.5 67.667 1.5 89c0 18 -0.666992 48.333 -2 91c-0.666992 19.333 -9 34.333 -25 45
s-34.667 16.334 -56 17.001c-10.667 0 -16 6 -16 18z" />
    <glyph glyph-name="F" unicode="F" horiz-adv-x="554" 
d="M20 697c0 2 0.499023 4.00488 1.49902 6.00488s3.66699 4.33301 8 7s9.83301 4 16.5 4h27c16 0 41.833 -1 77.5 -3s82.167 -3 139.5 -3c47.333 0 89.333 0.833008 126 2.5s70.334 2.5 101.001 2.5c11.333 0 17 -8 17 -24c0 -6 -0.666992 -13.5 -2 -22.5
s-3.33301 -21 -6 -36s-4.66699 -29.5 -6 -43.5c-1.33301 -13.333 -6.33301 -20 -15 -20c-9.33301 0 -14 6.66699 -14 20c0 44 -15.333 67 -46 69c-100.667 8 -160.667 12 -180 12c-30 0 -48.5 -3.66699 -55.5 -11s-10.833 -22.333 -11.5 -45v-8c-2 -36 -3 -91.667 -3 -167
c0 -32.667 6 -49.334 18 -50.001c3.33301 0 7.83301 -0.166992 13.5 -0.5s9.5 -0.5 11.5 -0.5c4.66699 0 11.667 0.166992 21 0.5s16.666 0.5 21.999 0.5h31c40 0 66.5 1.16699 79.5 3.5s24.833 7.16602 35.5 14.499c6 4 10.667 8.66699 14 14
s5.66602 11.666 6.99902 18.999s3 12.666 5 15.999s6 5 12 5s9.66699 -1 11 -3s2 -6.33301 2 -13c0 -4.66699 -1.5 -16.334 -4.5 -35.001s-4.5 -34.667 -4.5 -48c0 -12.667 1.16699 -28.167 3.5 -46.5s3.5 -30.166 3.5 -35.499c0 -10.667 -1.16699 -17.5 -3.5 -20.5
s-5.83301 -4.5 -10.5 -4.5c-11.333 0 -18.333 8.33301 -21 25c0 1.33301 -0.333008 4.33301 -1 9s-1.16699 8 -1.5 10s-1.16602 4.83301 -2.49902 8.5s-2.66602 6.5 -3.99902 8.5s-3 4.16699 -5 6.5s-4.66699 4.16602 -8 5.49902c-9.33301 4 -26 7.33301 -50 10
s-39.667 4 -47 4h-87c-27.333 0 -41 -6.33301 -41 -19c0 -19.333 -0.333008 -43.5 -1 -72.5s-1 -52.833 -1 -71.5c0 -4.66699 -0.166992 -11.5 -0.5 -20.5s-0.5 -15.5 -0.5 -19.5c0 -13.333 1.33301 -26.666 4 -39.999s10.5 -27.333 23.5 -42s30.5 -22 52.5 -22
c20 0 30 -6 30 -18c0 -2 -0.666992 -4.33301 -2 -7s-4.5 -5.33398 -9.5 -8.00098s-11.5 -4 -19.5 -4c-10.667 0 -27.5 1.33301 -50.5 4s-38.5 4 -46.5 4c-18.667 0 -39.5 -1 -62.5 -3s-42.5 -3 -58.5 -3c-13.333 0 -20 3.66699 -20 11c0 8.66699 1.5 14 4.5 16
s15.833 7 38.5 15c17.333 6 28 23.833 32 53.5s6.33301 89.834 7 180.501v83c0 18 0.5 46.167 1.5 84.5s1.5 68.166 1.5 89.499v58c0 44 -15.667 73.333 -47 88c-4.66699 2 -10.334 3.5 -17.001 4.5s-12.167 1.5 -16.5 1.5s-8.16602 1.16699 -11.499 3.5s-5 5.83301 -5 10.5
z" />
    <glyph glyph-name="G" unicode="G" horiz-adv-x="818" 
d="M44 329c0 72.667 14.5 137.997 43.5 195.997s73.5 104.833 133.5 140.5s131.333 53.5 214 53.5c32 0 62 -2.5 90 -7.5s51 -10.833 69 -17.5s33.667 -13.5 47 -20.5s23.5 -13 30.5 -18s11.167 -7.5 12.5 -7.5c2 0 6.5 2.5 13.5 7.5s11.833 7.5 14.5 7.5
c10 0 15 -6.66699 15 -20c0.666992 -19.333 2.16699 -39.666 4.5 -60.999s4.5 -39 6.5 -53s3 -22.333 3 -25c0 -11.333 -4 -17 -12 -17s-13.667 4 -17 12c-23.333 50.667 -62.333 93.5 -117 128.5s-111 52.5 -169 52.5c-83.333 0 -152.166 -26.167 -206.499 -78.5
s-81.5 -124.833 -81.5 -217.5c0 -61.333 11.333 -119 34 -173s57.167 -98.667 103.5 -134s99.5 -53 159.5 -53c51.333 0 97.833 11.667 139.5 35s64.834 50 69.501 80c2 16 3 58 3 126c0 26 -5.66699 44.667 -17 56c-8 8 -22.667 13.333 -44 16c-20 2 -31.667 6 -35 12
c-1.33301 2.66699 -2 6 -2 10c0 7.33301 6 11 18 11c8.66699 0 27.334 -0.833008 56.001 -2.5s47 -2.5 55 -2.5c13.333 0 27.666 0.166992 42.999 0.5s27.666 0.5 36.999 0.5h15c10.667 0 16 -3 16 -9c0 -4.66699 -8.5 -10.667 -25.5 -18s-26.5 -16.666 -28.5 -27.999
c-4.66699 -28.667 -7 -66 -7 -112c0 -20 0.333008 -37.667 1 -53s1.16699 -26.166 1.5 -32.499s0.833008 -11.833 1.5 -16.5s1 -8 1 -10c0 -3.33301 -2.5 -5.83301 -7.5 -7.5s-13.167 -4 -24.5 -7s-21.666 -7.16699 -30.999 -12.5l-7 -4
c-4.66699 -3.33301 -9.33398 -6.33301 -14.001 -9s-10.834 -6 -18.501 -10l-23.5 -12c-8 -4 -17 -8.16699 -27 -12.5s-20.333 -8.16602 -31 -11.499s-21.667 -6.33301 -33 -9s-23.166 -4.83398 -35.499 -6.50098s-24.5 -2.5 -36.5 -2.5
c-72.667 0 -135.834 9.83301 -189.501 29.5s-95.167 46.334 -124.5 80.001s-51 70.167 -65 109.5s-21 81.666 -21 126.999z" />
    <glyph glyph-name="H" unicode="H" horiz-adv-x="791" 
d="M20 699c0 7.33301 9.33301 11.002 28 11.002c6.66699 0 22 -0.666992 46 -2s46.333 -2 67 -2c12.667 0 24.834 0.333008 36.501 1s28.834 1 51.501 1c14.667 0 22 -4.66699 22 -14c0 -11.333 -11.667 -17 -35 -17c-13.333 0 -23 -13.667 -29 -41s-9 -55.333 -9 -84v-37
c0 -16 -0.333008 -34.167 -1 -54.5s-1 -32.833 -1 -37.5c0 -16.667 2 -27.334 6 -32.001s13.333 -7 28 -7c1.33301 0 14.333 0.166992 39 0.5s66.334 0.5 125.001 0.5c5.33301 0 14.333 -0.166992 27 -0.5s33.5 -0.666016 62.5 -0.999023s62.167 -0.5 99.5 -0.5
c7.33301 0 11 46.333 11 139v54c0 26 -2.83301 46.667 -8.5 62s-12.667 25.333 -21 30s-16.666 7.66699 -24.999 9s-15.333 3.16602 -21 5.49902s-8.5 6.83301 -8.5 13.5s13 10 39 10c6.66699 0 21 -0.333008 43 -1s40 -1 54 -1c6.66699 0 18 0.333008 34 1s30.667 1 44 1
c15.333 0 23 -4.33301 23 -13s-4.66699 -13 -14 -13c-18.667 0 -32.834 -5.66699 -42.501 -17s-14.5 -26.333 -14.5 -45c0 -22 -0.5 -60.833 -1.5 -116.5s-1.5 -97.834 -1.5 -126.501c0 -15.333 -0.333008 -39.5 -1 -72.5s-1 -58.833 -1 -77.5v-37
c0 -20 0.666992 -38.5 2 -55.5s2 -29.167 2 -36.5c0 -43.333 28 -68 84 -74c8 0 12 -3.66699 12 -11c0 -4.66699 -3.33301 -7.66699 -10 -9s-19.667 -2 -39 -2c-7.33301 -0 -19.5 0.833008 -36.5 2.5s-30.5 2.5 -40.5 2.5c-12 0 -26.5 -0.833008 -43.5 -2.5
s-33.833 -2.5 -50.5 -2.5h-17c-3.33301 0 -6.83301 0.5 -10.5 1.5s-6 2.33301 -7 4s-1.5 4.16699 -1.5 7.5c0 4 3.33301 7.66699 10 11s14 6 22 8s15.833 5.83301 23.5 11.5s12.167 12.834 13.5 21.501c4.66699 24 7 48.333 7 73c0 6.66699 0.166992 16 0.5 28
s0.5 20.667 0.5 26c0 12 0.333008 31.667 1 59s1 48.666 1 63.999c0 10 -4 17 -12 21s-25 6 -51 6c-10 0 -33 -0.666992 -69 -2l-54 -1c-29.333 0 -62.333 0.5 -99 1.5s-65 1.5 -85 1.5c-10 0 -16.667 -2 -20 -6s-5 -14.333 -5 -31s-0.666992 -38.334 -2 -65.001
s-2 -46 -2 -58v-43c0 -28.667 2.66699 -50 8 -64s18.333 -27.667 39 -41c5.33301 -3.33301 19.666 -5 42.999 -5c4.66699 0 9 -1.16699 13 -3.5s6 -4.83301 6 -7.5c0 -12 -10.667 -18 -32 -18c-20 0 -36.5 0.666992 -49.5 2s-24.167 2 -33.5 2
c-18.667 0 -38.667 -0.833008 -60 -2.5s-37.333 -2.5 -48 -2.5c-31.333 0 -47 5 -47 15c0 6 3.16699 10.167 9.5 12.5s13.5 4 21.5 5s16.333 5.33301 25 13s14.667 18.834 18 33.501c2 11.333 4.66699 45.666 8 102.999s5 112 5 164v57c0 8.66699 0.166992 25.167 0.5 49.5
s0.5 43.833 0.5 58.5c0 50.667 -2 90.334 -6 119.001c-2 16.667 -10.833 29.667 -26.5 39s-31.834 14 -48.501 14c-6.66699 0 -11.834 2.16699 -15.501 6.5s-5.5 7.83301 -5.5 10.5z" />
    <glyph glyph-name="I" unicode="I" horiz-adv-x="328" 
d="M20 695c0 10 9.33301 14.998 28 14.998c6.66699 0 22 -0.666992 46 -2s46.333 -2 67 -2c12.667 0 24.834 0.333008 36.501 1s28.834 1 51.501 1c18 0 27 -4.66699 27 -14c0 -5.33301 -15.333 -14.333 -46 -27c-21.333 -8.66699 -32 -47 -32 -115
c0 -90 -0.5 -169.5 -1.5 -238.5s-1.5 -112.833 -1.5 -131.5c0 -56 8.33301 -96.333 25 -121c14.667 -20.667 30.667 -31 48 -31c1.33301 0 4.66602 -0.166992 9.99902 -0.5s8.66602 -0.5 9.99902 -0.5c4.66699 0 9.33398 -1.16699 14.001 -3.5s7 -4.83301 7 -7.5
c0 -7.33301 -1.83301 -12.166 -5.5 -14.499s-10.167 -3.5 -19.5 -3.5c-20 0 -38.5 0.666992 -55.5 2s-30.167 2 -39.5 2c-18.667 0 -39 -0.833008 -61 -2.5s-38.333 -2.5 -49 -2.5c-30 0 -45 5 -45 15c0 6 3.16699 10.167 9.5 12.5s13.5 4 21.5 5s16.333 5.33301 25 13
s14.667 18.834 18 33.501c1.33301 4.66699 3.5 42.5 6.5 113.5s4.5 122.167 4.5 153.5v57c0 8.66699 0.166992 25.167 0.5 49.5s0.5 43.833 0.5 58.5v46c0 29.333 -1.33301 53.666 -4 72.999c-2 16 -10.833 28.333 -26.5 37s-31.834 13.334 -48.501 14.001
c-14 0.666992 -21 5.66699 -21 15z" />
    <glyph glyph-name="J" unicode="J" horiz-adv-x="290" 
d="M-45 -154c0 10 3.83008 21.668 11.4971 35.001s14.167 20 19.5 20c4 0 11.167 -5.66699 21.5 -17s22.5 -17 36.5 -17c36.667 0 59.667 26 69 78c8.66699 45.333 13 85.666 13 120.999v41v56l-1 26c0 13.333 -0.166992 25 -0.5 35s-0.666016 20.667 -0.999023 32
s-0.666016 40.333 -0.999023 87s-0.5 109 -0.5 187c0 42.667 -1.33301 75.667 -4 99c-2 16 -10.833 28 -26.5 36s-32.167 12.333 -49.5 13c-14.667 0.666992 -22 6.66699 -22 18s9.66699 17 29 17c6.66699 0 21.834 -1 45.501 -3s46.167 -3 67.5 -3
c12.667 0 23.667 0.166992 33 0.5s25.333 0.5 48 0.5c18.667 0 28 -4.33301 28 -13c0 -6 -15.333 -15.333 -46 -28c-14 -5.33301 -21 -28 -21 -68v-46c0 -110.667 -0.166992 -201.167 -0.5 -271.5s-0.5 -115.5 -0.5 -135.5s-0.166992 -36 -0.5 -48s-0.5 -21.667 -0.5 -29
c0 -76 -20.5 -138.5 -61.5 -187.5s-89.5 -73.5 -145.5 -73.5c-26.667 0 -40 12.667 -40 38z" />
    <glyph glyph-name="K" unicode="K" horiz-adv-x="724" 
d="M20 695c0 8.66699 9.33105 12.9932 27.998 12.9932c6.66699 0 22 -0.333008 46 -1s46.333 -1 67 -1c12 0 23 0.333008 33 1s27.667 1 53 1c11.333 0 17 -4.33301 17 -13c0 -2.66699 -1.66699 -5 -5 -7s-8.16602 -4.33301 -14.499 -7s-11.5 -5 -15.5 -7
c-20.667 -12 -31 -52.667 -31 -122c0 -36 -0.5 -70.667 -1.5 -104s-1.5 -50.666 -1.5 -51.999c0 -14 3 -21 9 -21c4.66699 0 31.334 19.833 80.001 59.5s97 82.667 145 129s72 76.833 72 91.5c0 4 -1 7.5 -3 10.5s-5.33301 5.5 -10 7.5s-8.66699 3.5 -12 4.5s-8 2 -14 3
s-9.66699 1.83301 -11 2.5c-7.33301 1.33301 -11 6 -11 14c0 7.33301 5.33301 11 16 11c1.33301 0 4.83301 -0.166992 10.5 -0.5s10.5 -0.5 14.5 -0.5c1.33301 0 9.16602 -0.333008 23.499 -1s26.5 -1 36.5 -1l124 3c13.333 0 20 -4.33301 20 -13
c0 -4.66699 -2 -8.16699 -6 -10.5s-11.667 -5.16602 -23 -8.49902s-21 -6.66602 -29 -9.99902c-3.33301 -1.33301 -19.666 -11.333 -48.999 -30c-6 -4 -43.667 -35 -113 -93l-174 -147l-11 -14c0 -3.33301 3.66699 -8.66602 11 -15.999l122 -121
c92.667 -92 152.667 -149.5 180 -172.5s53.333 -36.5 78 -40.5c19.333 -2.66699 30.333 -6.66699 33 -12c0.666992 -1.33301 1 -3.33301 1 -6c0 -6 -2.83301 -9.66699 -8.5 -11s-22.167 -2 -49.5 -2h-97c-4.66699 0 -8.16699 0.333008 -10.5 1s-4.66602 1.66699 -6.99902 3
s-5.33301 4.16602 -9 8.49902l-13 15l-23 26c-10.333 11.667 -21.833 23.834 -34.5 36.501c-141.333 143.333 -215.666 218 -222.999 224s-13.666 9 -18.999 9c-9.33301 0 -14 -9 -14 -27v-3c0 -2 0.166992 -5 0.5 -9s0.5 -8.66699 0.5 -14v-21.5v-29.5
c0 -87.333 5 -140 15 -158c12.667 -21.333 35 -32 67 -32c1.33301 0 2.66602 -0.166992 3.99902 -0.5s2.66602 -0.5 3.99902 -0.5c4.66699 0 9.33398 -1.16699 14.001 -3.5s7 -4.83301 7 -7.5c0 -7.33301 -1.83301 -12.166 -5.5 -14.499s-10.167 -3.5 -19.5 -3.5
c-20 0 -38.5 0.666992 -55.5 2s-30.167 2 -39.5 2c-18.667 0 -39 -0.833008 -61 -2.5s-38.333 -2.5 -49 -2.5c-24 0 -36 3.66699 -36 11v4c0 4.66699 3.16699 7.83398 9.5 9.50098l23.5 6.5c9.33301 2.66699 16.666 6.66699 21.999 12
c9.33301 9.33301 15.166 30.833 17.499 64.5s3.5 87.5 3.5 161.5v134c0 8.66699 -0.333008 25.167 -1 49.5s-1 43.833 -1 58.5v46c0 34 -1 58.333 -3 73c-2 16 -10.5 28.333 -25.5 37s-30.833 13.334 -47.5 14.001c-14 0.666992 -21 5.66699 -21 15z" />
    <glyph glyph-name="L" unicode="L" horiz-adv-x="603" 
d="M20 695c0 12 8.99902 17.999 26.999 17.999c2.66699 0 7 -0.333008 13 -1s10.667 -1 14 -1c6.66699 0 19.167 -0.666992 37.5 -2s34.833 -2 49.5 -2c20.667 0 42.667 0.666992 66 2s36.333 2 39 2c11.333 0 17 -3.33301 17 -10c0 -9.33301 -4 -15.5 -12 -18.5
s-16.833 -5 -26.5 -6s-19 -8.33301 -28 -22s-14.167 -34.167 -15.5 -61.5c-1.33301 -26 -3 -98.667 -5 -218s-3 -186 -3 -200v-40c0 -48 8 -74.333 24 -79c16.667 -5.33301 31 -8 43 -8c50 0 93.833 2.33301 131.5 7s66 10.5 85 17.5s34.833 14.667 47.5 23
s20.834 16 24.501 23s7.33398 12.833 11.001 17.5s7.5 7 11.5 7c8 0 12 -5.66699 12 -17c0 -28.667 -14.333 -57.667 -43 -87s-53.667 -44 -75 -44c-48 0 -102.167 1.66699 -162.5 5s-97.833 5 -112.5 5c-18.667 0 -40.167 -1.33301 -64.5 -4s-44.5 -4 -60.5 -4
c-19.333 0 -29 4 -29 12c0 4.66699 1.83301 8.5 5.5 11.5s7.16699 4.5 10.5 4.5c10 0 19.667 3.33301 29 10c12 9.33301 20.667 26.5 26 51.5s8 73.167 8 144.5v124c0 18 0.5 46 1.5 84s1.5 67.667 1.5 89c0 18 -0.666992 48.333 -2 91c-0.666992 19.333 -9 34.333 -25 45
s-34.667 16.334 -56 17.001c-6.66699 0 -10.834 1.16699 -12.501 3.5s-2.5 5.83301 -2.5 10.5z" />
    <glyph glyph-name="M" unicode="M" horiz-adv-x="919" 
d="M20 695c0 10 5.99512 14.9971 17.9951 14.9971c4 0 13.167 -0.666992 27.5 -2s22.833 -2 25.5 -2c10 0 23.667 0.333008 41 1s28.666 1 33.999 1c12.667 0 20.667 -4.66699 24 -14l43 -93.5l49.5 -107.5l47.5 -102l47 -100.5l37.5 -77.5c13 -26 23 -45.167 30 -57.5
s11.5 -18.5 13.5 -18.5s4.16699 1.16699 6.5 3.5s4.66602 5.5 6.99902 9.5s4.33301 8 6 12s4 9.16699 7 15.5s5.16699 11.166 6.5 14.499l129 266l39 81l27 58l17 38l10.5 24c2.33301 5.33301 4 9.5 5 12.5s1.83301 5.33301 2.5 7s1.33398 3.16699 2.00098 4.5
s1.83398 4.33301 3.50098 9s3.33398 7.83398 5.00098 9.50098s5 3.5 10 5.5s11.5 3 19.5 3c12.667 0 24.5 -0.333008 35.5 -1s27.833 -1 50.5 -1c11.333 0 17 -4.33301 17 -13c0 -6.66699 -2.16699 -11.5 -6.5 -14.5s-13.166 -5.5 -26.499 -7.5
c-16.667 -2 -28.334 -10.333 -35.001 -25s-10 -42.667 -10 -84c0 -90 2 -171.5 6 -244.5s6 -118.833 6 -137.5c0 -66.667 5.33301 -109.167 16 -127.5s33 -27.5 67 -27.5c4.66699 0 8.83398 -1.66699 12.501 -5s5.5 -6.33301 5.5 -9c0 -4 -0.333008 -7 -1 -9
s-2 -3.66699 -4 -5s-4 -2 -6 -2h-11c-20 0 -39.667 0.666992 -59 2s-33.666 2 -42.999 2c-18.667 0 -38 -0.833008 -58 -2.5s-35.333 -2.5 -46 -2.5c-12 0 -18 4.66699 -18 14c0 6 2.66699 10.333 8 13s11.5 4.33398 18.5 5.00098s14.333 4.83398 22 12.501
s13.167 19.167 16.5 34.5c2.66699 13.333 4 34.666 4 63.999c0 21.333 -0.5 47 -1.5 77s-2.16699 59.167 -3.5 87.5s-2.66602 55 -3.99902 80s-2.33301 45.5 -3 61.5l-2 24c0 28.667 -3 43 -9 43c-0.666992 0 -1.66699 -0.333008 -3 -1s-2.5 -1.66699 -3.5 -3
s-2.16699 -2.66602 -3.5 -3.99902s-2.66602 -3.5 -3.99902 -6.5s-2.66602 -5.5 -3.99902 -7.5s-3 -4.83301 -5 -8.5s-3.66699 -6.83398 -5 -9.50098l-5.5 -11c-2.33301 -4.66699 -4.16602 -8.66699 -5.49902 -12l-139 -281l-51 -105
c-12 -25.333 -19.333 -40.166 -22 -44.499s-6 -6.5 -10 -6.5c-6 0 -11 2.83301 -15 8.5s-10 18.167 -18 37.5s-15 35.333 -21 48c-122 248 -184.667 374.333 -188 379c-2 2.66699 -4 4 -6 4c-5.33301 0 -8 -13.333 -8 -40c-0.666992 -52 -2.33398 -103.333 -5.00098 -154
s-4 -87.334 -4 -110.001v-45c0 -17.333 0.5 -30.666 1.5 -39.999s3.66699 -20.166 8 -32.499s12.166 -21.833 23.499 -28.5s26 -11 44 -13c3.33301 0 6.5 -1.16699 9.5 -3.5s4.5 -4.83301 4.5 -7.5c0 -7.33301 -1 -12.166 -3 -14.499s-6 -3.5 -12 -3.5
c-13.333 0 -33.333 0.666992 -60 2s-41.334 2 -44.001 2c-1.33301 0 -11 -0.5 -29 -1.5s-35.667 -1.5 -53 -1.5c-5.33301 0 -9.16602 0.333008 -11.499 1s-4.5 2.16699 -6.5 4.5s-3 5.83301 -3 10.5c0 5.33301 3 9 9 11s12.833 3.16699 20.5 3.5s16.167 5.66602 25.5 15.999
s16.333 25.5 21 45.5c3.33301 14.667 7.33301 72.667 12 174s7 176.333 7 225c0 66.667 -6.5 112.667 -19.5 138s-41.167 43 -84.5 53c-8.66699 2 -13 7 -13 15z" />
    <glyph glyph-name="N" unicode="N" horiz-adv-x="798" 
d="M20 691c0 4 2.3291 7.83105 6.99609 11.498s10.667 5.5 18 5.5c4 0 10.667 -0.166992 20 -0.5s15.333 -0.5 18 -0.5c10 0 19.333 0.333008 28 1s15.667 1 21 1c6 0 13 -1.83301 21 -5.5s12.667 -7.5 14 -11.5c1.33301 -2 5 -6.5 11 -13.5l24 -27.5
c10 -11.333 19 -22.333 27 -33c90.667 -118 212 -260.333 364 -427c4 -4.66699 8.83301 -10 14.5 -16s9.66699 -10.5 12 -13.5s4.83301 -5.83301 7.5 -8.5s4.83398 -4.5 6.50098 -5.5s3.16699 -1.5 4.5 -1.5c6.66699 0 10 20.667 10 62v117
c0 44.667 -0.166992 82.334 -0.5 113.001s-0.666016 52.834 -0.999023 66.501s-0.5 22.167 -0.5 25.5v7c0 22.667 -1.5 42 -4.5 58s-6.5 28.333 -10.5 37s-9.83301 16 -17.5 22s-14.167 9.83301 -19.5 11.5s-13 3.5 -23 5.5s-17 3.66699 -21 5c-13.333 4 -20 9.66699 -20 17
c0 10 6.33301 15 19 15c4 0 20 -0.166992 48 -0.5s43.667 -0.5 47 -0.5c16 0 33.833 0.333008 53.5 1s31.834 1 36.501 1c11.333 0 19.166 -1.16699 23.499 -3.5s6.5 -6.83301 6.5 -13.5c0 -2.66699 -1.83301 -5.16699 -5.5 -7.5s-7.5 -4.33301 -11.5 -6
s-8 -3.16699 -12 -4.5l-6 -2c-22 -12 -33 -49.667 -33 -113v-38c0 -50.667 -1.83301 -138.5 -5.5 -263.5s-5.5 -202.167 -5.5 -231.5v-20c0 -15.333 -4.66699 -23 -14 -23c-6 0 -11.333 2.33301 -16 7l-396.5 457.5c-43 48.333 -66.833 72.5 -71.5 72.5
c-6.66699 0 -10 -22.667 -10 -68c0 -63.333 -1.33301 -131.5 -4 -204.5s-4 -112.833 -4 -119.5c0 -30 5.16699 -52.833 15.5 -68.5s21.5 -24.5 33.5 -26.5s23.167 -4.16699 33.5 -6.5s15.5 -6.83301 15.5 -13.5c0 -7.33301 -1.16699 -12 -3.5 -14s-6.5 -3 -12.5 -3
c-4.66699 0 -15.167 0.333008 -31.5 1s-41.5 1 -75.5 1c-6 0 -18.333 -0.333008 -37 -1s-34.667 -1 -48 -1c-14.667 0 -22 5.33301 -22 16c0 6 4.33301 9.83301 13 11.5s19.334 6.83398 32.001 15.501s22.334 25 29.001 49c4 15.333 9 77.333 15 186s9 183.667 9 225
c0 57.333 -8 100.166 -24 128.499s-42 44.5 -78 48.5c-8.66699 0.666992 -13 5.66699 -13 15z" />
    <glyph glyph-name="O" unicode="O" horiz-adv-x="853" 
d="M44 339c0 112 33.668 203.829 101.001 275.496s162.666 107.5 285.999 107.5c57.333 0 109 -8.33301 155 -25s82.333 -37.167 109 -61.5s49 -52.166 67 -83.499s30.333 -60.166 37 -86.499s10 -50.833 10 -73.5c0 -90.667 -17.667 -167.167 -53 -229.5
s-81.833 -107.666 -139.5 -135.999s-124.167 -42.5 -199.5 -42.5c-79.333 0 -147.833 17.333 -205.5 52s-100 78.334 -127 131.001s-40.5 110 -40.5 172zM132.001 389.996c0 -26.667 3.66699 -55.499 11 -86.499s19.333 -63 36 -96s36.834 -62.667 60.501 -89
s53.667 -48 90 -65s76.166 -25.5 119.499 -25.5c22.667 0 46.5 3.5 71.5 10.5s49.833 17.833 74.5 32.5s46.667 32.5 66 53.5s35.166 46.667 47.499 77s18.5 63.166 18.5 98.499c0 120.667 -31.667 214.5 -95 281.5s-141.666 100.5 -234.999 100.5
c-73.333 0 -135.833 -24.667 -187.5 -74s-77.5 -122 -77.5 -218z" />
    <glyph glyph-name="P" unicode="P" horiz-adv-x="564" 
d="M20 694c0 10.667 7.67188 16.002 23.0049 16.002c2 0 5.66699 0.166992 11 0.5s14 0.5 26 0.5c3.33301 0 12.5 -0.5 27.5 -1.5s25.833 -1.5 32.5 -1.5c14.667 0 43 0.5 85 1.5s68.667 1.5 80 1.5c62.667 0 116.667 -15.833 162 -47.5s68 -77.167 68 -136.5
c0 -32.667 -6 -61.834 -18 -87.501s-26.5 -45.834 -43.5 -60.501s-36 -26.834 -57 -36.501s-39.667 -16 -56 -19s-30.833 -4.5 -43.5 -4.5c-21.333 0 -43 2.5 -65 7.5s-33 10.167 -33 15.5c0 10 4.33301 15 13 15c3.33301 0 10.166 -1.33301 20.499 -4s20.5 -4 30.5 -4
c15.333 0 31.666 2.16699 48.999 6.5s35.333 11.333 54 21s34 24.334 46 44.001s18 42.5 18 68.5c0 44.667 -18 86.167 -54 124.5s-85.667 57.5 -149 57.5c-20.667 0 -34.667 -6.16699 -42 -18.5s-11 -40.166 -11 -83.499c0 -138.667 -0.333008 -217.834 -1 -237.501
s-1 -78.167 -1 -175.5c0 -58.667 13.667 -97 41 -115c7.33301 -4.66699 16.5 -7.66699 27.5 -9s20.167 -1.83301 27.5 -1.5s13.833 -1 19.5 -4s8.5 -8.5 8.5 -16.5c0 -11.333 -7.66699 -17 -23 -17s-42.333 0.833008 -81 2.5s-59.334 2.5 -62.001 2.5
c-6.66699 0 -19.834 -0.666992 -39.501 -2s-37.5 -2 -53.5 -2c-20.667 0 -31 3.66699 -31 11c0 4 0.5 7.33301 1.5 10s2 4.83398 3 6.50098s3.16699 3.16699 6.5 4.5s5.66602 2.33301 6.99902 3s4.5 1.5 9.5 2.5s8.5 1.83301 10.5 2.5
c1.33301 0.666992 3.33301 1.16699 6 1.5s4.5 0.666016 5.5 0.999023s2.66699 1.33301 5 3s4.16602 4 5.49902 7l5.5 12c2.33301 5 4.83301 11.5 7.5 19.5c4.66699 12.667 8.33398 62.667 11.001 150s4 155 4 203c0 41.333 -0.166992 79.5 -0.5 114.5s-0.5 53.5 -0.5 55.5
c0 18 -5.66699 35.833 -17 53.5s-30 26.5 -56 26.5c-13.333 0 -20 4.33301 -20 13z" />
    <glyph glyph-name="Q" unicode="Q" horiz-adv-x="839" 
d="M45 339c0 114 31.5068 206.328 94.5068 276.995s160.5 106 292.5 106c55.333 0 105.166 -9 149.499 -27s79.333 -40.167 105 -66.5s47.167 -56.333 64.5 -90s29 -64.5 35 -92.5s9 -54.333 9 -79c0 -47.333 -8 -94.833 -24 -142.5s-40.833 -90.667 -74.5 -129
s-72.167 -63.5 -115.5 -75.5c-47.333 -13.333 -71 -21 -71 -23c0 -7.33301 6.33301 -13.666 19 -18.999c2.66699 -1.33301 12.167 -5.66602 28.5 -12.999l33.5 -15l34 -15c16.667 -7.33301 29.5 -12.666 38.5 -15.999l36.5 -14c15.333 -6 28.166 -10.5 38.499 -13.5
s21.833 -6.16699 34.5 -9.5s24.167 -5.66602 34.5 -6.99902s19.833 -2 28.5 -2c19.333 0 34.666 2.83301 45.999 8.5s20.166 11.167 26.499 16.5s13.166 8 20.499 8c2 0 4.16699 -1.5 6.5 -4.5s3.5 -5.5 3.5 -7.5c0 -23.333 -18 -43.833 -54 -61.5s-76 -26.5 -120 -26.5
c-42 0 -101.167 17 -177.5 51s-148 68 -215 102s-110.5 51 -130.5 51c-30.667 0 -53.334 -10.667 -68.001 -32s-22 -46 -22 -74v-18c0 -17.333 -6 -26 -18 -26c-6.66699 0 -12.334 4.33301 -17.001 13s-7 18.334 -7 29.001c0 29.333 6.66699 57 20 83s28 44.667 44 56
c14.667 10.667 22 16.667 22 18c0 2.66699 -7.33301 9 -22 19c-86 62 -129 149 -129 261zM136.007 389.995c0 -90.667 24.667 -170 74 -238c26 -36.667 63.167 -66.5 111.5 -89.5s90.5 -34.5 126.5 -34.5c46.667 0 94.667 12.667 144 38c28 14.667 55.833 43.5 83.5 86.5
s41.5 92.167 41.5 147.5c0 107.333 -31 197.833 -93 271.5s-137.333 110.5 -226 110.5c-73.333 0 -135.333 -24.667 -186 -74s-76 -122 -76 -218z" />
    <glyph glyph-name="R" unicode="R" horiz-adv-x="718" 
d="M20 696c0 10.667 9.66309 16 28.9961 16h166c15.333 0 33 0.5 53 1.5s35.667 1.5 47 1.5c60 0 111.333 -15.167 154 -45.5s64 -71.166 64 -122.499c0 -34 -6.5 -63.833 -19.5 -89.5s-27.333 -44.167 -43 -55.5s-30 -21.166 -43 -29.499s-19.5 -13.833 -19.5 -16.5
c0 -8 28 -51.167 84 -129.5s94.333 -128.5 115 -150.5c25.333 -31.333 56 -47 92 -47c9.33301 0 14 -4 14 -12c0 -10 -4 -16.667 -12 -20s-28.667 -5 -62 -5c-31.333 0 -60 7.66699 -86 23c-33.333 19.333 -89.666 94 -168.999 224l-10 16c-32 52 -56.667 78 -74 78h-21h-61
c-8 0 -12.833 -3.33301 -14.5 -10s-2.5 -27 -2.5 -61v-79c0 -20.667 0.166992 -33.834 0.5 -39.501s0.5 -10.334 0.5 -14.001v-8.5c0 -27.333 6.33301 -48.5 19 -63.5s26.834 -23.667 42.501 -26s29.834 -5 42.501 -8s19 -7.83301 19 -14.5c0 -10.667 -6 -16 -18 -16
c-0.666992 0 -23.667 1.16699 -69 3.5s-70 3.5 -74 3.5c-19.333 -0 -42.333 -0.666992 -69 -2s-40.334 -2 -41.001 -2c-14 0 -21 5.33301 -21 16c0 7.33301 4.33301 12.5 13 15.5s18.334 5.16699 29.001 6.5s20.334 8.66602 29.001 21.999s13 32.333 13 57
c0 17.333 0.166992 64 0.5 140s0.5 134.333 0.5 175c0 41.333 -0.166992 79.166 -0.5 113.499s-0.5 52.833 -0.5 55.5c0 24.667 -5 43.5 -15 56.5s-21.167 20.333 -33.5 22s-23.5 3.83398 -33.5 6.50098s-15 7.33398 -15 14.001zM200.996 536
c0 -68.667 0.332031 -111.167 0.999023 -127.5s3 -25.833 7 -28.5c10 -6 24.333 -9 43 -9h10h29c56.667 0 97.167 13 121.5 39s36.5 59.333 36.5 100c0 41.333 -16.167 79 -48.5 113s-81.166 51 -146.499 51c-24.667 0 -39.667 -6.5 -45 -19.5s-8 -43.167 -8 -90.5v-28z" />
    <glyph glyph-name="S" unicode="S" horiz-adv-x="596" 
d="M59 187c0 14 4.66602 21.001 13.999 21.001c8.66699 0 14 -3.33301 16 -10c6.66699 -16 12.834 -29.833 18.501 -41.5s14.834 -26 27.501 -43s26.334 -31 41.001 -42s33.5 -20.5 56.5 -28.5s48.167 -12 75.5 -12c50 0 90.167 13.167 120.5 39.5s45.5 60.833 45.5 103.5
c0 31.333 -10.333 57.5 -31 78.5s-44.334 36 -71.001 45l-101.5 36c-41 15 -74.5 30.167 -100.5 45.5c-60.667 36 -91 85 -91 147c0 59.333 21.5 106.833 64.5 142.5s98.833 53.5 167.5 53.5c25.333 0 55.5 -5.5 90.5 -16.5s52.833 -16.5 53.5 -16.5
c2 0 5.66699 1.33301 11 4s9.33301 4 12 4c8.66699 0 13.667 -2.66699 15 -8c14 -80.667 21 -126 21 -136c0 -18.667 -4.66699 -28 -14 -28c-6 0 -10.667 4.66699 -14 14c-8 19.333 -15.833 35 -23.5 47s-13.167 19.667 -16.5 23s-12 11.333 -26 24
c-36 32 -79.667 48 -131 48c-41.333 0 -76 -10 -104 -30s-42 -47 -42 -81c0 -30 8.16699 -54.667 24.5 -74s38.166 -34.333 65.499 -45s56 -20.667 86 -30s61.833 -22.333 95.5 -39s61.5 -36.667 83.5 -60c26.667 -28.667 40 -64.334 40 -107.001
c0 -70 -22.333 -125.5 -67 -166.5s-100 -61.5 -166 -61.5c-46 0 -83 2.5 -111 7.5s-56.667 15.167 -86 30.5c-8.66699 5.33301 -19 31.333 -31 78s-18 74.667 -18 84z" />
    <glyph glyph-name="T" unicode="T" horiz-adv-x="703" 
d="M20 580c0 26.667 3.3252 60.9971 9.99219 102.997c0 1.33301 0.166992 3.66602 0.5 6.99902s0.666016 5.5 0.999023 6.5s0.666016 2.66699 0.999023 5s0.833008 4 1.5 5s1.5 2.33301 2.5 4s2.16699 2.83398 3.5 3.50098s3 1.33398 5 2.00098s4.33301 1.16699 7 1.5
s5.66699 0.5 9 0.5c10.667 0 38.834 -1.33301 84.501 -4s111.5 -4 197.5 -4c146.667 0 249.334 1.66699 308.001 5c0.666992 0 1.83398 0.166992 3.50098 0.5s2.83398 0.5 3.50098 0.5c7.33301 0 12.333 -2 15 -6s4 -7.66699 4 -11c0 -4.66699 1 -18.667 3 -42
s3 -36.333 3 -39c0 -16.667 -1 -27.167 -3 -31.5s-6.33301 -6.5 -13 -6.5c-5.33301 0 -9 4 -11 12c-5.33301 19.333 -10 32.5 -14 39.5s-12.667 13.167 -26 18.5s-33.666 8 -60.999 8h-130c-16 0 -25.833 -3.16699 -29.5 -9.5s-5.5 -24.5 -5.5 -54.5v-49
c0 -89.333 -0.5 -168 -1.5 -236s-1.5 -111.333 -1.5 -130c0 -9.33301 -0.166992 -21.166 -0.5 -35.499s-0.5 -24.166 -0.5 -29.499c0 -28.667 4.66699 -47.667 14 -57c8.66699 -8 18.334 -14.167 29.001 -18.5s19.834 -6.83301 27.501 -7.5s14.167 -2.33398 19.5 -5.00098
s8 -7 8 -13c0 -7.33301 -1.66699 -12 -5 -14s-9.66602 -3 -18.999 -3c-8 0 -25.667 1.33301 -53 4s-46.666 4 -57.999 4c-8 0 -24.167 -1.16699 -48.5 -3.5s-42.166 -3.5 -53.499 -3.5c-24.667 0 -37 5.33301 -37 16c0 6.66699 2 11.167 6 13.5s11.833 4.33301 23.5 6
s19.167 2.83398 22.5 3.50098c22.667 5.33301 35.334 18.666 38.001 39.999c6.66699 58.667 10 184.667 10 378l-1 179c0 12.667 -3.66699 20.5 -11 23.5s-29 4.5 -65 4.5c-46.667 0 -81.834 -1.33301 -105.501 -4s-37.5 -5.16699 -41.5 -7.5s-8.66699 -6.83301 -14 -13.5
c-6 -8 -10.833 -16.833 -14.5 -26.5s-6 -17.667 -7 -24s-3 -11.666 -6 -15.999s-7.5 -6.5 -13.5 -6.5c-7.33301 0 -11 5.66699 -11 17z" />
    <glyph glyph-name="U" unicode="U" horiz-adv-x="815" 
d="M20 697c0 3.33301 0.339844 5.66602 1.00684 6.99902s2.66699 2.66602 6 3.99902s8.66602 2 15.999 2s22.666 -0.666992 45.999 -2s45.666 -2 66.999 -2c13.333 0 25.5 0.333008 36.5 1s30.167 1 57.5 1c14 0 21 -4.66699 21 -14c0 -6 -2.33301 -9.66699 -7 -11
s-10.5 -2.33301 -17.5 -3s-14 -3 -21 -7s-12.833 -13.833 -17.5 -29.5s-7 -36.834 -7 -63.501v-28c0 -31.333 -0.166992 -70.833 -0.5 -118.5s-0.5 -80.167 -0.5 -97.5c0 -20.667 0.166992 -36.334 0.5 -47.001s1.16602 -26.167 2.49902 -46.5s3.16602 -36.333 5.49902 -48
s6.16602 -26 11.499 -43s11.833 -30.5 19.5 -40.5s17.334 -21 29.001 -33s25.167 -21.167 40.5 -27.5s33.333 -11.666 54 -15.999s43.667 -6.5 69 -6.5c21.333 0 38 0.333008 50 1s28.5 2.83398 49.5 6.50098s37.667 9 50 16s26.333 17.667 42 32s27.834 31.833 36.501 52.5
s16 47 22 79s9 68.333 9 109c0 67.333 -0.166992 118.666 -0.5 153.999s-0.5 54.666 -0.5 57.999c0 23.333 -0.5 41.666 -1.5 54.999s-4.33301 28 -10 44s-13.834 27.667 -24.501 35c-6.66699 4.66699 -15.334 7.83398 -26.001 9.50098l-26 4
c-6.66699 1 -10 3.83301 -10 8.5c0 10.667 6.66699 16 20 16c4 0 17 -0.333008 39 -1s34.667 -1 38 -1c16 0 33 0.5 51 1.5s29.333 1.5 34 1.5c14 0 21 -4.33301 21 -13c0 -5.33301 -7.16699 -12.166 -21.5 -20.499s-23.166 -15.833 -26.499 -22.5
c-7.33301 -14 -11 -36 -11 -66c0 -4.66699 0.166992 -14.167 0.5 -28.5s0.5 -27.166 0.5 -38.499c0 -128 -5.33301 -226 -16 -294s-26.834 -117.5 -48.501 -148.5s-54.167 -55.833 -97.5 -74.5c-35.333 -14.667 -83 -22 -143 -22c-111.333 0 -190.333 21.333 -237 64
c-36.667 34 -59.334 74.833 -68.001 122.5s-13 129.834 -13 246.501v17c0 26 0.333008 54.667 1 86s1 50.666 1 57.999c0 36.667 -4.33301 61.834 -13 75.501s-29 22.834 -61 27.501c-14.667 2 -22 8.33301 -22 19z" />
    <glyph glyph-name="V" unicode="V" horiz-adv-x="807" 
d="M20 696c0 9.33301 9.33789 14.0029 28.0049 14.0029c3.33301 0 16.166 -0.666992 38.499 -2s46.166 -2 71.499 -2c6 0 16.5 0.333008 31.5 1s26.167 1 33.5 1c15.333 0 24.666 -0.666992 27.999 -2s5 -4.33301 5 -9c0 -4 -3.33301 -7.66699 -10 -11
s-13.5 -7.83301 -20.5 -13.5s-10.5 -13.167 -10.5 -22.5c0 -8.66699 1.16699 -17.5 3.5 -26.5s7.5 -22.833 15.5 -41.5l24.5 -56l41 -90.5l55.5 -123.5c56 -128.667 89.333 -193 100 -193c3.33301 0 22.5 40.333 57.5 121s69.5 165 103.5 253s51 140 51 156
c0 10.667 -3.83301 18.834 -11.5 24.501s-15.834 9 -24.501 10s-16.834 2.66699 -24.501 5s-11.5 6.16602 -11.5 11.499c0 4.66699 1.16699 7.5 3.5 8.5s8.16602 1.5 17.499 1.5c2 0 9.66699 -0.166992 23 -0.5s26.666 -0.5 39.999 -0.5c12 0 25.5 0.333008 40.5 1
s31.167 1 48.5 1c12.667 0 19 -4.66699 19 -14c0 -4.66699 -2.16699 -8.66699 -6.5 -12s-9.5 -6.33301 -15.5 -9s-13 -8.33398 -21 -17.001s-15 -20 -21 -34l-223 -508l-47 -110c-7.33301 -18 -12 -28.667 -14 -32s-4.66699 -5 -8 -5c-12 0 -27 23 -45 69
c-17.333 43.333 -51.666 120.666 -102.999 231.999l-69 153c-20.667 46.667 -35.5 81 -44.5 103l-25 59c-7.66699 17.333 -13.5 29.666 -17.5 36.999s-8.66699 14 -14 20c-11.333 12.667 -23.166 21.667 -35.499 27s-22.333 7.83301 -30 7.5s-14.167 0.666992 -19.5 3
s-8 7.5 -8 15.5z" />
    <glyph glyph-name="W" unicode="W" horiz-adv-x="1110" 
d="M20 695c0 9.33301 9 13.9961 27 13.9961c4 0 16.833 -0.5 38.5 -1.5s45.5 -1.5 71.5 -1.5c18.667 0 37.334 0.5 56.001 1.5s28.667 1.5 30 1.5c6 0 9.83301 -0.833008 11.5 -2.5s2.5 -4.83398 2.5 -9.50098c0 -4 -7.16699 -9.66699 -21.5 -17s-21.5 -17.333 -21.5 -30
c0 -6 1.33301 -13.333 4 -22s8 -22.334 16 -41.001l25.5 -58l41.5 -92.5l55 -124.5l20.5 -47.5l22 -51.5l18.5 -42.5c6.66699 -15 12.167 -26.167 16.5 -33.5s7.5 -11 9.5 -11c2.66699 0 13.334 20.667 32.001 62s35.334 80.333 50.001 117
c2.66699 6 5.83398 12.667 9.50098 20s6.33398 13.5 8.00098 18.5s2.5 10.167 2.5 15.5c0 8 -20 56.833 -60 146.5s-65.667 140.834 -77 153.501c-2.66699 3.33301 -5.33398 6 -8.00098 8l-7.5 5.5c-2.33301 1.66699 -4.33301 3 -6 4s-3.83398 1.66699 -6.50098 2
s-4.5 0.5 -5.5 0.5s-3 0.166992 -6 0.5s-4.83301 0.5 -5.5 0.5c-18.667 2 -30 3.83301 -34 5.5s-6 5.16699 -6 10.5c0 9.33301 9.66699 14 29 14c4 0 17 -0.666992 39 -2s45.667 -2 71 -2c1.33301 0 10.333 0.666992 27 2s29.667 2 39 2c20 0 30 -2.66699 30 -8
c0 -4 -3.66699 -8 -11 -12s-14.5 -9.16699 -21.5 -15.5s-10.5 -14.166 -10.5 -23.499c0 -12.667 10.333 -42.334 31 -89.001c1.33301 -2.66699 5.83301 -13.667 13.5 -33s14.5 -35.5 20.5 -48.5s10.333 -19.5 13 -19.5c5.33301 0 18.666 29.167 39.999 87.5
s32 92.833 32 103.5c0 12 -5 20.5 -15 25.5s-20 8.66699 -30 11s-15 6.16602 -15 11.499c0 7.33301 7.33301 11 22 11c4 0 14 -0.333008 30 -1s27.333 -1 34 -1h17c9.33301 0 27 1 53 3h9c8.66699 0 13 -3.33301 13 -10s-6.33301 -12 -19 -16s-21.334 -8.33301 -26.001 -13
c-10.667 -10.667 -20 -26 -28 -46l-50 -119c-20 -46.667 -31.667 -74.667 -35 -84s-5 -17.666 -5 -24.999c0 -5.33301 20.333 -53.333 61 -144s64.667 -136 72 -136c8 0 46.833 84.167 116.5 252.5s104.5 260.833 104.5 277.5c0 10.667 -3.83301 18.834 -11.5 24.501
s-16.167 9 -25.5 10s-17.833 2.66699 -25.5 5s-11.5 6.16602 -11.5 11.499c0 4.66699 1 7.5 3 8.5s7.33301 1.5 16 1.5c2 0 9.66699 -0.166992 23 -0.5s26.666 -0.5 39.999 -0.5c12 0 25.5 0.333008 40.5 1s31.167 1 48.5 1c13.333 0 20 -4.66699 20 -14
c0 -4.66699 -1.83301 -8.33398 -5.5 -11.001s-9.16699 -6 -16.5 -10s-13.666 -8.66699 -18.999 -14c-3.33301 -3.33301 -6.16602 -6.66602 -8.49902 -9.99902s-4.83301 -7.5 -7.5 -12.5l-6.5 -12.5c-1.66699 -3.33301 -4.33398 -9.16602 -8.00098 -17.499l-8.5 -19.5
l-172 -386c-50.667 -115.333 -80.667 -182.666 -90 -201.999s-16.666 -29 -21.999 -29c-3.33301 0 -7.33301 4.16699 -12 12.5s-11.167 22.333 -19.5 42s-13.166 31.167 -14.499 34.5l-26.5 61l-28 66l-23.5 55c-8 18.667 -14.667 32.834 -20 42.501s-9 14.5 -11 14.5
c-6.66699 0 -29.167 -46 -67.5 -138s-58.833 -143.333 -61.5 -154c-0.666992 -2.66699 -1.5 -5.33398 -2.5 -8.00098s-1.83301 -5 -2.5 -7l-2 -6c-0.666992 -2 -1.33398 -3.66699 -2.00098 -5s-1.16699 -2.66602 -1.5 -3.99902s-0.833008 -2.5 -1.5 -3.5
s-1.33398 -1.83301 -2.00098 -2.5s-1.33398 -1.16699 -2.00098 -1.5l-2 -1c-0.666992 -0.333008 -1.66699 -0.5 -3 -0.5c-6 0 -13.333 9.5 -22 28.5s-24.334 56.333 -47.001 112s-45.667 109.167 -69 160.5c-38.667 84.667 -79.667 180.334 -123 287.001
c-12.667 32 -26.334 57.167 -41.001 75.5s-27.667 29.833 -39 34.5s-21.666 7.33398 -30.999 8.00098s-16.666 2 -21.999 4s-8 7 -8 15z" />
    <glyph glyph-name="X" unicode="X" horiz-adv-x="751" 
d="M20 701c0 5.33301 2.3291 8.83301 6.99609 10.5s16.334 2.5 35.001 2.5c12.667 0 25.334 -0.666992 38.001 -2s29.667 -2 51 -2c4 0 21.833 0.333008 53.5 1s48.834 1 51.501 1c14.667 0 22 -3 22 -9s-2.33301 -10.333 -7 -13s-9.83398 -4.16699 -15.501 -4.5
s-10.834 -2.16602 -15.501 -5.49902s-7 -8.66602 -7 -15.999c0 -12.667 18 -45 54 -97c54 -82 84.333 -126.333 91 -133c4 -4 7 -6 9 -6c5.33301 0 13 7.33301 23 22l29 41.5l35.5 51l32 47c11 16.333 19.667 30.166 26 41.499s9.5 19.333 9.5 24
c0 10.667 -2.83301 18.5 -8.5 23.5s-11.667 7.83301 -18 8.5s-12.333 2.16699 -18 4.5s-8.5 6.5 -8.5 12.5c0 6.66699 5 10 15 10c14.667 0 29 -0.666992 43 -2s26.667 -2 38 -2c37.333 0 61.833 0.666992 73.5 2s18.5 2 20.5 2c10.667 0 16 -3.33301 16 -10
s-3 -11.167 -9 -13.5s-15.667 -5.83301 -29 -10.5s-25.666 -11 -36.999 -19c-12.667 -8.66699 -30.334 -28.334 -53.001 -59.001c-103.333 -138.667 -155 -208.667 -155 -210c0 -4.66699 12 -24 36 -58l90 -129c61.333 -89.333 104.666 -144.333 129.999 -165
c2 -2 8.5 -4 19.5 -6s21 -4.66699 30 -8s13.5 -7.66602 13.5 -12.999c0 -3.33301 -0.5 -5.83301 -1.5 -7.5s-4 -3.16699 -9 -4.5s-12.167 -2 -21.5 -2c-12.667 0 -33.167 1.16699 -61.5 3.5s-43.5 3.5 -45.5 3.5c-19.333 0 -36.5 -0.5 -51.5 -1.5s-26.5 -2 -34.5 -3
s-13.333 -1.5 -16 -1.5c-8.66699 0 -13 4.33301 -13 13c0 8 8.5 14 25.5 18s25.5 12.333 25.5 25c0 4.66699 -2.16699 11.334 -6.5 20.001s-11.5 21 -21.5 37l-30.5 46.5l-45 65.5l-52.5 78c-6.66699 11.333 -12.334 17 -17.001 17c-1.33301 0 -8.33301 -10.333 -21 -31
c-14.667 -23.333 -35.834 -53.5 -63.501 -90.5s-48.5 -66.833 -62.5 -89.5s-21 -40.667 -21 -54c0 -18 18 -27 54 -27c8 0 12 -5.66699 12 -17c0 -7.33301 -10.333 -11 -31 -11c-6.66699 0 -22.5 0.5 -47.5 1.5s-38.5 1.5 -40.5 1.5c-6 0 -19 -0.666992 -39 -2
s-33.667 -2 -41 -2s-12.666 0.333008 -15.999 1s-6.33301 2.33398 -9 5.00098s-4 7 -4 13c0 4.66699 2 7.83398 6 9.50098s8.83301 2.66699 14.5 3s13.334 2.16602 23.001 5.49902s18.834 8.33301 27.501 15c6.66699 5.33301 13.834 11.666 21.501 18.999
s15.667 16.166 24 26.499l22.5 27.5c6.66699 8 15 18.833 25 32.5l22.5 31l24 34l22.5 31.5l36 48.5c14 18.333 23.833 31.5 29.5 39.5s8.5 13 8.5 15s-1.33301 5.16699 -4 9.5s-7.66699 11.666 -15 21.999l-24.5 34l-39.5 54.5l-53 75
c-53.333 78.667 -98.666 122 -135.999 130c-1.33301 0 -5 0.5 -11 1.5s-10.667 2 -14 3s-6.66602 2.83301 -9.99902 5.5s-5 6 -5 10z" />
    <glyph glyph-name="Y" unicode="Y" horiz-adv-x="712" 
d="M20 688c0 7.33301 3.83105 12.0049 11.498 14.0049s24.5 3 50.5 3c4 0 13.167 -0.333008 27.5 -1s24.5 -1 30.5 -1c7.33301 0 20.833 0.166992 40.5 0.5s34.5 0.5 44.5 0.5c33.333 0 50 -4 50 -12c0 -7.33301 -7 -13.5 -21 -18.5s-21 -10.5 -21 -16.5
c0 -6.66699 2.16699 -15.334 6.5 -26.001s8.66602 -19.334 12.999 -26.001l19.5 -29c8.66699 -12.667 13.667 -20.334 15 -23.001c22.667 -36 46.167 -70.333 70.5 -103s38.166 -49 41.499 -49c4 0 9 3.83301 15 11.5s14.333 20.5 25 38.5s19.667 32.333 27 43
c2 3.33301 6.83301 10.666 14.5 21.999l16 24l13.5 21.5c6 9.66699 10.333 17 13 22l9.5 18c3.66699 7 6.16699 12.833 7.5 17.5s2 9 2 13c0 21.333 -11.333 34.666 -34 39.999c-2.66699 0.666992 -6.5 1.33398 -11.5 2.00098s-8.66699 1.33398 -11 2.00098
s-5.16602 1.66699 -8.49902 3s-5.66602 3.16602 -6.99902 5.49902s-2 5.16602 -2 8.49902c0 8 9.33301 12 28 12c3.33301 0 9.5 -0.166992 18.5 -0.5s16.5 -0.5 22.5 -0.5c15.333 0 33.833 -0.166992 55.5 -0.5s38.5 -0.5 50.5 -0.5c32.667 0 49 -5 49 -15
c0 -2.66699 -2 -5 -6 -7s-9.66699 -4.66699 -17 -8s-14 -7.33301 -20 -12c-27.333 -21.333 -67.5 -72 -120.5 -152s-83.167 -124.667 -90.5 -134c-10.667 -13.333 -17.334 -28 -20.001 -44s-4 -43.333 -4 -82c0 -8.66699 0.166992 -27.167 0.5 -55.5s0.5 -48.5 0.5 -60.5
v-24c0 -22 3.83301 -39.333 11.5 -52s14.834 -20.167 21.501 -22.5s13.334 -3.5 20.001 -3.5c1.33301 0 4.66602 -0.166992 9.99902 -0.5s8.66602 -0.5 9.99902 -0.5c4.66699 0 8.33398 -1.5 11.001 -4.5s4 -6.16699 4 -9.5c0 -6.66699 -1.66699 -11 -5 -13
s-9.66602 -3 -18.999 -3c-3.33301 0 -17.833 0.166992 -43.5 0.5s-44.5 0.5 -56.5 0.5c-23.333 0 -44.666 -0.666992 -63.999 -2s-34.666 -2 -45.999 -2c-18.667 0 -28 3.66699 -28 11c0 6 1.83301 10.167 5.5 12.5s9.83398 3.83301 18.501 4.5s15 1.66699 19 3
c28 8.66699 42 29 42 61c0 4 0.166992 10.5 0.5 19.5s0.666016 28.167 0.999023 57.5s0.5 71.333 0.5 126c0 10.667 -0.833008 19.834 -2.5 27.501s-3.66699 15.167 -6 22.5s-8 18 -17 32l-26.5 40.5l-44.5 65.5l-60.5 90c-20.667 31.333 -39.334 55.166 -56.001 71.499
s-29.5 26 -38.5 29s-19.5 4.5 -31.5 4.5c-16.667 0 -25 4.33301 -25 13z" />
    <glyph glyph-name="Z" unicode="Z" horiz-adv-x="563" 
d="M20 14c0 3.33301 2.83496 9.33301 8.50195 18l28.5 43c13.333 20 26.333 41.333 39 64c18.667 33.333 54.167 92.833 106.5 178.5l134.5 223c37.333 63 56 98.167 56 105.5s-14.333 11 -43 11c-23.333 0 -84.333 -1.33301 -183 -4
c-21.333 -0.666992 -39.833 -6 -55.5 -16s-26.667 -20.833 -33 -32.5l-17.5 -32c-5.33301 -9.66699 -9.66602 -14.5 -12.999 -14.5c-8.66699 0 -13 5.33301 -13 16c0 13.333 1.33301 26.666 4 39.999s4 22 4 26c0 3.33301 1.66699 19 5 47
c0.666992 8.66699 3 14.334 7 17.001s11 4 21 4c4 0 15.167 -0.333008 33.5 -1s43.833 -1.16699 76.5 -1.5s68 -0.5 106 -0.5c42 0 75.833 0.166992 101.5 0.5s51.834 0.5 78.501 0.5c28.667 0 43 -5 43 -15c0 -8.66699 -61.167 -113.667 -183.5 -315
s-183.5 -305.333 -183.5 -312c0 -4.66699 2.66699 -8.5 8 -11.5s14.5 -5 27.5 -6s24.5 -1.66699 34.5 -2s25.333 -0.5 46 -0.5c67.333 0 116 1.83301 146 5.5s57 12.167 81 25.5c8 4.66699 14.833 10 20.5 16l13.5 14c3.33301 3.33301 6.66602 5 9.99902 5
c5.33301 0 8 -3.66699 8 -11c0 -12 -10.333 -34.667 -31 -68c-1.33301 -2 -3 -4.83301 -5 -8.5s-3.5 -6.16699 -4.5 -7.5l-4.5 -6c-2 -2.66699 -4.16699 -4.5 -6.5 -5.5s-5.33301 -1.83301 -9 -2.5s-7.83398 -1 -12.501 -1c-37.333 -0 -70.5 -0.166992 -99.5 -0.5
s-56.833 -0.5 -83.5 -0.5c-100.667 0 -163.834 -0.166992 -189.501 -0.5s-44.834 -0.5 -57.501 -0.5c-13.333 0 -20 5.33301 -20 16z" />
    <glyph glyph-name="bracketleft" unicode="[" horiz-adv-x="287" 
d="M78 -82c0 50 1.00195 153.833 3.00195 311.5s3 271.167 3 340.5v82c0 25.333 -0.166992 45.166 -0.5 59.499s-0.5 23.166 -0.5 26.499c0 10.667 3.33301 17.5 10 20.5s19.667 4.5 39 4.5h43c15.333 0 28 0.166992 38 0.5s16.833 0.5 20.5 0.5h7.5
c4.66699 0 8.5 -2.16699 11.5 -6.5s4.5 -9.16602 4.5 -14.499c0 -13.333 -4 -20 -12 -20c-7.33301 0 -24 -0.166992 -50 -0.5s-40 -0.5 -42 -0.5h-16c-5.33301 0 -8 -2.66699 -8 -8c0 -3.33301 0.166992 -11.5 0.5 -24.5s0.666016 -31.167 0.999023 -54.5
s0.5 -48.666 0.5 -75.999c0 -52.667 -0.833008 -144.167 -2.5 -274.5s-2.5 -220.166 -2.5 -269.499c0 -64.667 0.333008 -113.667 1 -147c0 -18 4 -27 12 -27c6.66699 0 22.834 0.166992 48.501 0.5s39.5 0.5 41.5 0.5c9.33301 0 15.666 -1.5 18.999 -4.5
s5 -8.83301 5 -17.5c0 -10.667 -3.5 -17.334 -10.5 -20.001s-20.833 -4 -41.5 -4h-90c-14.667 0 -23.834 3.33301 -27.501 10s-5.5 23.667 -5.5 51v61z" />
    <glyph glyph-name="backslash" unicode="\" horiz-adv-x="416" 
d="M20 723c0 8 6.99902 11.999 20.999 11.999c9.33301 0 15.833 -1.16699 19.5 -3.5s6.83398 -7.16602 9.50098 -14.499l307 -830l8 -21l8 -21c2 -5.33301 3 -9.33301 3 -12c0 -10.667 -11 -16 -33 -16c-5.33301 0 -9.5 1.83301 -12.5 5.5s-7.16699 12.167 -12.5 25.5
l-304 831c-9.33301 24 -14 38.667 -14 44z" />
    <glyph glyph-name="bracketright" unicode="]" horiz-adv-x="287" 
d="M29 -184c0 14 4.33008 20.998 12.9971 20.998h92h16c4.66699 0 7 3 7 9c0 3.33301 -0.166992 11.5 -0.5 24.5s-0.5 31.167 -0.5 54.5v76c0 52.667 0.666992 144.167 2 274.5s2 220.166 2 269.499c0 64 -0.333008 112.667 -1 146c0 18 -4 27 -12 27h-90
c-9.33301 0 -15.666 1.33301 -18.999 4s-5 8.33398 -5 17.001c0 15.333 5.66699 23 17 23c66.667 1.33301 108.334 2 125.001 2c14.667 0 23.834 -3.33301 27.501 -10s5.5 -23.667 5.5 -51v-61c0 -50 -0.833008 -153.833 -2.5 -311.5s-2.5 -271.167 -2.5 -340.5
c0 -29.333 0.166992 -56.666 0.5 -81.999s0.5 -45.166 0.5 -59.499v-26.5c0 -10.667 -3.33301 -17.667 -10 -21s-19.667 -5 -39 -5h-43h-66c-4.66699 0 -8.66699 2 -12 6s-5 8.66699 -5 14z" />
    <glyph glyph-name="asciicircum" unicode="^" horiz-adv-x="333" 
d="M29 331c0 3.33301 4.33496 11.667 13.002 25l36 61c28 47.333 46.333 76.5 55 87.5s18.334 16.5 29.001 16.5c11.333 0 21.166 -5.5 29.499 -16.5s26.166 -39.5 53.499 -85.5l37 -63c7.33301 -11.333 11 -20.333 11 -27c0 -5.33301 -6 -8 -18 -8h-15
c-3.33301 0 -6.33301 0.5 -9 1.5s-5 3 -7 6l-5 7.5c-1.33301 2 -3 5 -5 9s-3.33301 7 -4 9c-4.66699 8 -9.33398 16.5 -14.001 25.5l-11.5 22.5c-3 6 -6.33301 12.167 -10 18.5s-6.5 11.5 -8.5 15.5s-4.16699 8 -6.5 12s-4.33301 7 -6 9s-3.16699 4 -4.5 6
s-2.5 3.33301 -3.5 4s-2.16699 1 -3.5 1s-2.83301 -0.666992 -4.5 -2s-3.5 -3.5 -5.5 -6.5l-6.5 -10c-2.33301 -3.66699 -5.33301 -9 -9 -16l-11 -20.5l-14.5 -27l-17 -32c-0.666992 -1.33301 -2 -3.83301 -4 -7.5s-3.33301 -6.16699 -4 -7.5s-2 -3.5 -4 -6.5
s-3.83301 -5 -5.5 -6s-3.66699 -2 -6 -3s-4.83301 -1.5 -7.5 -1.5h-14c-13.333 0 -20 3 -20 9z" />
    <glyph glyph-name="underscore" unicode="_" horiz-adv-x="213" 
d="M0 -38c0 5.33301 0.333984 9.16699 1.00098 11.5s2.33398 4.5 5.00098 6.5s7 3 13 3h178c5.33301 0 9.16602 -0.833008 11.499 -2.5s3.66602 -3.66699 3.99902 -6s0.5 -6.5 0.5 -12.5c0 -9.33301 -1 -15.666 -3 -18.999s-8 -5 -18 -5h-174c-8 0 -13 1.66699 -15 5
s-3 9.66602 -3 18.999z" />
    <glyph glyph-name="grave" unicode="`" horiz-adv-x="439" 
d="M109 636c0 8.66699 7 15.167 21 19.5s24.667 6.5 32 6.5c8 0 14.667 -6.33301 20 -19c9.33301 -22.667 18.5 -43.334 27.5 -62.001s16.333 -32.667 22 -42l14.5 -24l9 -15c2 -3.33301 3 -6.33301 3 -9c0 -7.33301 -4 -11 -12 -11c-6.66699 0 -19.667 10.333 -39 31
c-65.333 68.667 -98 110.334 -98 125.001z" />
    <glyph glyph-name="a" unicode="a" horiz-adv-x="461" 
d="M48 85c0 24 4.99902 44.168 14.999 60.501s25.167 29 45.5 38s41.5 16.167 63.5 21.5s48.667 10.666 80 15.999l9 1.5c2 0.333008 4.66699 0.666016 8 0.999023s6.33301 0.833008 9 1.5c4.66699 0.666992 7.83398 1.33398 9.50098 2.00098s3.33398 2.16699 5.00098 4.5
s2.5 5.5 2.5 9.5c0 6.66699 0.333008 15.834 1 27.501s1 19.834 1 24.501c0 38 -11 65.5 -33 82.5s-43.333 25.5 -64 25.5c-48 0 -72 -20 -72 -60c0 -5.33301 0.666992 -12 2 -20s2 -13.333 2 -16c0 -13.333 -6 -20 -18 -20c-4 0 -9 0.5 -15 1.5s-12.833 2.66699 -20.5 5
s-14 6.33301 -19 12s-7.5 12.5 -7.5 20.5c0 26 17.5 50.833 52.5 74.5s73.5 35.5 115.5 35.5c28.667 0 53 -3.33301 73 -10s34.833 -14.167 44.5 -22.5s17.167 -19.333 22.5 -33s8.33301 -24.334 9 -32.001s1 -17.167 1 -28.5c0 -48 -0.833008 -85.833 -2.5 -113.5
s-2.5 -51.834 -2.5 -72.501c0 -24.667 2.66699 -44.167 8 -58.5s11.666 -23.5 18.999 -27.5s14.666 -6.33301 21.999 -7s13.666 -2 18.999 -4s8 -6 8 -12c0 -14 -21 -21 -63 -21c-17.333 0 -32.166 4.66699 -44.499 14s-21.166 18.5 -26.499 27.5s-8.33301 13.5 -9 13.5
s-3.33398 -2.16699 -8.00098 -6.5s-11.167 -9.5 -19.5 -15.5s-17.666 -12 -27.999 -18s-22.333 -11.167 -36 -15.5s-27.167 -6.5 -40.5 -6.5c-42.667 0 -73.667 10 -93 30c-16.667 16.667 -25 40 -25 70zM125.999 100.001c0 -22.667 6.66895 -40.832 20.002 -54.499
s32.333 -20.5 57 -20.5c17.333 0 32.166 2.66699 44.499 8s21.5 11.333 27.5 18s10.667 15.5 14 26.5s5.16602 19.5 5.49902 25.5s0.5 14 0.5 24v72c0 6 -2.33301 9 -7 9c-1.33301 0 -3 -0.333008 -5 -1s-3.66699 -1 -5 -1l-29 -5c-4 -0.666992 -13.333 -2.66699 -28 -6
s-24.834 -6.33301 -30.501 -9s-13.667 -6.83398 -24 -12.501s-17.666 -11.667 -21.999 -18s-8.5 -14.333 -12.5 -24s-6 -20.167 -6 -31.5z" />
    <glyph glyph-name="b" unicode="b" horiz-adv-x="547" 
d="M12 691c0 6 3.33203 11.3301 9.99902 15.9971s17.334 9.5 32.001 14.5s22.334 7.5 23.001 7.5c4.66699 2 12.167 5.5 22.5 10.5s19.166 9 26.499 12s12.333 4.5 15 4.5c3.33301 0 6.66602 -1.66699 9.99902 -5s5 -7.66602 5 -12.999v-20.5
c0 -7.66699 -0.166992 -18 -0.5 -31s-0.5 -43.167 -0.5 -90.5v-185c0 -24 2.33301 -36 7 -36c2.66699 0 6.66699 3.5 12 10.5s11.833 14.667 19.5 23s22.5 16 44.5 23s49.333 10.5 82 10.5c59.333 0 105.5 -20.667 138.5 -62s49.5 -89.666 49.5 -144.999
c0 -31.333 -8.16699 -67.5 -24.5 -108.5s-38.5 -72.167 -66.5 -93.5c-38.667 -29.333 -85 -44 -139 -44c-27.333 0 -52.666 4.83301 -75.999 14.5s-40.833 19.334 -52.5 29.001s-17.834 14.5 -18.501 14.5c-2.66699 0 -9.16699 -10.667 -19.5 -32s-20.166 -32 -29.499 -32
c-8 0 -12 4.33301 -12 13c0 9.33301 0.666992 25.166 2 47.499s2 33.833 2 34.5c0 22 1.5 61.333 4.5 118s4.5 105.334 4.5 146.001v247c0 60.667 -15 91 -45 91h-10c-10.667 0 -16 3.66699 -16 11zM154.999 131.997c0 -18 13.167 -40.333 39.5 -67s61.833 -40 106.5 -40
c46 0 81.167 15.5 105.5 46.5s36.5 68.833 36.5 113.5c0 52.667 -15.833 99.667 -47.5 141s-74.5 62 -128.5 62c-31.333 0 -58 -9.33301 -80 -28c-21.333 -17.333 -32 -33 -32 -47v-181z" />
    <glyph glyph-name="c" unicode="c" horiz-adv-x="452" 
d="M39 192c0 64 21.501 119.501 64.501 166.501s98.833 70.5 167.5 70.5c23.333 0 48.5 -3.33301 75.5 -10s40.833 -14.334 41.5 -23.001c1.33301 -16 2 -31.667 2 -47c0 -29.333 -3.66699 -44 -11 -44c-4 0 -7.5 1.5 -10.5 4.5s-6.33301 7.5 -10 13.5
s-7.83398 10.667 -12.501 14c-14.667 12.667 -34.5 24.667 -59.5 36s-49.5 17 -73.5 17c-4.66699 0 -10.667 -1.16699 -18 -3.5s-15.833 -7.33301 -25.5 -15s-18.5 -17.334 -26.5 -29.001s-14.833 -27.834 -20.5 -48.501s-8.5 -44 -8.5 -70c0 -52 16.5 -97.167 49.5 -135.5
s73.5 -57.5 121.5 -57.5c23.333 0 45 4.33301 65 13s35.5 17.334 46.5 26.001s17.833 13 20.5 13c7.33301 0 11 -3.33301 11 -10c0 -2 -2.16699 -6.33301 -6.5 -13s-11.333 -14.667 -21 -24s-21.167 -18.166 -34.5 -26.499s-30.666 -15.5 -51.999 -21.5s-44 -9 -68 -9
c-62.667 0 -112.834 19 -150.501 57s-56.5 90 -56.5 156z" />
    <glyph glyph-name="d" unicode="d" horiz-adv-x="565" 
d="M39 195c0 64.667 21.5039 121.332 64.5039 169.999s102.5 73 178.5 73c17.333 0 40.166 -4.83301 68.499 -14.5s43.5 -14.5 45.5 -14.5c3.33301 0 5 12 5 36c0 50.667 0.333008 83.834 1 99.501s1 25.5 1 29.5c0 21.333 -0.333008 37 -1 47s-2.5 21 -5.5 33
s-8.33301 20.333 -16 25s-17.834 7 -30.501 7h-11c-10 0 -16 0.333008 -18 1s-3 3 -3 7v1c0 4.66699 3.33301 8.16699 10 10.5s20.167 6.66602 40.5 12.999s41.166 14.5 62.499 24.5c2 0.666992 6 2.5 12 5.5s11.167 5.33301 15.5 7s8.16602 2.5 11.499 2.5
c8 0 12 -6.66699 12 -20c0 -2 -2.16699 -30.333 -6.5 -85s-6.5 -98.667 -6.5 -132c0 -68.667 -0.333008 -143 -1 -223s-1 -127.333 -1 -142c0 -45.333 2.16699 -75.666 6.5 -90.999s13.833 -25.333 28.5 -30c2 -0.666992 7.66699 -1.83398 17 -3.50098s16 -3.66699 20 -6
s6 -6.16602 6 -11.499c0 -8 -25.667 -14 -77 -18c-10.667 -0.666992 -23 -2.5 -37 -5.5s-22.667 -4.5 -26 -4.5c-7.33301 0 -11 3.66699 -11 11c0 2 -0.5 7 -1.5 15s-1.5 15.333 -1.5 22c0 11.333 -3 17 -9 17c-2 0 -6.83301 -3.33301 -14.5 -10l-26.5 -22.5
c-10 -8.33301 -24.5 -15.833 -43.5 -22.5s-39.5 -10 -61.5 -10c-62 0 -110.333 20.5 -145 61.5s-52 90.167 -52 147.5zM111.004 241.998c0 -50.667 15.5 -97.334 46.5 -140.001s70.833 -64 119.5 -64c30 0 57.333 7.66699 82 23s37 34 37 56l1 171
c0 40.667 -9.33301 66.334 -28 77.001c-49.333 29.333 -89 44 -119 44c-43.333 0 -77.333 -15.833 -102 -47.5s-37 -71.5 -37 -119.5z" />
    <glyph glyph-name="e" unicode="e" horiz-adv-x="466" 
d="M39 194c0 66.667 18.832 123 56.499 169s86.5 69 146.5 69c28 0 53.5 -5 76.5 -15s40.833 -22.167 53.5 -36.5s23.334 -29.5 32.001 -45.5s14.5 -29.167 17.5 -39.5s4.5 -17.833 4.5 -22.5c0 -12 -13.667 -18 -41 -18h-227h-30c-5.33301 0 -8.5 -0.5 -9.5 -1.5
s-1.5 -4.16699 -1.5 -9.5c0 -62.667 16.833 -112 50.5 -148s73.167 -54 118.5 -54c28 0 56.5 7.5 85.5 22.5s44.167 22.5 45.5 22.5c6.66699 0 10 -3 10 -9c0 -2.66699 -2.33301 -7.5 -7 -14.5s-12 -15.167 -22 -24.5s-21.667 -18.333 -35 -27s-30 -16 -50 -22
s-41 -9 -63 -9c-58.667 0 -108.5 18 -149.5 54s-61.5 89 -61.5 159zM122.999 293c0 -9.33301 4.33496 -14.002 13.002 -14.002c18 0 51 1 99 3s73.667 3 77 3c9.33301 0 15.166 0.833008 17.499 2.5s3.5 4.83398 3.5 9.50098c0 20 -9.33301 43.333 -28 70
s-45.334 40 -80.001 40c-32 0 -57 -13.167 -75 -39.5s-27 -51.166 -27 -74.499z" />
    <glyph glyph-name="f" unicode="f" horiz-adv-x="345" 
d="M29 385c0 12 2.83789 20.0039 8.50488 24.0039s16.834 6 33.501 6h21c8 0 13 1.83301 15 5.5s3 9.5 3 17.5c0 48.667 8 93.5 24 134.5s35.833 73.667 59.5 98s47.5 43.166 71.5 56.499s45.667 20 65 20c15.333 0 27.833 -2.5 37.5 -7.5s14.5 -11.833 14.5 -20.5
c0 -2.66699 -2 -12 -6 -28c-0.666992 -2 -1.33398 -4.33301 -2.00098 -7s-1.33398 -4.83398 -2.00098 -6.50098s-1.33398 -3.5 -2.00098 -5.5s-1.33398 -3.5 -2.00098 -4.5s-1.5 -2.16699 -2.5 -3.5s-2 -2.33301 -3 -3s-2.33301 -1.16699 -4 -1.5s-3.5 -0.5 -5.5 -0.5
c-2.66699 0 -5.66699 2.16699 -9 6.5s-9.83301 8.66602 -19.5 12.999s-23.834 6.5 -42.501 6.5c-20 0 -37.167 -7 -51.5 -21s-25.166 -32.833 -32.499 -56.5s-12.666 -47.667 -15.999 -72s-5 -50.166 -5 -77.499v-25c0 -12.667 4 -19 12 -19c36 0 68 2.66699 96 8
c3.33301 0.666992 7.16602 2.5 11.499 5.5s7.5 4.5 9.5 4.5c3.33301 0 5 -2.66699 5 -8c0 -8.66699 -4.66699 -21.334 -14 -38.001c-4 -6 -12.333 -9 -25 -9c-14.667 0 -25.834 -0.166992 -33.501 -0.5s-22.5 -0.5 -44.5 -0.5c-10.667 0 -16 -3.33301 -16 -10v-58
c0 -5.33301 0.333008 -21 1 -47s1.5 -55 2.5 -87s1.5 -53.333 1.5 -64c0 -11.333 0.166992 -19.5 0.5 -24.5s1.66602 -12.667 3.99902 -23s5.5 -18 9.5 -23s10.167 -9.66699 18.5 -14s18.5 -6.5 30.5 -6.5c11.333 0 17 -5 17 -15c0 -6.66699 -3.66699 -10 -11 -10
c-0.666992 0 -7.66699 0.333008 -21 1s-28.166 1.5 -44.499 2.5s-27.833 1.5 -34.5 1.5c-12 0 -24 -0.833008 -36 -2.5s-24.667 -2.5 -38 -2.5c-10 0 -15 4.66699 -15 14c0 3.33301 4.16699 6.66602 12.5 9.99902s16.5 9.5 24.5 18.5s12 22.5 12 40.5
c0 4.66699 -0.333008 17.834 -1 39.501s-1.33398 53.667 -2.00098 96s-1 91.166 -1 146.499c0 7.33301 -1.16699 11.833 -3.5 13.5s-6.83301 2.5 -13.5 2.5c-3.33301 0 -9.33301 -0.5 -18 -1.5s-16 -1.5 -22 -1.5c-14.667 0 -22 4.33301 -22 13z" />
    <glyph glyph-name="g" unicode="g" horiz-adv-x="488" 
d="M39 -97c0 18 5.99902 33.1689 17.999 45.502s24 21.5 36 27.5s18 10 18 12c0 1.33301 -1.66699 3.33301 -5 6l-11.5 9c-4.33301 3.33301 -8.16602 9 -11.499 17s-5 17 -5 27c0 20 4.33301 37.333 13 52s17.334 25.667 26.001 33s13 12 13 14c0 2.66699 -3.5 7 -10.5 13
l-23.5 20.5c-8.66699 7.66699 -16.5 20.334 -23.5 38.001s-10.5 38.5 -10.5 62.5c0 15.333 2.5 30.833 7.5 46.5s13.333 32 25 49s29.667 30.833 54 41.5s53.166 16 86.499 16c26 0 48.333 -3.33301 67 -10s32.5 -13.334 41.5 -20.001s14.833 -10 17.5 -10
c5.33301 0 22.333 6 51 18c9.33301 4 16.333 13 21 27s9.66699 21 15 21c8.66699 0 13 -2.66699 13 -8c0 -16 -2.33301 -33.167 -7 -51.5s-9.66699 -31.5 -15 -39.5c-8 -12.667 -21.667 -23 -41 -31c7.33301 -20 11 -36.667 11 -50c0 -42.667 -16 -78.667 -48 -108
s-71 -44 -117 -44c-17.333 0 -33.833 1.5 -49.5 4.5s-24.834 4.5 -27.501 4.5c-3.33301 0 -7.66602 -0.666992 -12.999 -2s-12 -6 -20 -14s-12 -19 -12 -33c0 -22.667 10.333 -37 31 -43s55 -9 103 -9h46c96.667 0 145 -29.333 145 -88
c0 -20.667 -2.33301 -36.334 -7 -47.001c-12.667 -32.667 -38.667 -58.667 -78 -78s-85 -29 -137 -29c-30 0 -58 2.83301 -84 8.5s-49.5 17.167 -70.5 34.5s-31.5 39.666 -31.5 66.999zM96.999 -90.998c0 -29.333 12.335 -51.5 37.002 -66.5s55 -22.5 91 -22.5
c41.333 0 78.5 8.5 111.5 25.5s49.5 38.833 49.5 65.5c0 12 -2.66699 21.667 -8 29s-14.333 12.5 -27 15.5s-23.834 4.83301 -33.501 5.5s-23.834 1 -42.501 1h-9c-21.333 0 -47.333 2.33301 -78 7l-45 7c-6.66699 0 -16 -6.66699 -28 -20s-18 -29 -18 -47zM138.001 290.002
c0 -40 9.5 -73.333 28.5 -100s42.833 -40 71.5 -40c30 0 53 11.5 69 34.5s24 51.167 24 84.5c0 37.333 -9.33301 70.333 -28 99s-44 43 -76 43c-24.667 0 -45.667 -10.5 -63 -31.5s-26 -50.833 -26 -89.5z" />
    <glyph glyph-name="h" unicode="h" horiz-adv-x="587" 
d="M20 697c0 5.33301 3.49805 9.83398 10.498 13.501s17 7.16699 30 10.5s22.5 6.33301 28.5 9c42 18.667 66 28 72 28c8.66699 0 13 -7.66699 13 -23c0 -3.33301 -1.16699 -11.333 -3.5 -24s-3.5 -25.334 -3.5 -38.001c-0.666992 -60 -1.5 -110.833 -2.5 -152.5
s-1.83301 -69.667 -2.5 -84s-1.16699 -26.166 -1.5 -35.499s-0.5 -16.666 -0.5 -21.999c0 -12.667 2.66699 -19 8 -19c1.33301 0 8.16602 6.16699 20.499 18.5s29.333 24.666 51 36.999s44.834 18.5 69.501 18.5c54 0 96 -16 126 -48s45 -81.667 45 -149v-145
c0 -6.66699 0.666992 -13.834 2 -21.501s4.66602 -15.5 9.99902 -23.5s12.333 -12.333 21 -13c36 -3.33301 54 -10.333 54 -21s-10.333 -16 -31 -16c-3.33301 0 -16.166 0.833008 -38.499 2.5s-37.5 2.5 -45.5 2.5c-6 0 -19.833 -0.5 -41.5 -1.5s-33.5 -1.5 -35.5 -1.5
c-15.333 0 -23 3.33301 -23 10c0 7.33301 2.83301 12.166 8.5 14.499s11.834 3.5 18.501 3.5s12.834 3.66699 18.501 11s8.5 18.666 8.5 33.999c0 2.66699 0.166992 6 0.5 10s0.5 9.5 0.5 16.5s0.166992 22.5 0.5 46.5s0.5 55 0.5 93c0 40.667 -12.333 75.834 -37 105.501
s-53.667 44.5 -87 44.5c-31.333 0 -63.666 -13 -96.999 -39c-12 -9.33301 -19.667 -24.5 -23 -45.5s-5 -67.5 -5 -139.5v-23c0 -30 2.5 -54.167 7.5 -72.5s15.833 -31.166 32.5 -38.499c5.33301 -2 12.666 -3.33301 21.999 -4s16.5 -1.83398 21.5 -3.50098
s7.5 -5.16699 7.5 -10.5c0 -8 -3.66699 -12 -11 -12l-26 1c-17.333 0.666992 -34.833 1.5 -52.5 2.5s-27.167 1.5 -28.5 1.5c-4.66699 0 -16.334 -0.833008 -35.001 -2.5s-30.667 -2.5 -36 -2.5c-8.66699 0 -15.167 0.5 -19.5 1.5s-6.66602 2 -6.99902 3
s-0.5 2.83301 -0.5 5.5c0 6.66699 4 11 12 13c19.333 5.33301 31.833 13.833 37.5 25.5s8.5 28.834 8.5 51.501l4 341v49c0 90.667 -2 146 -6 166s-16 30 -36 30h-13l-4 1c-11.333 0 -17 3.33301 -17 10z" />
    <glyph glyph-name="i" unicode="i" horiz-adv-x="284" 
d="M36 381c0 3.33301 0.834961 5.99902 2.50195 7.99902s5 4.16699 10 6.5s10.167 4.33301 15.5 6s13.166 4.33398 23.499 8.00098s20.166 7.5 29.499 11.5l20.5 9c6.33301 2.66699 10.5 4.5 12.5 5.5s4.33301 1.83301 7 2.5s6 1 10 1c10 0 15 -6.33301 15 -19
c0 -3.33301 -1 -10.666 -3 -21.999s-3 -20 -3 -26v-274c0 -20 3.16699 -35.667 9.5 -47s13 -18.333 20 -21s15.833 -4.33398 26.5 -5.00098c8 -0.666992 13.333 -1.16699 16 -1.5s5.66699 -1.5 9 -3.5s5 -5.33301 5 -10c0 -11.333 -5.66699 -17 -17 -17
c-1.33301 0 -3.66602 0.166992 -6.99902 0.5s-6 0.5 -8 0.5c-14.667 0 -27 0.333008 -37 1s-21.333 1 -34 1c-16 0 -31 -0.333008 -45 -1s-22.667 -1 -26 -1c-26.667 0 -40 4.33301 -40 13c0 9.33301 5 15.666 15 18.999c0.666992 0 2 0.333008 4 1
c15.333 5.33301 24.666 12 27.999 20c6 13.333 9 66.333 9 159v88c0 19.333 -2.33301 34.666 -7 45.999s-9 18.333 -13 21s-10.833 4.83398 -20.5 6.50098s-15.5 2.83398 -17.5 3.50098c-6.66699 2.66699 -10 6 -10 10zM93.002 589.999c0 8 5.83301 19.168 17.5 33.501
s22.5 21.5 32.5 21.5c10.667 0 21 -6.83301 31 -20.5s15 -25.834 15 -36.501s-6.33301 -22.5 -19 -35.5s-22 -19.5 -28 -19.5c-13.333 0 -24.833 7 -34.5 21s-14.5 26 -14.5 36z" />
    <glyph glyph-name="j" unicode="j" horiz-adv-x="281" 
d="M116 591c0 9.33301 5.16699 20.168 15.5 32.501s20.833 18.5 31.5 18.5c11.333 0 22.166 -5.83301 32.499 -17.5s15.5 -22.834 15.5 -33.501s-5.83301 -22.167 -17.5 -34.5s-20.5 -18.5 -26.5 -18.5c-13.333 0 -25.166 6.5 -35.499 19.5s-15.5 24.167 -15.5 33.5z
M23 -136.998c0 19.333 7.33398 28.999 22.001 28.999c7.33301 0 17.666 -7.16699 30.999 -21.5s22.333 -21.5 27 -21.5c8.66699 0 14.667 11.167 18 33.5s5 64.833 5 127.5v304c0 8 -0.5 14.5 -1.5 19.5s-3 11 -6 18s-9 12.333 -18 16s-20.167 5.5 -33.5 5.5
c-10.667 0 -16 3.33301 -16 10c0 4 2.83301 6.83301 8.5 8.5l32 9.5c15.667 4.66699 31.5 10.667 47.5 18c29.333 14 45 21 47 21c8 0 12 -7.66699 12 -23v-11c0 -5.33301 -0.333008 -13.666 -1 -24.999s-1 -18.666 -1 -21.999v-324
c0 -36.667 -3.33301 -71.334 -10 -104.001s-20.5 -62.667 -41.5 -90s-47.833 -41 -80.5 -41c-26 0 -39 9 -39 27c0 3.33301 -0.333008 9.33301 -1 18s-1 14.667 -1 18z" />
    <glyph glyph-name="k" unicode="k" horiz-adv-x="545" 
d="M0 689c0 7.33301 16.3359 16.0049 49.0029 26.0049c4.66699 1.33301 10.167 3 16.5 5s10.166 3.16699 11.499 3.5s3.83301 1.16602 7.5 2.49902s5.66699 2.16602 6 2.49902s2 1.16602 5 2.49902s5.16699 2.5 6.5 3.5s4 2.66699 8 5s8 4.83301 12 7.5
c14 8.66699 25 13 33 13c9.33301 0 14 -6.33301 14 -19c0 -1.33301 -0.333008 -5.16602 -1 -11.499s-1.5 -15.666 -2.5 -27.999s-1.83301 -27.333 -2.5 -45s-1.33398 -41.334 -2.00098 -71.001s-1 -62.167 -1 -97.5c0 -22.667 -0.5 -56.834 -1.5 -102.501
s-1.5 -79.834 -1.5 -102.501v-21c0 -28 1.33301 -42 4 -42c4 0 7.5 1 10.5 3s6.66699 5.33301 11 10s7.83301 8 10.5 10c93.333 74.667 140 117 140 127c0 8.66699 -7.5 16 -22.5 22s-22.5 11.667 -22.5 17c0 6.66699 4 10 12 10c1.33301 0 4 -0.166992 8 -0.5
s7.33301 -0.5 10 -0.5c29.333 0.666992 59.5 1.66699 90.5 3s49.833 2 56.5 2c17.333 0 26 -3 26 -9c0 -4.66699 -2 -8 -6 -10s-9.33301 -3.5 -16 -4.5s-16.334 -3.83301 -29.001 -8.5s-25.667 -11.334 -39 -20.001l-6 -4c-2 -1.33301 -4.16699 -3 -6.5 -5
s-6.66602 -5.33301 -12.999 -10l-21.5 -16l-37 -28c-31.333 -24 -49.666 -38.333 -54.999 -43s-8 -9.66699 -8 -15s3.66699 -13 11 -23c60.667 -74 112.667 -130 156 -168c18 -16 36.167 -26.333 54.5 -31s31.5 -7 39.5 -7s12 -3 12 -9c0 -8 -2.83301 -12.833 -8.5 -14.5
s-16.5 -2.5 -32.5 -2.5c-4.66699 0 -22.334 0.166992 -53.001 0.5s-47.667 0.5 -51 0.5c-5.33301 0 -14 5.16699 -26 15.5s-26.5 25 -43.5 44l-43.5 50l-44 53.5c-17.333 21.333 -26.333 32.666 -27 33.999c-2.66699 4 -6.33398 6 -11.001 6
c-6.66699 0 -13.5 -4.66699 -20.5 -14s-10.5 -20 -10.5 -32c0 -1.33301 0.166992 -3.83301 0.5 -7.5s0.5 -6.83398 0.5 -9.50098c0 -7.33301 0.333008 -16.666 1 -27.999c1.33301 -32 3.66602 -50 6.99902 -54c0.666992 -0.666992 1.66699 -2 3 -4l7 -9
c5.33301 -7.33301 19.166 -13 41.499 -17s33.5 -9 33.5 -15c0 -10.667 -10.333 -16 -31 -16c-1.33301 0 -14.666 1 -39.999 3s-44.333 3 -57 3c-8.66699 0 -19.167 -0.666992 -31.5 -2s-26.166 -2 -41.499 -2c-16 0 -24 4 -24 12c0 6.66699 8.33301 12.334 25 17.001
c15.333 6 25 14.667 29 26s6 33.333 6 66c0 7.33301 0.166992 16 0.5 26s0.5 16 0.5 18l1 444c0 50 -15.667 75 -47 75c-2 0 -5.16699 -0.166992 -9.5 -0.5s-7.83301 -0.5 -10.5 -0.5c-13.333 0 -20 3.66699 -20 11z" />
    <glyph glyph-name="l" unicode="l" horiz-adv-x="279" 
d="M20 693c0 4 0.504883 7.00195 1.50488 9.00195s3.16699 3.83301 6.5 5.5s7.16602 3 11.499 4s11.166 3 20.499 6s18.666 6.5 27.999 10.5c5.33301 2 13.666 5.66699 24.999 11s21.166 9.5 29.499 12.5s15.5 4.5 21.5 4.5c8 0 12 -6.33301 12 -19
c0 -2.66699 -0.666992 -10.5 -2 -23.5s-2.66602 -31 -3.99902 -54s-2 -47.833 -2 -74.5v-56c0 -31.333 -0.333008 -57.833 -1 -79.5s-1 -39.5 -1 -53.5v-298c0 -14 1.16699 -25.5 3.5 -34.5s10 -17.667 23 -26s31.167 -12.5 54.5 -12.5c3.33301 0 6.33301 -1.66699 9 -5
s4 -6.66602 4 -9.99902c0 -9.33301 -10.333 -14 -31 -14c-6 0 -21.5 1.16699 -46.5 3.5s-43.167 3.5 -54.5 3.5c-17.333 0 -33.833 -1.33301 -49.5 -4s-26.167 -4 -31.5 -4c-4.66699 0 -8.5 1.16699 -11.5 3.5s-4.5 4.5 -4.5 6.5c0 5.33301 1.5 9.16602 4.5 11.499
s8 4.33301 15 6s11.833 3.16699 14.5 4.5c11.333 5.33301 18.666 12.666 21.999 21.999s5 23.666 5 42.999c0 2.66699 -0.166992 6.83398 -0.5 12.501s-0.5 10.167 -0.5 13.5v74c0 24.667 0.666992 90.167 2 196.5s2 182.5 2 228.5c0 15.333 -2.5 29.166 -7.5 41.499
s-10.5 19.833 -16.5 22.5s-19.333 4 -40 4c-7.33301 0 -11 2.66699 -11 8z" />
    <glyph glyph-name="m" unicode="m" horiz-adv-x="827" 
d="M31 388c0 6 3.99414 10.5029 11.9941 13.5029s20 6.16699 36 9.5s29.333 7.33301 40 12c4 1.33301 8.33301 3.33301 13 6s8.16699 4.5 10.5 5.5s5.33301 1.83301 9 2.5s7.5 1 11.5 1c8 0 12 -9.66699 12 -29c0 -4.66699 -0.833008 -12.334 -2.5 -23.001
s-2.5 -17 -2.5 -19c0 -8 2 -12 6 -12c0.666992 0 2.83398 2.5 6.50098 7.5s8.66699 11 15 18s14.166 14 23.499 21s21.833 13 37.5 18s33.167 7.5 52.5 7.5c24.667 0 46 -4.16699 64 -12.5s30.5 -17.333 37.5 -27s12.833 -18.667 17.5 -27s7.66699 -12.5 9 -12.5
c0.666992 0 6.83398 6.83301 18.501 20.5s28.334 27.334 50.001 41.001s44.5 20.5 68.5 20.5c48.667 0 86.167 -14.333 112.5 -43s41.833 -64.334 46.5 -107.001c4 -39.333 6 -81.666 6 -126.999v-32c0 -30 1.66699 -51.667 5 -65s11 -22 23 -26
c0.666992 0 3.66699 -0.5 9 -1.5l13.5 -2.5c3.66699 -0.666992 7.16699 -2.33398 10.5 -5.00098s5 -6 5 -10c0 -10 -11 -15 -33 -15c-4 0 -14.167 0.666992 -30.5 2s-28.166 2 -35.499 2c-10 0 -22.833 -0.666992 -38.5 -2s-26.834 -2 -33.501 -2c-16 0 -24 3.33301 -24 10
c0 7.33301 7 13.666 21 18.999s22.333 11 25 17c2.66699 7.33301 4 22.666 4 45.999v16c0 22.667 -0.166992 42.5 -0.5 59.5s-0.5 32.667 -0.5 47s-0.5 26.833 -1.5 37.5s-1.5 19.834 -1.5 27.501s-1 14.667 -3 21s-3.16699 11.166 -3.5 14.499
s-2.16602 7.33301 -5.49902 12s-5.33301 7.66699 -6 9s-3.16699 4.66602 -7.5 9.99902s-7.16602 8.66602 -8.49902 9.99902c-17.333 20.667 -42.333 31 -75 31c-15.333 0 -31.333 -4 -48 -12s-30 -16.167 -40 -24.5s-15 -14.166 -15 -17.499c0 -2 0.5 -6.66699 1.5 -14
s2 -20.5 3 -39.5s1.5 -43.5 1.5 -73.5v-85c0 -30.667 4.33301 -53.167 13 -67.5s27.334 -23.5 56.001 -27.5c6.66699 -0.666992 11.334 -2.83398 14.001 -6.50098s4 -6.83398 4 -9.50098c0 -7.33301 -6.33301 -11 -19 -11c-4.66699 0 -15.334 0.833008 -32.001 2.5
s-30.334 2.5 -41.001 2.5c-6.66699 0 -23 -0.833008 -49 -2.5s-40 -2.5 -42 -2.5c-14.667 0 -22 4.33301 -22 13c0 4.66699 1.33301 8.16699 4 10.5s9 5.5 19 9.5c4 1.33301 7.16699 2.66602 9.5 3.99902s5.16602 7 8.49902 17s5 23.667 5 41v8
c0 2.66699 0.166992 6.16699 0.5 10.5s0.5 14.333 0.5 30v60.5c0 14.667 -0.166992 26.5 -0.5 35.5s-0.5 14.833 -0.5 17.5s-0.166992 4.83398 -0.5 6.50098s-0.5 2.83398 -0.5 3.50098c0 35.333 -9 63.666 -27 84.999s-43 32 -75 32c-28 0 -53 -7.33301 -75 -22
s-33 -31.667 -33 -51v-14v-188c0 -24 4.33301 -42.333 13 -55s18.334 -19.834 29.001 -21.501s20.334 -3.5 29.001 -5.5s13 -5.33301 13 -10c0 -6 -1 -10 -3 -12s-8 -3 -18 -3c-2.66699 0 -13.167 0.5 -31.5 1.5s-35.833 1.5 -52.5 1.5c-15.333 0 -31.666 -0.5 -48.999 -1.5
s-27.333 -1.5 -30 -1.5c-16 0 -24 5 -24 15c0 4.66699 1.83301 8 5.5 10s7.83398 3.33301 12.501 4s9.66699 3.5 15 8.5s9.66602 12.167 12.999 21.5c5.33301 18.667 8 69.334 8 152.001c0 12.667 -0.166992 32.667 -0.5 60s-0.5 48 -0.5 62c0 16 -3.5 27.333 -10.5 34
s-14.667 9.83398 -23 9.50098s-16 0.333984 -23 2.00098s-10.5 5.83398 -10.5 12.501z" />
    <glyph glyph-name="n" unicode="n" horiz-adv-x="591" 
d="M31 390c0 4 2.16504 7.00391 6.49805 9.00391s11.5 3.66699 21.5 5s17 2.66602 21 3.99902c12.667 3.33301 25.834 7.83301 39.501 13.5s24.667 10.5 33 14.5s13.833 6 16.5 6h2c6 0 9 -4 9 -12c0 -1.33301 -0.333008 -7.33301 -1 -18s-1 -19 -1 -25
c0 -17.333 1.66699 -26 5 -26c2 0 4.33301 1.83301 7 5.5s7.5 9 14.5 16s15.5 13.5 25.5 19.5c30 18.667 59 28 87 28c26.667 0 50.667 -4.16699 72 -12.5s38 -18.666 50 -30.999s22 -26.5 30 -42.5s13.333 -30.667 16 -44s4 -26 4 -38v-9.5
c0 -3.66699 0.166992 -8.33398 0.5 -14.001s0.5 -18.834 0.5 -39.501v-80v-22c0 -25.333 3.5 -42.833 10.5 -52.5s23.833 -16.5 50.5 -20.5c13.333 -2 20 -7 20 -15c0 -6.66699 -6.66699 -10 -20 -10c-15.333 0 -31.333 0.833008 -48 2.5s-28 2.5 -34 2.5
c-9.33301 0 -23.833 -0.666992 -43.5 -2s-30.834 -2 -33.501 -2c-13.333 0 -20 4.33301 -20 13c0 3.33301 1.16699 6 3.5 8s5 3.33301 8 4s5.83301 1.33398 8.5 2.00098l5 1c14.667 4.66699 22 27 22 67v135c0 51.333 -12.667 90.166 -38 116.499s-55.666 39.5 -90.999 39.5
c-28.667 0 -53.667 -7.66699 -75 -23s-33.666 -28 -36.999 -38c-6 -16.667 -9 -69.334 -9 -158.001v-38c0 -33.333 3.5 -58 10.5 -74s22.5 -25 46.5 -27c6.66699 0 15.167 -1.16699 25.5 -3.5s15.5 -6.16602 15.5 -11.499c0 -8.66699 -6.33301 -13 -19 -13
c-11.333 0 -22.333 0.666992 -33 2s-24 2 -40 2c-17.333 0 -40.333 -0.666992 -69 -2l-43 -2c-10 0 -15 3.33301 -15 10c0 5.33301 1.66699 8.66602 5 9.99902s7.5 2.33301 12.5 3s10 2.66699 15 6s9.5 11.5 13.5 24.5s6.33301 30.5 7 52.5c1.33301 37.333 2 62.333 2 75
v144c0 21.333 -3.83301 35.666 -11.5 42.999s-18.167 11 -31.5 11h-10c-12.667 0 -19 3.66699 -19 11z" />
    <glyph glyph-name="o" unicode="o" horiz-adv-x="547" 
d="M39 203c0 61.333 20.834 114.666 62.501 159.999s99.5 68 173.5 68c62.667 0 117.167 -19.667 163.5 -59s69.5 -93.666 69.5 -162.999c0 -70.667 -23.833 -126.167 -71.5 -166.5s-103.834 -60.5 -168.501 -60.5c-72 0 -128.167 21.833 -168.5 65.5
s-60.5 95.5 -60.5 155.5zM118.001 237c0 -68.667 18.332 -123.334 54.999 -164.001s78.334 -61 125.001 -61c38 0 70 14.5 96 43.5s39 70.167 39 123.5c0 58.667 -16 110.834 -48 156.501s-76.667 68.5 -134 68.5c-34.667 0 -65.5 -13.667 -92.5 -41
s-40.5 -69.333 -40.5 -126z" />
    <glyph glyph-name="p" unicode="p" horiz-adv-x="555" 
d="M31 385c0 3.33301 2.83594 6.00488 8.50293 8.00488s17.167 5.66699 34.5 11s35.666 12.666 54.999 21.999c26 12.667 40 19 42 19c8.66699 0 13 -4.33301 13 -13c0 -14 -0.666992 -26.833 -2 -38.5s-2 -18.5 -2 -20.5c0 -5.33301 1 -8 3 -8
c0.666992 0 3.5 2.33301 8.5 7l19.5 17.5c8 7 17.5 13.833 28.5 20.5s24.833 12.334 41.5 17.001s34 7 52 7c59.333 0 104.666 -19.5 135.999 -58.5s47 -86.5 47 -142.5c0 -62 -19.5 -117.833 -58.5 -167.5s-91.167 -74.5 -156.5 -74.5c-30.667 0 -55.5 3.16699 -74.5 9.5
s-32.167 12.666 -39.5 18.999s-12.333 9.5 -15 9.5c-2 0 -3 -2.66699 -3 -8v-110v-13c0 -12.667 5.66699 -28.334 17 -47.001c7.33301 -12 18.5 -19 33.5 -21s27.667 -3.33301 38 -4s15.5 -5.33398 15.5 -14.001c0 -8 -11.333 -12 -34 -12c-4 0 -14.667 0.666992 -32 2
s-41.333 2 -72 2c-12 0 -24.833 -0.5 -38.5 -1.5s-21.834 -1.5 -24.501 -1.5c-14.667 0 -24 0.666992 -28 2s-6 4 -6 8c0 6 3.16699 10.333 9.5 13s13.5 5 21.5 7s15.167 10.167 21.5 24.5s9.5 35.166 9.5 62.499v20c0 78.667 0.5 144 1.5 196s1.5 78.667 1.5 80v22
c0 55.333 -2.5 92.166 -7.5 110.499s-18.167 27.5 -39.5 27.5c-11.333 0 -18.333 0.833008 -21 2.5s-4 4.5 -4 8.5zM169.003 192.005c0 -6.66699 0.166016 -15.001 0.499023 -25.001s0.5 -18.333 0.5 -25c0 -23.333 5 -43.333 15 -60s22.833 -29.167 38.5 -37.5
s31.334 -14.333 47.001 -18s31.167 -5.5 46.5 -5.5c43.333 0 76.5 15.833 99.5 47.5s34.5 70.5 34.5 116.5c0 52.667 -14.167 99 -42.5 139s-66.5 60 -114.5 60c-34 0 -64.333 -10.667 -91 -32c-14 -10.667 -23.167 -25.167 -27.5 -43.5s-6.5 -57.166 -6.5 -116.499z" />
    <glyph glyph-name="q" unicode="q" horiz-adv-x="559" 
d="M39 176c0 43.333 7.66211 82.001 22.9951 116.001s35.333 60.833 60 80.5s51 34.5 79 44.5s56.667 15 86 15c11.333 0 22.333 -1 33 -3s20.334 -4.5 29.001 -7.5s16.834 -6.33301 24.501 -10s14.334 -7.16699 20.001 -10.5s10.5 -6.5 14.5 -9.5l10 -7.5l3 -3
c2.66699 0 9.33398 10.667 20.001 32s20.334 32 29.001 32c6 0 9 -5.33301 9 -16c0 -6 -0.833008 -15.167 -2.5 -27.5s-3.16699 -32.5 -4.5 -60.5s-2 -64.333 -2 -109c0 -54 0.5 -95.333 1.5 -124s1.5 -91.334 1.5 -188.001c0 -21.333 2.5 -38.833 7.5 -52.5
s11.167 -23 18.5 -28s14.5 -8.5 21.5 -10.5s13 -4 18 -6s7.5 -5.33301 7.5 -10c0 -8 -6 -12 -18 -12c-1.33301 0 -5 0.166992 -11 0.5s-14.333 0.5 -25 0.5h-34c-20 0 -36.833 -0.333008 -50.5 -1s-22.834 -1.16699 -27.501 -1.5s-8.66699 -0.833008 -12 -1.5s-6 -1 -8 -1
c-16 0 -24 5 -24 15c0 4.66699 3 8.16699 9 10.5s13.5 4.16602 22.5 5.49902s15.5 3.33301 19.5 6c4.66699 3.33301 7.83398 10 9.50098 20s2.5 31.667 2.5 65c0 16 0.333008 34.167 1 54.5s1 32.833 1 37.5c0 30.667 -2 46 -6 46c-3.33301 0 -9 -4.16699 -17 -12.5
l-27.5 -28c-10.333 -10.333 -26 -19.666 -47 -27.999s-44.5 -12.5 -70.5 -12.5c-48.667 0 -89 13.333 -121 40c-48.667 40.667 -73 94 -73 160zM108.995 217.001c0 -42.667 9.83398 -78.999 29.501 -108.999s41.167 -50.667 64.5 -62s45.666 -17 66.999 -17
c29.333 0 53.333 3.66699 72 11s31.834 17.5 39.501 30.5s12.5 24.333 14.5 34s3 21.167 3 34.5v163c0 26.667 -14.833 50.167 -44.5 70.5s-59.834 30.5 -90.501 30.5c-14.667 0 -29.834 -2.83301 -45.501 -8.5s-32.167 -14.834 -49.5 -27.501s-31.666 -32 -42.999 -58
s-17 -56.667 -17 -92z" />
    <glyph glyph-name="r" unicode="r" horiz-adv-x="375" 
d="M22 380c0 7.33301 4.50098 12.832 13.501 16.499s25.667 9.33398 50 17.001s47.166 16.5 68.499 26.5c6.66699 2.66699 11.334 4 14.001 4c8.66699 0 13 -6.66699 13 -20c0 -2.66699 -0.166992 -7 -0.5 -13s-0.5 -10.667 -0.5 -14c0 -14 0.333008 -24 1 -30
s1.5 -9.66699 2.5 -11s2.5 -2 4.5 -2c1.33301 0 6.33301 6.66699 15 20s21 26.833 37 40.5s33.667 20.5 53 20.5c12 0 27.667 -6.33301 47 -19c14 -9.33301 21 -19 21 -29c0 -12 -2.66699 -22.667 -8 -32s-10.5 -15.666 -15.5 -18.999s-8.5 -5 -10.5 -5
c-5.33301 0 -14.833 4 -28.5 12s-29.5 12 -47.5 12s-34.833 -7.33301 -50.5 -22s-23.5 -28 -23.5 -40v-104c0 -24 0.166992 -43.5 0.5 -58.5s0.5 -24.333 0.5 -28s0.166992 -6.83398 0.5 -9.50098s0.5 -5.66699 0.5 -9c0 -14 4.66699 -26 14 -36s20.333 -16 33 -18
c4 -0.666992 9 -1.33398 15 -2.00098s10.667 -1.16699 14 -1.5s7 -1 11 -2s6.83301 -2.5 8.5 -4.5s2.5 -4.33301 2.5 -7c0 -10.667 -4 -16 -12 -16c-11.333 0 -26.666 0.833008 -45.999 2.5s-32.333 2.5 -39 2.5c-21.333 0 -43.333 -0.833008 -66 -2.5
s-35.334 -2.5 -38.001 -2.5c-6.66699 0 -11.667 0.666992 -15 2s-5.33301 2.66602 -6 3.99902s-1 3.33301 -1 6c0 8.66699 4.33301 14.334 13 17.001c17.333 4 27.833 12.5 31.5 25.5s5.5 40.833 5.5 83.5c0 43.333 -0.166992 79 -0.5 107s-0.5 45.833 -0.5 53.5
s-0.166992 13.834 -0.5 18.501s-0.5 8.66699 -0.5 12c0 7.33301 -1 13.333 -3 18s-6.83301 9 -14.5 13s-18.5 6 -32.5 6c-0.666992 0 -2.33398 0.166992 -5.00098 0.5s-4.66699 0.5 -6 0.5c-12.667 0 -19 5.33301 -19 16z" />
    <glyph glyph-name="s" unicode="s" horiz-adv-x="393" 
d="M55 43l0.00195312 87.0049c0 7.33301 1.5 13.5 4.5 18.5s6.5 7.5 10.5 7.5c6.66699 0 11.167 -1.5 13.5 -4.5s4.5 -9.16699 6.5 -18.5s4 -16 6 -20c24.667 -61.333 59.334 -92 104.001 -92c20.667 0 40.334 5.5 59.001 16.5s28 29.167 28 54.5
c0 22 -7.66699 40.333 -23 55s-34 26.167 -56 34.5l-66 26c-22 9 -40.667 22.333 -56 40s-23 39.834 -23 66.501c0 37.333 15 67.333 45 90s65.333 34 106 34c31.333 0 56.333 -2.83301 75 -8.5s29.834 -10.834 33.501 -15.501s5.5 -9 5.5 -13
c0 -0.666992 0.666992 -9.66699 2 -27s2 -28.333 2 -33c0 -11.333 -1.33301 -19 -4 -23s-7.33398 -6 -14.001 -6c-3.33301 0 -7.83301 4.83301 -13.5 14.5l-19 31.5c-7 11.333 -18.333 21.833 -34 31.5s-33.834 14.5 -54.501 14.5c-19.333 0 -35.333 -4.83301 -48 -14.5
s-19 -21.834 -19 -36.501c0 -8 1 -15.5 3 -22.5s5.5 -13.167 10.5 -18.5l13 -13.5c3.66699 -3.66699 9.83398 -7.5 18.501 -11.5s15.167 -6.83301 19.5 -8.5s11.666 -4.33398 21.999 -8.00098s17.166 -6.16699 20.499 -7.5c48 -18 80.333 -36.833 97 -56.5
s25 -48.834 25 -87.501c0 -37.333 -17.667 -72 -53 -104c-24 -20.667 -57 -31 -99 -31c-12 0 -24.667 1.33301 -38 4s-23.833 5.16699 -31.5 7.5s-16.5 5.5 -26.5 9.5s-15.333 6 -16 6c-2.66699 0.666992 -5.83398 1.66699 -9.50098 3s-6.33398 2.16602 -8.00098 2.49902
s-3.83398 1.16602 -6.50098 2.49902s-4.5 2.5 -5.5 3.5s-2.16699 2.5 -3.5 4.5s-2.16602 4.33301 -2.49902 7s-0.5 5.66699 -0.5 9z" />
    <glyph glyph-name="t" unicode="t" horiz-adv-x="342" 
d="M27 384c0 4 1.16699 7.50098 3.5 10.501s5.5 5.83301 9.5 8.5s9.83301 7.16699 17.5 13.5s15.167 13.5 22.5 21.5c10 10.667 20.5 23.5 31.5 38.5s19.667 26 26 33s12.5 10.5 18.5 10.5c7.33301 0 11 -7.66699 11 -23c0 -6 -0.666992 -15.333 -2 -28
s-2 -22.334 -2 -29.001c0 -9.33301 1.83301 -15 5.5 -17s15.5 -3 35.5 -3h35c14.667 0 27.167 0.666992 37.5 2s17.5 3 21.5 5s7.5 3.66699 10.5 5s5.5 2 7.5 2c6.66699 0 10 -3.66699 10 -11c0 -5.33301 -4.33301 -15.833 -13 -31.5s-15 -23.5 -19 -23.5
c-10 0 -19.667 0.166992 -29 0.5s-17.333 0.666016 -24 0.999023s-13 0.833008 -19 1.5s-11 1.16699 -15 1.5s-7.5 0.666016 -10.5 0.999023s-5.16699 0.5 -6.5 0.5l-2 1c-12.667 0 -20.834 -2 -24.501 -6s-5.5 -13 -5.5 -27c0 -7.33301 -0.666992 -35.166 -2 -83.499
s-2 -82.5 -2 -102.5c0 -43.333 5.5 -73.5 16.5 -90.5s34.167 -25.5 69.5 -25.5c14 0 29.5 3.16699 46.5 9.5s26.167 9.5 27.5 9.5c6.66699 0 10 -4 10 -12c0 -9.33301 -11.5 -21.166 -34.5 -35.499s-47.833 -21.5 -74.5 -21.5c-90 0 -135 39 -135 117v15
c0 26 0.333008 57.667 1 95s1.33398 69.5 2.00098 96.5s1 40.833 1 41.5c0 6.66699 -1.33301 11 -4 13s-8.33398 3 -17.001 3c-2.66699 0 -6.16699 -0.166992 -10.5 -0.5s-7.16602 -0.5 -8.49902 -0.5c-11.333 0 -17 4.66699 -17 14z" />
    <glyph glyph-name="u" unicode="u" horiz-adv-x="576" 
d="M29 394c0 4.66699 1.49707 8.50098 4.49707 11.501s9.5 5.5 19.5 7.5s24.333 3 43 3c4.66699 0 15 0.833008 31 2.5s24.667 2.5 26 2.5c11.333 0 18 -2.33301 20 -7s3 -19 3 -43c0 -13.333 -0.833008 -36.166 -2.5 -68.499s-2.5 -68.166 -2.5 -107.499
c0 -58.667 11.333 -100.167 34 -124.5s48.334 -36.5 77.001 -36.5c42.667 0 73.667 9 93 27s29 49.667 29 95l-2 138c0 33.333 -2.66699 55.833 -8 67.5s-18 18.5 -38 20.5c-14.667 1.33301 -22 5.66602 -22 12.999c0 15.333 29.333 23 88 23c5.33301 0 12 0.833008 20 2.5
s13.333 2.5 16 2.5c10 0 16.5 -1.66699 19.5 -5s4.5 -11 4.5 -23c0 -0.666992 -0.166992 -5.83398 -0.5 -15.501s-0.666016 -22.5 -0.999023 -38.5s-0.833008 -34 -1.5 -54s-1.16699 -43.167 -1.5 -69.5s-0.5 -52.166 -0.5 -77.499c0 -40.667 2 -68.334 6 -83.001
s11.333 -22 22 -22c3.33301 0 7.83301 0.166992 13.5 0.5s9.83398 0.5 12.501 0.5c16 0 24 -4.33301 24 -13c0 -7.33301 -2.33301 -12 -7 -14s-14.667 -3 -30 -3c-11.333 0 -30.5 -1.83301 -57.5 -5.5s-41.5 -5.5 -43.5 -5.5c-4.66699 0 -8.5 8.5 -11.5 25.5
s-5.16699 25.5 -6.5 25.5c-0.666992 0 -7 -5.33301 -19 -16s-29.167 -21.334 -51.5 -32.001s-46.833 -16 -73.5 -16c-107.333 0 -161 58 -161 174c0 64.667 0.166992 110.5 0.5 137.5s0.5 41.167 0.5 42.5c0 13.333 -3.5 24 -10.5 32s-13.5 12 -19.5 12h-18
c-12 0 -18 4.66699 -18 14z" />
    <glyph glyph-name="v" unicode="v" horiz-adv-x="523" 
d="M20 416c0 7.33301 6.33594 11.0029 19.0029 11.0029c1.33301 0 5.16602 -0.333008 11.499 -1s14.833 -1.33398 25.5 -2.00098s22 -1 34 -1c9.33301 0 19 -0.166992 29 -0.5s19.667 -0.5 29 -0.5c4.66699 0 11.5 0.5 20.5 1.5s15.167 1.5 18.5 1.5
c12 0 18 -3.66699 18 -11c0 -11.333 -8 -17 -24 -17c-28 0 -42 -9.33301 -42 -28c0 -4 0.833008 -9 2.5 -15s4.66699 -14.167 9 -24.5s8.83301 -20.5 13.5 -30.5l20 -42.5l24 -52.5c4 -8 10.667 -23 20 -45s16.666 -38.167 21.999 -48.5s9.33301 -15.5 12 -15.5
c6.66699 0 27 40.333 61 121s51 128.667 51 144c0 13.333 -3.16699 22.833 -9.5 28.5s-13.5 8 -21.5 7s-15.167 -0.333008 -21.5 2s-9.5 7.16602 -9.5 14.499c0 8.66699 10.333 13 31 13c4.66699 0 14.5 -0.166992 29.5 -0.5s27.5 -0.5 37.5 -0.5
c7.33301 0 16.166 0.166992 26.499 0.5s16.833 0.5 19.5 0.5c11.333 0 18.833 -1 22.5 -3s5.5 -6 5.5 -12c0 -3.33301 -1.66699 -6 -5 -8s-8.33301 -5.16699 -15 -9.5s-13 -10.5 -19 -18.5c-16.667 -22.667 -40.667 -67.334 -72 -134.001l-86 -177
c-26 -51.333 -44 -77 -54 -77c-6.66699 0 -12 3.5 -16 10.5s-13.333 27.5 -28 61.5l-90 206c-16.667 36.667 -32 66.167 -46 88.5s-24.5 35.833 -31.5 40.5s-12.333 8.5 -16 11.5s-5.5 6.83301 -5.5 11.5z" />
    <glyph glyph-name="w" unicode="w" horiz-adv-x="748" 
d="M20 416c0 7.33301 6.33203 11.0039 18.999 11.0039c1.33301 0 5.16602 -0.333008 11.499 -1s14.833 -1.33398 25.5 -2.00098s22 -1 34 -1c9.33301 0 17.333 0.166992 24 0.5s15 0.5 25 0.5c20 0 32.833 -0.5 38.5 -1.5s8.5 -4.16699 8.5 -9.5
s-3.66699 -8.83301 -11 -10.5s-14.666 -5 -21.999 -10s-11 -13.833 -11 -26.5c0 -24 18.667 -78 56 -162c4.66699 -9.33301 11 -23.833 19 -43.5s14.333 -34 19 -43s8.33398 -13.5 11.001 -13.5s16 23 40 69c4.66699 8 9.5 17 14.5 27l11.5 22.5l9 17
c3.33301 6.33301 5.66602 11 6.99902 14l4.5 10.5l3.5 8.5c0.666992 1.66699 1.33398 4 2.00098 7s1 5.5 1 7.5v7c0 4.66699 -3.16699 14.667 -9.5 30s-12.833 28 -19.5 38c-7.33301 10.667 -15 19.334 -23 26.001s-14.167 10.834 -18.5 12.501s-8 3.5 -11 5.5
s-4.5 5 -4.5 9c0 6 5 9 15 9c18 0 31.333 -0.333008 40 -1s35.667 -1 81 -1c9.33301 0 16 0.166992 20 0.5s7.66699 0.5 11 0.5c14.667 0 22 -4.66699 22 -14c0 -2 -0.166992 -3.66699 -0.5 -5s-1.33301 -2.33301 -3 -3s-3.16699 -1.16699 -4.5 -1.5
s-3.66602 -0.5 -6.99902 -0.5c-20 -1.33301 -30 -10.666 -30 -27.999c0 -24.667 19.667 -80.334 59 -167.001c5.33301 -10.667 11.666 -25.334 18.999 -44.001s13.166 -32.834 17.499 -42.501s7.83301 -14.5 10.5 -14.5c6.66699 0 24.167 36.5 52.5 109.5
s42.5 120.833 42.5 143.5c0 12 -2.83301 21.167 -8.5 27.5s-12 10 -19 11s-13.333 3 -19 6s-8.5 7.5 -8.5 13.5c0 5.33301 7 8 21 8h115c12.667 0 20.667 -0.666992 24 -2s5 -5 5 -11s-5.5 -11.167 -16.5 -15.5s-20.167 -11.5 -27.5 -21.5
c-6 -8.66699 -11.667 -18.5 -17 -29.5s-11.333 -24.667 -18 -41s-19.834 -46.5 -39.501 -90.5l-69.5 -151l-15.5 -32l-11 -21c-4.33301 -8 -8 -13.333 -11 -16s-5.83301 -4 -8.5 -4c-11.333 0 -32.666 43.167 -63.999 129.5s-49.666 129.5 -54.999 129.5
c-2 0 -23.333 -42.667 -64 -128s-67.334 -128 -80.001 -128c-5.33301 0 -10.333 4.66699 -15 14s-15.334 35.666 -32.001 78.999l-72 182l-14.5 40.5c-5.66699 16.333 -10 27.666 -13 33.999s-8.33301 14.666 -16 24.999s-17.834 20.833 -30.501 31.5
c-2 2 -4.16699 3.66699 -6.5 5s-4.16602 2.33301 -5.49902 3s-2.66602 1.5 -3.99902 2.5s-2.16602 2.33301 -2.49902 4s-0.5 3.5 -0.5 5.5z" />
    <glyph glyph-name="x" unicode="x" horiz-adv-x="548" 
d="M29 14c0 3.33301 0.996094 5.6709 2.99609 7.00391s7.33301 3.5 16 6.5s17.667 7.5 27 13.5c11.333 7.33301 23.166 16 35.499 26s24.833 21.333 37.5 34l31 31.5c8 8.33301 18.167 19.5 30.5 33.5s19.833 22.333 22.5 25c2.66699 4 4 7.66699 4 11
c0 2.66699 -3.83301 8.83398 -11.5 18.501l-34.5 42c-15.333 18.333 -28.333 34.5 -39 48.5c-15.333 20 -30.666 36.833 -45.999 50.5s-25.666 20.834 -30.999 21.501c-12.667 2.66699 -23 6.83398 -31 12.501s-12 11.5 -12 17.5c0 8 4.66699 12 14 12
c14 0 27.333 -0.833008 40 -2.5s25.334 -2.5 38.001 -2.5c10.667 0 24.5 0.666992 41.5 2s30.167 2 39.5 2c10.667 0 17.667 -1 21 -3s5 -5.33301 5 -10c0 -4 -5.5 -8 -16.5 -12s-16.5 -9.66699 -16.5 -17c0 -3.33301 1.33301 -7.33301 4 -12s7.33398 -11.5 14.001 -20.5
l13 -17.5l21 -30c14 -20 23.5 -33.167 28.5 -39.5s8.83301 -9.5 11.5 -9.5c2 0 5.33301 2.66699 10 8c46.667 59.333 71 91.666 73 96.999c2 4 3 9 3 15c0 10 -7.66699 18 -23 24s-23 11 -23 15c0 8 8.66699 12 26 12c6 0 15.833 -0.166992 29.5 -0.5
s24.834 -0.5 33.501 -0.5c5.33301 0 15.5 0.333008 30.5 1s27.833 1 38.5 1c4.66699 0 9 -1.33301 13 -4s6 -5.66699 6 -9c0 -4 -1.83301 -7.16699 -5.5 -9.5s-8.66699 -4.33301 -15 -6s-15.5 -6.33398 -27.5 -14.001s-24.333 -17.834 -37 -30.501
c-76.667 -76.667 -115 -118.667 -115 -126c0 -2 3.33301 -6.66699 10 -14l81 -95c0.666992 -1.33301 4.16699 -5.83301 10.5 -13.5s10.833 -13 13.5 -16l13.5 -15c6.33301 -7 11.833 -12.333 16.5 -16l16.5 -13c6.33301 -5 12.833 -9.16699 19.5 -12.5s13.334 -6 20.001 -8
c3.33301 -0.666992 5.66602 -1.33398 6.99902 -2.00098s2.5 -1.83398 3.5 -3.50098s1.5 -3.83398 1.5 -6.50098c0 -4.66699 -2 -7.83398 -6 -9.50098s-13.333 -2.5 -28 -2.5c-3.33301 0 -11.666 0.333008 -24.999 1s-24.666 1 -33.999 1c-8 0 -18.333 -0.333008 -31 -1
s-22 -1 -28 -1h-11c-22.667 0 -34 3.33301 -34 10c0 3.33301 5.83301 7 17.5 11s17.5 10 17.5 18c0 8.66699 -4.66699 19.667 -14 33s-22 29.666 -38 48.999s-28 34.666 -36 45.999c-4 6 -7 9 -9 9c-0.666992 0 -4.33398 -3.33301 -11.001 -10l-29 -35l-25.5 -30
c-5.66699 -6.66699 -10.834 -14.167 -15.501 -22.5s-7 -16.166 -7 -23.499c0 -10 2.5 -17.333 7.5 -22s10.333 -7.16699 16 -7.5s11 -1.66602 16 -3.99902s7.5 -6.5 7.5 -12.5c0 -2.66699 -0.5 -4.5 -1.5 -5.5s-4.5 -1.83301 -10.5 -2.5s-15.667 -1 -29 -1
c-5.33301 0 -13.333 0.5 -24 1.5s-20 1.5 -28 1.5c-6.66699 0 -16 -0.666992 -28 -2s-20.333 -2 -25 -2c-29.333 0 -44 5.33301 -44 16z" />
    <glyph glyph-name="y" unicode="y" horiz-adv-x="498" 
d="M20 412c0 8 6.66797 12.001 20.001 12.001c18.667 0 37.834 -0.333008 57.501 -1s36.167 -1 49.5 -1c11.333 0 21.5 0.333008 30.5 1s17.833 1 26.5 1c4.66699 0 8.83398 -1.16699 12.501 -3.5s5.5 -4.83301 5.5 -7.5c0 -12 -8 -18 -24 -18h-15
c-10.667 0 -16 -9.33301 -16 -28c0 -14.667 14.333 -53.667 43 -117c2 -5.33301 3.66699 -9.5 5 -12.5l5.5 -12l6.5 -14.5l20 -45c9.33301 -21.333 16.5 -37 21.5 -47s8.83301 -15 11.5 -15c4 0 19.5 38.333 46.5 115s40.5 123 40.5 139c0 13.333 -3.16699 23 -9.5 29
s-13.5 8.83301 -21.5 8.5s-15.167 0.666992 -21.5 3s-9.5 7.16602 -9.5 14.499c0 8 6.33301 12 19 12c10 0 23.167 -0.166992 39.5 -0.5s27.166 -0.5 32.499 -0.5c6.66699 0 18.167 0.166992 34.5 0.5s25.5 0.5 27.5 0.5c14 0 21 -4.33301 21 -13
c0 -6.66699 -5.83301 -11.5 -17.5 -14.5s-19.5 -7.16699 -23.5 -12.5c-10.667 -15.333 -28.667 -57.333 -54 -126l-89 -237l-22 -59.5l-18 -49.5l-14 -38l-11 -29.5c-2.66699 -7 -5.5 -13.5 -8.5 -19.5s-5.66699 -10.167 -8 -12.5s-4.5 -3.5 -6.5 -3.5h-3.5
c-1.66699 0 -5.83398 -0.166992 -12.501 -0.5s-16.667 -0.5 -30 -0.5c-12.667 0 -19 4.33301 -19 13c0 2 7.5 12.333 22.5 31s30.167 41.667 45.5 69s23 52.333 23 75c0 19.333 -19 70.333 -57 153s-71 150.334 -99 203.001c-7.33301 13.333 -14.833 23.666 -22.5 30.999
s-13.834 11.333 -18.501 12s-8.5 2 -11.5 4s-4.5 6 -4.5 12z" />
    <glyph glyph-name="z" unicode="z" horiz-adv-x="378" 
d="M40 15c0 3.33301 0.165039 6.16797 0.498047 8.50098s0.833008 4.33301 1.5 6s2 4.16699 4 7.5s4 6.33301 6 9s5.16699 7.16699 9.5 13.5l12.5 17.5c122 176 183 269 183 279c0 3.33301 -7.66699 5 -23 5c-8 0 -28.5 -1.16699 -61.5 -3.5s-53.167 -3.5 -60.5 -3.5
c-12 -0.666992 -22.167 -5.66699 -30.5 -15s-14.833 -18.666 -19.5 -27.999s-8.66699 -14 -12 -14c-5.33301 0 -8 3.66699 -8 11c0 12 0.833008 24.333 2.5 37s3.83398 25.834 6.50098 39.501s4 21.5 4 23.5c1.33301 12 8 18 20 18c2 0 7.66699 -0.333008 17 -1
s22 -1.16699 38 -1.5s33.333 -0.5 52 -0.5c20.667 0 47 0.5 79 1.5s54.667 1.5 68 1.5c8 0 12 -3.33301 12 -10c0 -4.66699 -1.83301 -9.83398 -5.5 -15.501s-8.16699 -11.667 -13.5 -18s-8.66602 -10.5 -9.99902 -12.5l-94.5 -139.5l-76 -110
c-15.667 -23.667 -23.5 -39.5 -23.5 -47.5c0 -6 16.333 -9 49 -9c7.33301 0 16.666 0.166992 27.999 0.5s18.333 0.5 21 0.5c17.333 0 32 1.16699 44 3.5s21.167 6 27.5 11s10.833 9.33301 13.5 13s5.5 9.5 8.5 17.5s5.16699 13.333 6.5 16
c4.66699 9.33301 10.334 14 17.001 14c10.667 0 16 -4.66699 16 -14c0 -4 -8 -24.333 -24 -61c-2 -4.66699 -4.16699 -11.334 -6.5 -20.001s-4.33301 -15.834 -6 -21.501s-4 -10.667 -7 -15s-6.83301 -6.5 -11.5 -6.5h-114c-4 0 -14.5 -0.166992 -31.5 -0.5
s-30.833 -0.5 -41.5 -0.5h-17c-11.333 0 -19.333 -0.333008 -24 -1h-7c-12.667 0 -19 5 -19 15z" />
    <glyph glyph-name="braceleft" unicode="{" horiz-adv-x="273" 
d="M42 267c0 10.667 6.16992 19.498 18.5029 26.498s18.5 16.167 18.5 27.5c0 42 -0.666992 109 -2 201s-2 162.667 -2 212c0 12 6 18 18 18c6 0 15.667 -1.33301 29 -4s24.333 -4 33 -4c13.333 0 26.666 1 39.999 3s22.333 3 27 3c12 0 18 -3.33301 18 -10
c0 -16 -12.167 -29.167 -36.5 -39.5s-45.5 -15.5 -63.5 -15.5c-4.66699 0 -7 -3 -7 -9c0 -33.333 -0.333008 -80.166 -1 -140.499s-1.16699 -113.833 -1.5 -160.5s-0.5 -86.667 -0.5 -120c0 -28.667 0.5 -85.334 1.5 -170.001s1.5 -148 1.5 -190
c0 -2.66699 3.66699 -5 11 -7s17.5 -4.5 30.5 -7.5s23.833 -6.83301 32.5 -11.5c22.667 -12.667 34 -26.334 34 -41.001c0 -6 -2.66699 -9 -8 -9c-0.666992 0 -4.33398 0.833008 -11.001 2.5s-15.5 3.16699 -26.5 4.5s-22.5 2 -34.5 2
c-20.667 0 -37.334 -2.33301 -50.001 -7s-21 -7 -25 -7c-8 0 -12 4 -12 12c0 44.667 0.5 109.334 1.5 194.001s1.5 145.334 1.5 182.001c0 14.667 -5.83301 26.834 -17.5 36.501s-17.5 19.167 -17.5 28.5z" />
    <glyph glyph-name="bar" unicode="|" horiz-adv-x="209" 
d="M78 -87c0 50 1.00195 154.668 3.00195 314.001s3 273.666 3 342.999v82c0 25.333 -0.166992 45.166 -0.5 59.499s-0.5 23.166 -0.5 26.499c0 8.66699 1.83301 14.834 5.5 18.501s10.167 5.5 19.5 5.5c8.66699 0 14.5 -1.83301 17.5 -5.5s4.5 -10.167 4.5 -19.5
c0 -2 -0.166992 -5.5 -0.5 -10.5s-0.5 -9.16699 -0.5 -12.5s0.166992 -11.5 0.5 -24.5s0.666016 -31.167 0.999023 -54.5s0.5 -48.666 0.5 -75.999c0 -52.667 -0.833008 -145 -2.5 -277s-2.5 -222.667 -2.5 -272c0 -64.667 0.333008 -113.667 1 -147
c0 -1.33301 0.166992 -5 0.5 -11s0.5 -11 0.5 -15v-8c0 -25.333 -5.66699 -38 -17 -38c-14.667 0 -23.834 3.33301 -27.501 10s-5.5 23.667 -5.5 51v61z" />
    <glyph glyph-name="braceright" unicode="}" horiz-adv-x="273" 
d="M32 -172c0 14.667 11.3359 28.3359 34.0029 41.0029c8.66699 4.66699 19.5 8.5 32.5 11.5s23.167 5.5 30.5 7.5s11 4.33301 11 7c0 42 0.5 105.333 1.5 190s1.5 141.334 1.5 170.001c0 33.333 -0.166992 73.333 -0.5 120s-0.833008 100.167 -1.5 160.5
s-1 107.166 -1 140.499c0 6 -2.33301 9 -7 9c-18 0 -39.167 5.16699 -63.5 15.5s-36.5 23.5 -36.5 39.5c0 6.66699 6 10 18 10c4.66699 0 13.667 -1 27 -3s26.666 -3 39.999 -3c8.66699 0 19.667 1.33301 33 4s23 4 29 4c12 0 18 -6 18 -18
c0 -49.333 -0.666992 -120 -2 -212s-2 -159 -2 -201c0 -11.333 6.16699 -20.5 18.5 -27.5s18.5 -15.833 18.5 -26.5c0 -9.33301 -5.83301 -18.833 -17.5 -28.5s-17.5 -21.834 -17.5 -36.501c0 -36.667 0.5 -97.334 1.5 -182.001s1.5 -149.334 1.5 -194.001
c0 -8 -4 -12 -12 -12c-4.66699 0 -13.334 2.33301 -26.001 7s-29 7 -49 7c-12 0 -23.5 -0.666992 -34.5 -2s-19.833 -2.83301 -26.5 -4.5s-10.334 -2.5 -11.001 -2.5c-5.33301 0 -8 3 -8 9z" />
    <glyph glyph-name="asciitilde" unicode="~" horiz-adv-x="380" 
d="M29 172c0 2.66699 4.66699 11.1689 14 25.502s22.666 29.166 39.999 44.499s34.333 23 51 23c15.333 0 34.833 -7.5 58.5 -22.5s43.167 -22.5 58.5 -22.5c14 0 26.833 4 38.5 12s20.834 16.167 27.501 24.5s11.334 12.5 14.001 12.5c13.333 0 20 -5 20 -15
c0 -3.33301 -5 -11.833 -15 -25.5s-24.667 -27.834 -44 -42.501s-38.666 -22 -57.999 -22c-18.667 0 -38.834 7.66699 -60.501 23s-39.167 23 -52.5 23s-25.333 -4.5 -36 -13.5s-18.834 -18 -24.501 -27s-9.5 -13.5 -11.5 -13.5c-13.333 0 -20 5.33301 -20 16z" />
    <glyph glyph-name="uni00A0" unicode="&#xa0;" horiz-adv-x="213" 
 />
    <glyph glyph-name="exclamdown" unicode="&#xa1;" horiz-adv-x="276" 
d="M59 615c0 5.33301 2.16406 10.1641 6.49707 14.4971s10.166 9 17.499 14s12 8.5 14 10.5c2.66699 2.66699 6.33398 7.33398 11.001 14.001s9.16699 11.834 13.5 15.501s8.5 5.5 12.5 5.5s10.5 -3.66699 19.5 -11s16.167 -14.666 21.5 -21.999
c2 -2.66699 6 -6.66699 12 -12s11 -10.5 15 -15.5s6 -10.167 6 -15.5c0 -2 -0.5 -3.83301 -1.5 -5.5s-2.5 -3.5 -4.5 -5.5s-4 -3.83301 -6 -5.5l-8 -7c-3.33301 -3 -6.33301 -5.5 -9 -7.5c-2.66699 -2.66699 -6.66699 -7.5 -12 -14.5s-10.666 -12.667 -15.999 -17
s-10.666 -6.5 -15.999 -6.5c-4 0 -12 6 -24 18c-7.33301 8 -14.666 15 -21.999 21s-13 10.333 -17 13s-7.16699 5.5 -9.5 8.5s-3.5 6.5 -3.5 10.5zM82.9971 19.998c0 2 0.166992 4.33203 0.5 6.99902s1 7.16699 2 13.5s1.83301 12.5 2.5 18.5
c2.66699 22.667 6.83398 76.5 12.501 161.5s13.5 167.167 23.5 246.5c1.33301 7.33301 5.66602 11 12.999 11c8 0 12 -3.33301 12 -10c6 -68.667 10.333 -123.167 13 -163.5s4.16699 -65.5 4.5 -75.5l1 -29c0.333008 -9.33301 0.833008 -19.333 1.5 -30
c6.66699 -93.333 10 -141.666 10 -144.999c0 -12 -4.5 -21.333 -13.5 -28s-21.167 -10 -36.5 -10c-30.667 0 -46 11 -46 33z" />
    <glyph glyph-name="cent" unicode="&#xa2;" horiz-adv-x="452" 
d="M39 192c0 50 13.8281 95.8311 41.4951 137.498s64.834 70.5 111.501 86.5c6 2 12 3.83301 18 5.5s10 2.5 12 2.5s4 0.833008 6 2.5s3 3.66699 3 6v12.5v36c0 6.66699 5.33301 10 16 10c16 0 24 -3 24 -9v-46c0 -2 0.166992 -3.5 0.5 -4.5s1.16602 -1.66699 2.49902 -2
s2.83301 -0.666016 4.5 -0.999023s4.33398 -0.5 8.00098 -0.5s7.5 -0.166992 11.5 -0.5s9.33301 -1 16 -2s13.667 -2.16699 21 -3.5c14.667 -2 28 -6.33301 40 -13c6.66699 -4 11 -9 13 -15c1.33301 -7.33301 2 -22.333 2 -45c0 -29.333 -3.66699 -44 -11 -44
c-4 0 -7.5 1.66699 -10.5 5s-6 7.5 -9 12.5s-10.167 11.833 -21.5 20.5s-25.666 17.334 -42.999 26.001c-9.33301 4.66699 -15.666 7 -18.999 7c-4 0 -6 -6.66699 -6 -20c0 -73.333 -0.166992 -133.833 -0.5 -181.5s-0.666016 -79.5 -0.999023 -95.5s-0.5 -27.333 -0.5 -34
c0 -4.66699 1 -8.16699 3 -10.5s6.66699 -3.5 14 -3.5c23.333 0 45 4.33301 65 13s35.5 17.334 46.5 26.001s17.833 13 20.5 13c7.33301 0 11 -3.33301 11 -10c0 -4.66699 -4.83301 -13 -14.5 -25s-26.667 -25.167 -51 -39.5s-51.833 -23.5 -82.5 -27.5
c-4.66699 -0.666992 -7.66699 -1.16699 -9 -1.5s-2.33301 -1.33301 -3 -3s-1 -4.83398 -1 -9.50098v-58c0 -7.33301 -7 -11 -21 -11c-11.333 0 -17 3 -17 9v64c0 3.33301 -0.166992 5.5 -0.5 6.5s-1.16602 1.83301 -2.49902 2.5s-3.5 1 -6.5 1s-6.5 0.166992 -10.5 0.5
s-9.5 1.33301 -16.5 3s-14.833 3.83398 -23.5 6.50098c-40.667 14 -72.5 38.167 -95.5 72.5s-34.5 77.166 -34.5 128.499zM113.995 223.998c0 -22.667 3.49902 -44.3311 10.499 -64.998s15.333 -37.667 25 -51s19.834 -25 30.501 -35s20 -17.167 28 -21.5
s13.333 -6.5 16 -6.5c3.33301 0 5 5 5 15c0 84.667 0.333008 190 1 316c0 6.66699 -0.833008 10.667 -2.5 12s-6.5 2 -14.5 2c-4.66699 0 -10.667 -1.16699 -18 -3.5s-15.833 -7.33301 -25.5 -15s-18.5 -17.334 -26.5 -29.001s-14.833 -27.834 -20.5 -48.501
s-8.5 -44 -8.5 -70z" />
    <glyph glyph-name="sterling" unicode="&#xa3;" horiz-adv-x="557" 
d="M20 43c0 14.667 5.50391 27.832 16.5039 39.499s28.167 17.5 51.5 17.5c11.333 0 23.166 -1.66699 35.499 -5s22.5 -6.83301 30.5 -10.5s12.667 -5.5 14 -5.5c3.33301 2.66699 7.5 11.5 12.5 26.5s7.5 29.5 7.5 43.5c0 32 -16 86 -48 162
c-0.666992 1.33301 -1.66699 3.5 -3 6.5s-2.16602 4.83301 -2.49902 5.5l-2 4c-1 2 -1.83301 3.16699 -2.5 3.5s-1.83398 0.833008 -3.50098 1.5s-3.33398 1 -5.00098 1h-6.5c-1.33301 0 -10.5 -0.166992 -27.5 -0.5s-34.5 -0.5 -52.5 -0.5c-9.33301 0 -14 7.33301 -14 22
c0 14 4.33301 21 13 21h58c11.333 0 17 0.666992 17 2c0 0.666992 -2.5 8.16699 -7.5 22.5s-10.167 33 -15.5 56s-8 45.167 -8 66.5c0 65.333 20 114.5 60 147.5s87.333 49.5 142 49.5c44 0 82.833 -10 116.5 -30s50.5 -44.667 50.5 -74
c0 -10.667 -4.83301 -21.667 -14.5 -33s-18.167 -17 -25.5 -17c-6 0 -10.833 3.16699 -14.5 9.5s-7.83398 16 -12.501 29s-9.66699 23.5 -15 31.5c-9.33301 14.667 -23.5 26.334 -42.5 35.001s-39.167 13 -60.5 13c-32 0 -59.167 -9.5 -81.5 -28.5s-33.5 -47.5 -33.5 -85.5
c0 -42.667 16 -100.334 48 -173.001c3.33301 -8.66699 6.16602 -14.167 8.49902 -16.5s5.83301 -3.5 10.5 -3.5h155c10 0 16 -1.16699 18 -3.5s3 -8.5 3 -18.5c0 -6 -0.333008 -10.167 -1 -12.5s-2.66699 -4.33301 -6 -6s-8.66602 -2.5 -15.999 -2.5h-122
c-14.667 0 -22 -1.33301 -22 -4c0 -0.666992 2.16699 -7.5 6.5 -20.5s8.83301 -29.5 13.5 -49.5s7 -38.667 7 -56c0 -10 -0.666992 -20.167 -2 -30.5s-3.16602 -19.666 -5.49902 -27.999s-4.83301 -16.333 -7.5 -24s-5.5 -14.667 -8.5 -21l-7.5 -15.5l-6 -12l-3 -5
c41.333 -11.333 87.666 -17 138.999 -17c31.333 0 58.833 5.33301 82.5 16s40.5 22.167 50.5 34.5s18.833 23.833 26.5 34.5s12.834 16 15.501 16c8.66699 0 13 -5 13 -15c0 -8 -1.5 -17.667 -4.5 -29s-8.5 -24.333 -16.5 -39s-17.5 -28.334 -28.5 -41.001
s-25.833 -23.167 -44.5 -31.5s-39.334 -12.5 -62.001 -12.5c-54.667 0 -121 14.667 -199 44c-0.666992 0 -11.334 -6.33301 -32.001 -19s-43.667 -19 -69 -19c-19.333 0 -34.333 5.33301 -45 16s-16 23.334 -16 38.001zM58.0039 43.998
c0 -6.66699 3.16797 -12.833 9.50098 -18.5s14.166 -8.5 23.499 -8.5c8.66699 0 17.5 2.33301 26.5 7s15.667 9.16699 20 13.5s7.16602 7.5 8.49902 9.5c-2 2.66699 -9.66699 6 -23 10s-25.666 6 -36.999 6c-18.667 0 -28 -6.33301 -28 -19z" />
    <glyph glyph-name="currency" unicode="&#xa4;" horiz-adv-x="527" 
d="M20 44c0 8 6.00098 18 18.001 30l68 69c-26 34 -39 73.667 -39 119c0 44 12.667 83 38 117l-67 69c-12 12 -18 22 -18 30s2.66699 14.5 8 19.5s11.333 7.5 18 7.5c8.66699 0 19 -6 31 -18l69 -69c34.667 26 73.667 39 117 39s82.666 -13 117.999 -39l69 69
c11.333 11.333 21.333 17 30 17c8 0 14.5 -2.66699 19.5 -8s7.5 -11.333 7.5 -18c0 -8 -6 -18 -18 -30l-69 -70c27.333 -37.333 41 -76.666 41 -117.999c0 -40.667 -13.667 -79.334 -41 -116.001l69 -70c12 -12 18 -22 18 -30s-2.83301 -14.5 -8.5 -19.5
s-11.834 -7.5 -18.501 -7.5c-8 0 -18 6 -30 18l-69 69c-34.667 -26 -74 -39 -118 -39s-83 12.667 -117 38l-69 -68c-11.333 -11.333 -21.666 -17 -30.999 -17c-8 0 -14.333 2.66699 -19 8s-7 11.333 -7 18zM124.001 260c0 -39.333 13.667 -72.502 41 -99.502
s60 -40.5 98 -40.5s70.833 13.833 98.5 41.5s41.5 60.834 41.5 99.501s-13.833 72.167 -41.5 100.5s-60.5 42.5 -98.5 42.5c-38.667 0 -71.5 -14.167 -98.5 -42.5s-40.5 -62.166 -40.5 -101.499z" />
    <glyph glyph-name="yen" unicode="&#xa5;" horiz-adv-x="712" 
d="M20 688c0 7.33301 3.83594 12.0039 11.5029 14.0039s24.5 3 50.5 3c4 0 13.167 -0.333008 27.5 -1s24.5 -1 30.5 -1c7.33301 0 20.833 0.166992 40.5 0.5s34.5 0.5 44.5 0.5c33.333 0 50 -4 50 -12c0 -7.33301 -7 -13.5 -21 -18.5s-21 -10.5 -21 -16.5
c0 -6.66699 2.16699 -15.334 6.5 -26.001s8.66602 -19.334 12.999 -26.001l19.5 -29c8.66699 -12.667 13.667 -20.334 15 -23.001c21.333 -33.333 43.833 -66.166 67.5 -98.499s37.167 -48.5 40.5 -48.5h8c2.66699 0 5.16699 1 7.5 3s5.16602 5.5 8.49902 10.5l10.5 16.5
l15.5 25.5c6.66699 11 13.667 21.833 21 32.5c2 3.33301 6.83301 10.666 14.5 21.999l16 24l13.5 21.5c6 9.66699 10.333 17 13 22l9.5 18c3.66699 7 6.16699 12.833 7.5 17.5s2 9 2 13c0 13.333 -3.83301 23.333 -11.5 30s-16.167 10.167 -25.5 10.5s-17.833 2 -25.5 5
s-11.5 8.16699 -11.5 15.5c0 8 9.33301 12 28 12c3.33301 0 9.5 -0.166992 18.5 -0.5s16.5 -0.5 22.5 -0.5c15.333 0 33.833 -0.166992 55.5 -0.5s38.5 -0.5 50.5 -0.5c32.667 0 49 -5 49 -15c0 -2.66699 -2 -5 -6 -7s-9.66699 -4.66699 -17 -8s-14 -7.33301 -20 -12
c-30.667 -24.667 -75.667 -83.334 -135 -176.001l-31 -47l-10.5 -14c-3.66699 -4.66699 -6.16699 -8 -7.5 -10s-2 -3.66699 -2 -5c0 -2.66699 37.333 -4 112 -4c9.33301 0 14 -7.66699 14 -23c0 -13.333 -4.66699 -20 -14 -20c-49.333 0 -84.333 -0.166992 -105 -0.5
s-31.334 -0.5 -32.001 -0.5c-5.33301 0 -9.5 -1.83301 -12.5 -5.5s-5.66699 -13.667 -8 -30s-3.5 -40.166 -3.5 -71.499c0 -5.33301 0.5 -8.83301 1.5 -10.5s3.5 -2.5 7.5 -2.5c0.666992 0 2.66699 0.166992 6 0.5s6 0.5 8 0.5h125c10.667 0 17.167 -1.5 19.5 -4.5
s3.5 -9.16699 3.5 -18.5c0 -5.33301 -0.333008 -9.33301 -1 -12s-2.83398 -5 -6.50098 -7s-9.5 -3 -17.5 -3c-19.333 0 -44 -0.166992 -74 -0.5s-48.333 -0.5 -55 -0.5c-7.33301 0 -12 -0.666992 -14 -2s-3 -5 -3 -11v-7.5c0 -4.33301 0.166992 -10.333 0.5 -18
s0.5 -15.834 0.5 -24.501v-24c0 -22 3.83301 -39.5 11.5 -52.5s14.834 -20.833 21.501 -23.5s13.334 -4 20.001 -4c1.33301 0 4.66602 -0.666992 9.99902 -2s8.66602 -2 9.99902 -2c10 0 15 -3.66699 15 -11c0 -9.33301 -6 -14 -18 -14
c-13.333 0 -30.666 0.166992 -51.999 0.5s-36.333 0.5 -45 0.5c-19.333 0 -43.5 -0.833008 -72.5 -2.5s-44.5 -2.5 -46.5 -2.5c-16.667 0 -25 4 -25 12c0 6 1.5 10 4.5 12s8.66699 3.33301 17 4s14.5 1.66699 18.5 3c28 8.66699 42 29.334 42 62.001l1 37
c0.666992 24 1 43 1 57c0 6.66699 -1 10.667 -3 12s-6.66699 2 -14 2h-63c-14 0 -29.667 0.166992 -47 0.5s-26.666 0.5 -27.999 0.5c-9.33301 0 -14 7.33301 -14 22c0 14 4.33301 21 13 21h21h99h15c9.33301 0 15.333 1 18 3s4 6.66699 4 14
c0 1.33301 -0.166992 5.66602 -0.5 12.999s-0.5 14.333 -0.5 21c0 17.333 -2.33301 32.833 -7 46.5s-11.334 20.834 -20.001 21.501c-1.33301 0 -3.66602 0.166992 -6.99902 0.5s-6 0.5 -8 0.5h-100c-10.667 0 -17.334 1.66699 -20.001 5s-4 9.33301 -4 18
c0 5.33301 0.333008 9.16602 1 11.499s3 4.5 7 6.5s10 3 18 3c60.667 0 91 1 91 3c0 0.666992 -4.66699 8.33398 -14 23.001l-98 146c-20 29.333 -38 51.666 -54 66.999s-28.333 24.333 -37 27s-19 4 -31 4c-16.667 0 -25 4.33301 -25 13z" />
    <glyph glyph-name="brokenbar" unicode="&#xa6;" horiz-adv-x="208" 
d="M78 -148c0 8.66699 0.166992 18.3311 0.5 28.998s0.5 23 0.5 37s0.166992 43.333 0.5 88s0.5 101.334 0.5 170.001c0 16.667 8.66699 25 26 25c8.66699 0 14.334 -1.83301 17.001 -5.5s4 -10.167 4 -19.5v-184c0 -48 0.166992 -79.167 0.5 -93.5s0.5 -27.166 0.5 -38.499
v-31c0 -25.333 -5.66699 -38 -17 -38c-14.667 0 -23.834 3.33301 -27.501 10s-5.5 23.667 -5.5 51zM83 413.997v323.999c0 8.66699 1.83301 14.834 5.5 18.501s10.167 5.5 19.5 5.5c8.66699 0 14.5 -1.83301 17.5 -5.5s4.5 -10.167 4.5 -19.5v-346
c0 -25.333 -5.33301 -38 -16 -38c-14.667 0 -23.5 3.16699 -26.5 9.5s-4.5 23.5 -4.5 51.5z" />
    <glyph glyph-name="section" unicode="&#xa7;" horiz-adv-x="542" 
d="M59 275c0 21.333 3.49902 40.8291 10.499 58.4961s15.5 31.667 25.5 42s19.833 19 29.5 26s18 12.333 25 16s10.5 6.16699 10.5 7.5c0 2 -4.66699 6 -14 12l-30 20c-10.667 7.33301 -20.667 19.5 -30 36.5s-14 36.5 -14 58.5c0 48.667 18.333 88.834 55 120.501
s82.334 47.5 137.001 47.5c32 0 60.833 -4.5 86.5 -13.5s40.167 -13.5 43.5 -13.5c1.33301 0 4.66602 1.16699 9.99902 3.5s9.66602 3.5 12.999 3.5c11.333 0 17.333 -3.33301 18 -10c13.333 -87.333 20 -132.333 20 -135c0 -19.333 -4.33301 -29 -13 -29
c-7.33301 0 -13.333 5 -18 15s-8.83398 21.833 -12.501 35.5s-12.167 29 -25.5 46s-31 31.167 -53 42.5c-22.667 12 -50.667 18 -84 18c-38 0 -66.833 -10.667 -86.5 -32s-29.5 -43.333 -29.5 -66c0 -27.333 15.667 -50 47 -68c15.333 -8.66699 37.833 -18.167 67.5 -28.5
s56.834 -20.333 81.501 -30s49.334 -21.667 74.001 -36s44.167 -33 58.5 -56s21.5 -49.5 21.5 -79.5c0 -21.333 -2 -39.666 -6 -54.999s-8.16699 -26.666 -12.5 -33.999s-11.5 -17.666 -21.5 -30.999c-4.66699 -6.66699 -9.5 -12.334 -14.5 -17.001
s-8.83301 -7.83398 -11.5 -9.50098s-5 -3.33398 -7 -5.00098s-3 -3.16699 -3 -4.5c0 -2 3.16699 -4.66699 9.5 -8s14.5 -9.83301 24.5 -19.5s18.333 -22.5 25 -38.5c8.66699 -22 13 -40.667 13 -56c0 -58.667 -20.667 -105 -62 -139s-93.666 -51 -156.999 -51
c-30 0 -56 2.33301 -78 7s-48 15 -78 31c-10 5.33301 -19.833 30.333 -29.5 75s-14.5 72.667 -14.5 84c0 16 5 24 15 24c8.66699 0 14.667 -4 18 -12l3 -8c2 -5.33301 4.16699 -10.833 6.5 -16.5l9.5 -22c4 -9 8.83301 -17.667 14.5 -26l18.5 -26
c6.66699 -9 14.334 -17.333 23.001 -25s18 -14.667 28 -21s21.167 -11.166 33.5 -14.499s25.166 -5 38.499 -5c42 0 78.333 9.83301 109 29.5s46 47.5 46 83.5c0 18.667 -9 35.334 -27 50.001s-40.5 26.667 -67.5 36s-56.167 20.333 -87.5 33s-60.5 25.834 -87.5 39.501
s-49.5 32.5 -67.5 56.5s-27 51.667 -27 83zM118.999 306.996c0 -32 19.333 -59.333 58 -82c9.33301 -6 29.333 -15 60 -27s59 -22.5 85 -31.5s40 -13.5 42 -13.5c10 0 23 10.833 39 32.5s24 44.167 24 67.5c0 46.667 -37.333 84.667 -112 114
c-64.667 24.667 -100.667 37 -108 37c-12 0 -29.667 -9.33301 -53 -28s-35 -41.667 -35 -69z" />
    <glyph glyph-name="dieresis" unicode="&#xa8;" horiz-adv-x="439" 
d="M103 591c0 9.33301 5.16797 20.168 15.501 32.501s20.833 18.5 31.5 18.5c11.333 0 22.166 -5.83301 32.499 -17.5s15.5 -22.834 15.5 -33.501s-5.83301 -22.167 -17.5 -34.5s-20.167 -18.5 -25.5 -18.5c-13.333 0 -25.333 6.5 -36 19.5s-16 24.167 -16 33.5z
M263.001 591.002c0 9.33301 5.16699 20.168 15.5 32.501s20.833 18.5 31.5 18.5c11.333 0 22.166 -5.83301 32.499 -17.5s15.5 -22.834 15.5 -33.501s-5.83301 -22.167 -17.5 -34.5s-20.5 -18.5 -26.5 -18.5c-13.333 0 -25.166 6.5 -35.499 19.5s-15.5 24.167 -15.5 33.5z
" />
    <glyph glyph-name="copyright" unicode="&#xa9;" horiz-adv-x="796" 
d="M44 335c0 97.333 34.501 181.166 103.501 251.499s153.167 105.5 252.5 105.5c98.667 0 182.667 -35.167 252 -105.5s104 -154.166 104 -251.499c0 -96.667 -34.333 -180.167 -103 -250.5s-153.334 -105.5 -254.001 -105.5c-96.667 0 -180 34.5 -250 103.5
s-105 153.167 -105 252.5zM86.001 335c0 -87.333 31.001 -161.501 93.001 -222.501s135.667 -91.5 221 -91.5s159 30.333 221 91s93 135.334 93 224.001c0 84.667 -30.333 158 -91 220s-135.334 93 -224.001 93c-87.333 0 -161.333 -30.833 -222 -92.5
s-91 -135.5 -91 -221.5zM164.002 321.999c0 68 20.8311 124.499 62.498 169.499s99.834 67.5 174.501 67.5c25.333 0 50.833 -3.66699 76.5 -11s46 -14.666 61 -21.999s22.833 -11 23.5 -11c1.33301 0 3 1 5 3s4.33301 3 7 3c3.33301 0 6 -0.666992 8 -2
s3.5 -4.33301 4.5 -9s1.66699 -9.5 2 -14.5s1 -13.167 2 -24.5s2.5 -22.333 4.5 -33c1.33301 -9.33301 2 -14.666 2 -15.999c0 -10 -4.33301 -15 -13 -15c-5.33301 0 -10 3.66699 -14 11c-39.333 71.333 -95.666 107 -168.999 107c-50 0 -91 -15.333 -123 -46
s-48 -71 -48 -121c0 -23.333 3.16699 -46.166 9.5 -68.499s16.333 -44.833 30 -67.5s34.5 -41 62.5 -55s61 -21 99 -21c53.333 0 98.666 26.333 135.999 79c4 6 7.5 12.667 10.5 20s5.5 12.166 7.5 14.499s6 3.5 12 3.5c4.66699 0 7 -2.66699 7 -8
c0 -16.667 -4 -44.334 -12 -83.001c-1.33301 -6.66699 -5.66602 -11.334 -12.999 -14.001l-27.5 -13.5c-13 -6.33301 -23.167 -11 -30.5 -14s-17 -6.5 -29 -10.5s-24.333 -6.83301 -37 -8.5s-26 -2.5 -40 -2.5c-42 0 -78.833 5.66699 -110.5 17s-56.167 24.833 -73.5 40.5
s-31.333 34 -42 55s-17.5 39.333 -20.5 55s-4.5 30.834 -4.5 45.501z" />
    <glyph glyph-name="ordfeminine" unicode="&#xaa;" horiz-adv-x="302" 
d="M29 446c0 19.333 7.50293 34.9941 22.5029 46.9941s29.667 19.833 44 23.5s38.833 8.5 73.5 14.5c4.66699 0.666992 8 1.33398 10 2.00098c7.33301 1.33301 11 4.33301 11 9c0 4 0.166992 9 0.5 15s0.5 10.667 0.5 14c0 22.667 -6.5 39.167 -19.5 49.5
s-25.833 15.5 -38.5 15.5c-28.667 0 -43 -11.667 -43 -35c0 -2.66699 0.5 -6.5 1.5 -11.5s1.5 -8.16699 1.5 -9.5c0 -8 -4.66699 -12 -14 -12c-3.33301 0 -7.16602 0.333008 -11.499 1s-9.33301 1.66699 -15 3s-10.334 3.83301 -14.001 7.5s-5.5 7.83398 -5.5 12.501
c0 16.667 11.5 32.167 34.5 46.5s48.833 21.5 77.5 21.5c23.333 0 42.666 -2.66699 57.999 -8s25.666 -12.833 30.999 -22.5s8.66602 -17.5 9.99902 -23.5s2 -13.333 2 -22c0 -29.333 -0.666992 -52.666 -2 -69.999s-2 -32 -2 -44c0 -23.333 2 -38.666 6 -45.999
s10.333 -11 19 -11c2 0 4 0.166992 6 0.5s4.33301 0.5 7 0.5c5.33301 0 8 -3.33301 8 -10c0 -9.33301 -5.66699 -14 -17 -14h-24c-11.333 0 -21.166 3.33301 -29.499 10s-14.5 13.334 -18.5 20.001l-6 10c-0.666992 0 -2.33398 -1.5 -5.00098 -4.5s-6.5 -6.66699 -11.5 -11
s-10.833 -8.66602 -17.5 -12.999s-14.5 -8 -23.5 -11s-18.5 -4.5 -28.5 -4.5c-52 0 -78 20 -78 60zM88.0029 459.994c0 -28.667 15.333 -43.001 46 -43.001c17.333 0 30.5 4 39.5 12s14 15.333 15 22s1.5 15 1.5 25v40c0 3.33301 -1.33301 5 -4 5
c-0.666992 0 -1.66699 -0.166992 -3 -0.5s-2.33301 -0.5 -3 -0.5l-25.5 -4c-4.33301 -0.666992 -12 -2.66699 -23 -6s-18.833 -6.66602 -23.5 -9.99902s-9.16699 -8.5 -13.5 -15.5s-6.5 -15.167 -6.5 -24.5z" />
    <glyph glyph-name="guillemotleft" unicode="&#xab;" horiz-adv-x="360" 
d="M152 216c0 4 1.99902 7.66309 5.99902 10.9961c96 80.667 145 121.334 147 122.001c3.33301 0 6.83301 -2.16699 10.5 -6.5s5.5 -8.16602 5.5 -11.499s-15.833 -22.333 -47.5 -57s-47.5 -53.667 -47.5 -57c0 -4 15.5 -23.5 46.5 -58.5s46.5 -53.833 46.5 -56.5
c0 -3.33301 -1.66699 -7.16602 -5 -11.499s-6.66602 -6.5 -9.99902 -6.5c-2.66699 0 -18 12.333 -46 37l-100 87c-4 2.66699 -6 5.33398 -6 8.00098zM19.999 215.996c0 3.33301 2 6.99707 6 10.9971l91 78c34 29.333 52.333 44 55 44c3.33301 0 6.83301 -2.16699 10.5 -6.5
s5.5 -8.16602 5.5 -11.499c0 -4 -15.5 -23.167 -46.5 -57.5s-46.5 -53.166 -46.5 -56.499c0 -4 15.5 -23.167 46.5 -57.5s46.5 -53.5 46.5 -57.5c0 -3.33301 -2 -7.16602 -6 -11.499s-7.66699 -6.5 -11 -6.5c-2.66699 0 -21 15 -55 45l-91 79c-3.33301 2 -5 4.66699 -5 8z
" />
    <glyph glyph-name="logicalnot" unicode="&#xac;" horiz-adv-x="527" 
d="M31 215c0 11.333 6.33301 16.999 19 16.999h427c8.66699 0 14.167 -1 16.5 -3s3.5 -7.33301 3.5 -16v-158c0 -10 -5.33301 -15 -16 -15c-8 0 -13.5 0.166992 -16.5 0.5s-5.83301 2 -8.5 5s-4 7.83301 -4 14.5v111c0 11.333 -8.66699 17 -26 17h-376
c-8.66699 0 -14 1.83301 -16 5.5s-3 10.834 -3 21.501z" />
    <glyph glyph-name="uni00AD" unicode="&#xad;" horiz-adv-x="340" 
d="M44 145v10.9971c0 19.333 3.16699 31.666 9.5 36.999s22.166 11.666 47.499 18.999c35.333 10.667 66.666 20.834 93.999 30.501s45.833 16.334 55.5 20.001s17.5 5.5 23.5 5.5c14.667 0 22 -11.333 22 -34v-6c0 -6 -0.166992 -10.667 -0.5 -14
s-1.66602 -6.66602 -3.99902 -9.99902s-4.33301 -5.66602 -6 -6.99902s-5.66699 -3.33301 -12 -6s-12 -4.66699 -17 -6l-25 -7c-11.667 -3.33301 -22.5 -6.66602 -32.5 -9.99902c-18.667 -6 -37.167 -12.333 -55.5 -19l-40 -14.5c-8.33301 -3 -16.166 -5.5 -23.499 -7.5
s-14 -3 -20 -3c-10.667 0 -16 7 -16 21z" />
    <glyph glyph-name="registered" unicode="&#xae;" horiz-adv-x="478" 
d="M29 546c0 58.667 20.333 108.5 61 149.5s89.667 61.5 147 61.5c58.667 0 108.667 -20.5 150 -61.5s62 -90.833 62 -149.5c0 -57.333 -20.667 -106.5 -62 -147.5s-91.333 -61.5 -150 -61.5c-57.333 0 -106.333 20.5 -147 61.5s-61 90.167 -61 147.5zM59 546
c0 -48 17.667 -89.5 53 -124.5s77 -52.5 125 -52.5c49.333 0 91.833 17.5 127.5 52.5s53.5 76.5 53.5 124.5c0 49.333 -17.833 91.666 -53.5 126.999s-78.167 53 -127.5 53c-48 0 -89.667 -17.667 -125 -53s-53 -77.666 -53 -126.999zM123 658c0 6 4 9.00391 12 9.00391h23
c19.333 0 36.333 0.333008 51 1s23 1 25 1c24.667 0 45.334 -5.16699 62.001 -15.5s25 -26.5 25 -48.5c0 -12.667 -3.83301 -22.834 -11.5 -30.501s-15.167 -12.834 -22.5 -15.501s-11 -4.33398 -11 -5.00098s1.16699 -2.33398 3.5 -5.00098l9.5 -11c4 -4.66699 7 -9 9 -13
c9.33301 -16.667 21.666 -35.334 36.999 -56.001c8 -10 15 -15 21 -15h2c2 0.666992 3.33301 1 4 1c3.33301 0 5 -1.33301 5 -4c0 -3.33301 -2 -7 -6 -11s-10.333 -6 -19 -6c-9.33301 0 -18.333 2.33301 -27 7c-10 6 -24.333 24.833 -43 56.5s-30.667 48.167 -36 49.5h-25
c-4.66699 0 -7.5 -1 -8.5 -3s-1.5 -8.33301 -1.5 -19c0 -21.333 1 -38 3 -50c3.33301 -12.667 11 -20.167 23 -22.5s18 -5.16602 18 -8.49902c0 -4 -2.33301 -6 -7 -6c-0.666992 0 -9 0.333008 -25 1s-24.667 1 -26 1c-7.33301 0 -16.666 -0.333008 -27.999 -1l-17 -1
c-4.66699 0 -7 2.33301 -7 7c0 2.66699 4.16699 5 12.5 7s13.166 8.66699 14.499 20c0.666992 6.66699 1 17.667 1 33v24c0 23.333 0.166992 44.333 0.5 63s0.5 29.667 0.5 33c0 17.333 -10 26 -30 26c-7.33301 0 -11 2.33301 -11 7zM201 596.004
c0 -13.333 0.833008 -22.333 2.5 -27s5.5 -7 11.5 -7c3.33301 0 6 -0.166992 8 -0.5s4 -0.5 6 -0.5c20 0 33.833 3 41.5 9s11.5 17.333 11.5 34c0 10 -5.16699 20.5 -15.5 31.5s-26.5 16.5 -48.5 16.5c-7.33301 0 -12 -1.33301 -14 -4s-3 -9 -3 -19v-33z" />
    <glyph glyph-name="macron" unicode="&#xaf;" horiz-adv-x="439" 
d="M113 589c0 12.667 5.33496 19 16.002 19c51.333 0 88.166 -0.333008 110.499 -1s45.833 -1 70.5 -1c6 0 10 -1.66699 12 -5s3 -11.333 3 -24c0 -5.33301 -1.66699 -9 -5 -11s-6.33301 -3 -9 -3c-4.66699 0 -33.834 0.166992 -87.501 0.5s-87.167 0.5 -100.5 0.5
c-6.66699 0 -10 8.33301 -10 25z" />
    <glyph glyph-name="degree" unicode="&#xb0;" horiz-adv-x="259" 
d="M30 611c0 23.333 9.83203 46.166 29.499 68.499s43.834 33.5 72.501 33.5c32 0 56.333 -11.833 73 -35.5s25 -47.5 25 -71.5c0 -31.333 -12.5 -56.166 -37.5 -74.499s-45.5 -27.5 -61.5 -27.5c-20.667 0 -38.334 4 -53.001 12s-25.167 18.333 -31.5 31
s-10.666 24 -12.999 34s-3.5 20 -3.5 30zM71.999 610c0 -18.667 5.49902 -33.668 16.499 -45.001s25.167 -17 42.5 -17c5.33301 0 11.833 1.33301 19.5 4s15.834 8.83398 24.501 18.501s13 22.167 13 37.5c0 40.667 -19 61 -57 61c-14 0 -27.333 -5.83301 -40 -17.5
s-19 -25.5 -19 -41.5z" />
    <glyph glyph-name="plusminus" unicode="&#xb1;" horiz-adv-x="527" 
d="M31 90c0 7.33301 0.166992 12.501 0.5 15.501s1.83301 5.66699 4.5 8s7 3.5 13 3.5h429c7.33301 0 12.166 -1.33301 14.499 -4s3.5 -8 3.5 -16c0 -8.66699 -1.16699 -14.834 -3.5 -18.501s-8.16602 -5.5 -17.499 -5.5h-427c-6 0 -10.333 1 -13 3s-4 6.66699 -4 14z
M31 324.001c0 14.667 6 22 18 22h181c7.33301 0 11 3.33301 11 10v9v130c0 10 5.33301 15 16 15c12 0 19.667 -1 23 -3s5 -6.66699 5 -14v-128v-8c0 -7.33301 4 -11 12 -11h183c10.667 0 16 -5 16 -15c0 -8 -0.333008 -13.667 -1 -17s-2.5 -6.33301 -5.5 -9
s-7.83301 -4 -14.5 -4h-178c-8 0 -12 -5.66699 -12 -17v-132c0 -9.33301 -5.33301 -14 -16 -14c-11.333 0 -18.833 0.833008 -22.5 2.5s-5.5 5.5 -5.5 11.5v132c0 6.66699 -0.833008 11.167 -2.5 13.5s-6.16699 3.5 -13.5 3.5h-177c-8 0 -12.833 1.66699 -14.5 5
s-2.5 9.33301 -2.5 18z" />
    <glyph glyph-name="uni00B2" unicode="&#xb2;" 
d="M42 404l-0.00195312 2c0 4 5.83301 12.5 17.5 25.5s28.667 35.667 51 68s43.833 70.166 64.5 113.499c18 38 27 74.667 27 110c0 16.667 -5.5 30.167 -16.5 40.5s-26.167 15.5 -45.5 15.5c-17.333 0 -32.333 -3 -45 -9s-22.334 -12 -29.001 -18s-11.334 -9 -14.001 -9
c-3.33301 0 -5 3 -5 9c0 2 1.33301 5.66699 4 11s7.33398 11.833 14.001 19.5s14.334 15 23.001 22s20 13 34 18s28.667 7.5 44 7.5c26 0 49 -7.16699 69 -21.5s30 -34.5 30 -60.5c0 -30.667 -12.667 -69 -38 -115s-50.666 -86 -75.999 -120s-38 -51.667 -38 -53
c0 -3.33301 8.66699 -5 26 -5h14h47.5c10.333 0 19.333 0.333008 27 1s12 1 13 1s3.33301 0.833008 7 2.5s5.83398 2.83398 6.50098 3.50098c6.66699 2.66699 14.667 8.5 24 17.5s15.333 13.5 18 13.5c4.66699 0 7 -2 7 -6l-43 -79c-6 -8.66699 -13 -13 -21 -13
c-28.667 0 -52 0.333008 -70 1s-30.333 1 -37 1c-4.66699 0 -16 -0.166992 -34 -0.5s-30 -0.5 -36 -0.5c-13.333 0 -20 2.33301 -20 7z" />
    <glyph glyph-name="uni00B3" unicode="&#xb3;" 
d="M40 429c0 6.66699 4.33203 9.99805 12.999 9.99805c2 0 5.5 -2.16699 10.5 -6.5s13 -8.83301 24 -13.5s24.167 -7 39.5 -7c34.667 0 61.167 13 79.5 39s27.5 52 27.5 78c0 24.667 -6.66699 45 -20 61s-35.666 24 -66.999 24c-3.33301 0 -6.5 -0.166992 -9.5 -0.5
s-5.16699 -0.666016 -6.5 -0.999023s-2.33301 -0.5 -3 -0.5c-5.33301 0 -8 3 -8 9c0 1.33301 0.333008 2.33301 1 3s2.16699 1.83398 4.5 3.50098s5 3.33398 8 5.00098s7.5 4.66699 13.5 9l20 14.5c24.667 19.333 37 42 37 68c0 15.333 -5 28.333 -15 39s-22.667 16 -38 16
c-14.667 0 -30.834 -5.66699 -48.501 -17s-27.167 -17 -28.5 -17c-3.33301 0 -5 1.66699 -5 5c0 12 12.167 27.333 36.5 46s46.5 28 66.5 28c24.667 0 45.834 -6 63.501 -18s26.5 -29.667 26.5 -53c0 -13.333 -3.16699 -25.833 -9.5 -37.5s-12.5 -20.334 -18.5 -26.001
s-16 -14.167 -30 -25.5c-7.33301 -5.33301 -11 -9 -11 -11c0 -0.666992 2.5 -1.5 7.5 -2.5s12.333 -3 22 -6s18.834 -7.16699 27.501 -12.5c31.333 -20 47 -46.667 47 -80c0 -48 -15.833 -88.167 -47.5 -120.5s-68.834 -48.5 -111.501 -48.5c-23.333 0 -45.5 5 -66.5 15
s-31.5 20.333 -31.5 31z" />
    <glyph glyph-name="acute" unicode="&#xb4;" horiz-adv-x="439" 
d="M181 491c0 3.33301 2.33301 8.5 7 15.5s13.5 22.5 26.5 46.5s26.833 54 41.5 90c5.33301 12.667 12.333 19 21 19c7.33301 0 17.833 -2.16699 31.5 -6.5s20.5 -10.833 20.5 -19.5c0 -15.333 -32.333 -57 -97 -125c-19.333 -20.667 -32.333 -31 -39 -31
c-8 0 -12 3.66699 -12 11z" />
    <glyph glyph-name="uni00B5" unicode="&#xb5;" horiz-adv-x="536" 
d="M10 -146c0 30 3.16113 60.666 9.49414 91.999s16 69.333 29 114s22.5 80.334 28.5 107.001c13.333 56.667 26.333 116.667 39 180c6.66699 33.333 11.334 54 14.001 62s6.66699 12 12 12c6 0 15.167 -2 27.5 -6s18.5 -10.333 18.5 -19
c0 -6.66699 -8.33301 -57.667 -25 -153s-25 -149.666 -25 -162.999c0 -24 6.66699 -36 20 -36c22.667 0 49.834 18.667 81.501 56s59.5 78.166 83.5 122.499s45.333 88.166 64 131.499l9 22.5c2.66699 7 4.66699 12.5 6 16.5s2.5 7.83301 3.5 11.5
s1.83301 6.33398 2.5 8.00098s1.33398 3.16699 2.00098 4.5s1.5 2.33301 2.5 3s2 1 3 1h5.5c8.66699 0 18 -2.16699 28 -6.5s15 -9.16602 15 -14.499c0 -2 -10.333 -52 -31 -150s-31 -156.333 -31 -175c0 -7.33301 2.5 -13.333 7.5 -18s10.833 -7 17.5 -7
c14.667 0 28.334 12 41.001 36s21.667 36 27 36c7.33301 0 11 -5.66699 11 -17c0 -24 -14 -51 -42 -81s-59.667 -45 -95 -45c-26.667 0 -40 24 -40 72c0 17.333 3.16699 46 9.5 86s9.5 60.333 9.5 61c0 4 -0.666992 6 -2 6c-2 0 -6.16699 -5.83301 -12.5 -17.5
s-17.833 -29.834 -34.5 -54.501s-36 -49 -58 -73c-20 -22 -41.667 -40.333 -65 -55s-44.666 -22 -63.999 -22c-10 0 -18.167 3.5 -24.5 10.5s-10.666 14.167 -12.999 21.5s-3.83301 11 -4.5 11c-1.33301 0 -3.66602 -6.5 -6.99902 -19.5s-6.33301 -28.5 -9 -46.5
s-4 -32.667 -4 -44c0 -12.667 4.33301 -29.167 13 -49.5s13 -31.5 13 -33.5c0 -5.33301 -2.83301 -11.833 -8.5 -19.5s-14.834 -11.5 -27.501 -11.5c-20 0 -30 17.667 -30 53z" />
    <glyph glyph-name="paragraph" unicode="&#xb6;" horiz-adv-x="505" 
d="M44 505c0 61.333 21.001 111.662 63.001 150.995s87.333 59 136 59c18.667 0 42.334 0.166992 71.001 0.5s49.667 0.5 63 0.5c6 0 15.667 0.333008 29 1s23.666 1 30.999 1h12c2 0 4 -1.33301 6 -4s3 -4.66699 3 -6c0 -4.66699 -2.5 -8.16699 -7.5 -10.5
s-11.5 -5.16602 -19.5 -8.49902s-14.333 -7.33301 -19 -12c-9.33301 -10.667 -14 -32.667 -14 -66c0 -67.333 -0.5 -153.5 -1.5 -258.5s-1.5 -191.167 -1.5 -258.5c0 -79.333 -17.5 -145.666 -52.5 -198.999s-81.167 -80 -138.5 -80c-26.667 0 -49 5 -67 15
c-5.33301 2.66699 -8 11.334 -8 26.001c0 10.667 3.5 24.334 10.5 41.001s13.5 25 19.5 25c4 0 7.66699 -4 11 -12s6.5 -16.833 9.5 -26.5s9.33301 -18.5 19 -26.5s22.5 -12 38.5 -12c44 0 66 70 66 210c0 4.66699 0.166992 10.334 0.5 17.001s0.5 11.334 0.5 14.001
c0 20 -0.5 53.667 -1.5 101s-1.5 87.333 -1.5 120c0 9.33301 -8.33301 14 -25 14c-23.333 0 -44 1 -62 3s-38.333 6.66699 -61 14s-41.334 17.166 -56.001 29.499s-27.167 30.333 -37.5 54s-15.5 51.5 -15.5 83.5zM227.001 502.996c0 -102 16.002 -153.003 48.002 -153.003
c6 0 12 1.83301 18 5.5s9 8.16699 9 13.5v35c0 14.667 -0.333008 34.334 -1 59.001s-1 42.667 -1 54c0 30.667 0.166992 55.834 0.5 75.501s0.666016 32.334 0.999023 38.001s0.666016 10.167 0.999023 13.5s0.5 6 0.5 8c0 27.333 -9.33301 41 -28 41
c-20 0 -32.333 -7 -37 -21c-5.33301 -17.333 -8.5 -33.833 -9.5 -49.5s-1.5 -55.5 -1.5 -119.5zM326.003 505.993c0 -17.333 0.166016 -42.667 0.499023 -76s0.5 -58 0.5 -74c0 -66 0.333008 -137.333 1 -214l2 -116c0 -26.667 -0.5 -45.5 -1.5 -56.5
s-1.5 -16.833 -1.5 -17.5c0 -7.33301 2.33301 -11 7 -11c2.66699 0 6.83398 7 12.501 21s11.167 35.667 16.5 65s8 60.333 8 93c0 74 -0.333008 169.833 -1 287.5s-1 207.834 -1 270.501c0 5.33301 -2.33301 9.66602 -7 12.999s-10 5 -16 5c-12 0 -18 -4.33301 -18 -13
c-1.33301 -85.333 -2 -144.333 -2 -177z" />
    <glyph glyph-name="periodcentered" unicode="&#xb7;" horiz-adv-x="252" 
d="M77 333c0 8 5.66699 19.001 17 33.001s22 21 32 21c10.667 0 21.167 -6.83301 31.5 -20.5s15.5 -25.834 15.5 -36.501s-6.33301 -22.5 -19 -35.5s-22 -19.5 -28 -19.5c-13.333 0 -24.833 7.16699 -34.5 21.5s-14.5 26.5 -14.5 36.5z" />
    <glyph glyph-name="cedilla" unicode="&#xb8;" horiz-adv-x="439" 
d="M170 -79c0 2 6.66992 7.99805 20.0029 17.998c1.33301 0.666992 4 2.83398 8 6.50098s7.66699 6.33398 11 8.00098s7 2.5 11 2.5c3.33301 0 8.66602 -1.83301 15.999 -5.5s15.166 -10.5 23.499 -20.5s12.5 -21.667 12.5 -35c0 -28.667 -10.667 -51.834 -32 -69.501
s-38.333 -26.5 -51 -26.5c-6 0 -9 2.33301 -9 7c0 2 3.5 4.83301 10.5 8.5s14 9.33398 21 17.001s10.5 17.5 10.5 29.5c0 12.667 -4.33301 22.5 -13 29.5s-17.334 12.5 -26.001 16.5s-13 8.66699 -13 14z" />
    <glyph glyph-name="uni00B9" unicode="&#xb9;" 
d="M82 762c0 6.66699 2.49805 11.5 7.49805 14.5s15.167 7 30.5 12s29 10.5 41 16.5c6 2.66699 12.167 6.33398 18.5 11.001s11.5 8.33398 15.5 11.001s7.33301 4 10 4c6.66699 0 10 -4.66699 10 -14c0 -1.33301 -1 -6 -3 -14s-3 -13.333 -3 -16
c-2.66699 -66.667 -4 -133.334 -4 -200.001c0 -23.333 -0.333008 -48 -1 -74s-1 -41 -1 -45c0 -8 0.833008 -14.667 2.5 -20s3.16699 -9.5 4.5 -12.5s4.5 -5.33301 9.5 -7s8.66699 -2.83398 11 -3.50098s7.5 -1.33398 15.5 -2.00098s13.667 -1 17 -1
c8 -1.33301 12 -5.66602 12 -12.999c0 -8 -11.667 -12 -35 -12c-6 0 -15.667 0.166992 -29 0.5s-24.333 0.5 -33 0.5c-10 0 -23.5 -0.333008 -40.5 -1s-28.167 -1 -33.5 -1c-12.667 0 -19 4 -19 12c0 9.33301 7.33301 14 22 14c12 0 20.5 1.33301 25.5 4
s8.16699 9.33398 9.5 20.001c4 29.333 6 82.666 6 159.999v67c0 17.333 0.166992 28.5 0.5 33.5s0.5 9 0.5 12v7.5c0 24 -7 36 -21 36c-5.33301 0 -11.666 -2 -18.999 -6s-13.666 -6 -18.999 -6c-0.666992 0 -1.5 0.333008 -2.5 1s-2.16699 2 -3.5 4s-2 4.33301 -2 7z" />
    <glyph glyph-name="ordmasculine" unicode="&#xba;" horiz-adv-x="363" 
d="M29 519c0 37.333 13.667 69.8311 41 97.498s65 41.5 113 41.5c40.667 0 76 -12.167 106 -36.5s45 -57.5 45 -99.5c0 -43.333 -15.5 -77.166 -46.5 -101.499s-67.5 -36.5 -109.5 -36.5c-46.667 0 -83.167 13.333 -109.5 40s-39.5 58.334 -39.5 95.001zM88 539.998
c0 -40.667 10.999 -73 32.999 -97s47 -36 75 -36c22.667 0 41.834 8.33301 57.501 25s23.5 41 23.5 73c0 34.667 -9.5 65.5 -28.5 92.5s-45.833 40.5 -80.5 40.5c-20.667 0 -39.167 -8 -55.5 -24s-24.5 -40.667 -24.5 -74z" />
    <glyph glyph-name="guillemotright" unicode="&#xbb;" horiz-adv-x="360" 
d="M39 102c0 4 15.834 23.501 47.501 58.501s47.5 53.167 47.5 54.5c0 4 -15.5 23.667 -46.5 59s-46.5 54.333 -46.5 57c0 3.33301 1.66699 7.16602 5 11.499s6.66602 6.5 9.99902 6.5c2.66699 0 18 -12.333 46 -37l100 -87c4 -2.66699 6 -5.66699 6 -9
s-2.33301 -6.66602 -7 -9.99902l-100 -86c-28 -24 -43.333 -36 -46 -36c-3.33301 0 -6.83301 2.16699 -10.5 6.5s-5.5 8.16602 -5.5 11.499zM171.001 102.001c0 4 15.667 23.001 47 57.001s47 52.667 47 56c0 4.66699 -15.5 24.834 -46.5 60.501s-46.5 54.167 -46.5 55.5
c0 3.33301 1.83301 7.16602 5.5 11.499s7.16699 6.5 10.5 6.5c2.66699 0 21 -15 55 -45l24.5 -21.5l28.5 -25l38 -32.5c4 -2.66699 6 -5.66699 6 -9c0 -2 -2.33301 -5.33301 -7 -10l-107 -92c-23.333 -20 -36 -30 -38 -30c-3.33301 0 -7 2.16699 -11 6.5
s-6 8.16602 -6 11.499z" />
    <glyph glyph-name="onequarter" unicode="&#xbc;" horiz-adv-x="913" 
d="M595 144c0 7.33301 8.16602 21.834 24.499 43.501s67.833 86.5 154.5 194.5c4 4.66699 9 11 15 19l14.5 19c3.66699 4.66699 7.66699 8.83398 12 12.501s8.16602 5.5 11.499 5.5c7.33301 0 11 -4 11 -12c0 -0.666992 -0.666992 -17.667 -2 -51s-2.5 -68.333 -3.5 -105
s-1.5 -59 -1.5 -67c0 -6 0.333008 -9.83301 1 -11.5s3 -2.5 7 -2.5c16.667 0 29 2.83301 37 8.5s13 8.5 15 8.5c4.66699 0 7 -3 7 -9c0 -2 -2.33301 -12.333 -7 -31c-3.33301 -20.667 -8.33301 -31 -15 -31c-3.33301 0 -9.33301 0.166992 -18 0.5s-14.334 0.5 -17.001 0.5
c-8 0 -12 -3.66699 -12 -11c0 -5.33301 0.333008 -16.5 1 -33.5s1 -32.5 1 -46.5v-53c0 -14.667 -1 -22.834 -3 -24.501s-10 -4.16699 -24 -7.5c-11.333 -2 -19.666 -3 -24.999 -3s-9.33301 1.66699 -12 5s-4 6.66602 -4 9.99902c0 0.666992 0.5 2.5 1.5 5.5
s2.16699 8 3.5 15s2.5 15.833 3.5 26.5s2 26 3 46s1.5 42.333 1.5 67c0 2.66699 -2.66699 4 -8 4h-5c-2 0 -4.66699 -0.166992 -8 -0.5s-11.166 -0.5 -23.499 -0.5h-46.5c-9.33301 0 -22.166 -0.166992 -38.499 -0.5s-27.5 -0.5 -33.5 -0.5c-12 0 -18 3.33301 -18 10z
M659.999 192.001c0 -4 6 -6 18 -6h81c11.333 0 17 2.33301 17 7v6l1 26c0.666992 17.333 1.16699 36.833 1.5 58.5s0.5 37.5 0.5 47.5c0 10.667 -1 16 -3 16c-2.66699 0 -22.667 -24.333 -60 -73s-56 -76 -56 -82zM195.999 -71.999c0 3.33301 13.167 25.667 39.5 67
l103.5 158l123 184l119.5 178.5l71.5 106.5c0 0.666992 1.5 3.16699 4.5 7.5s6.66699 8.83301 11 13.5s7.83301 7 10.5 7c3.33301 0 7.16602 -1.5 11.499 -4.5s6.5 -5.83301 6.5 -8.5c0 -5.33301 -2.66699 -12.333 -8 -21l-435 -663
c-17.333 -26.667 -27.666 -40.667 -30.999 -42c-4 -1.33301 -7.33301 -2 -10 -2c-11.333 0 -17 6.33301 -17 19zM81.999 585.002c0 6.66699 2.49805 11.5 7.49805 14.5s15.167 7 30.5 12s29 10.5 41 16.5c6 2.66699 12.167 6.33398 18.5 11.001s11.5 8.33398 15.5 11.001
s7.33301 4 10 4c6.66699 0 10 -4.66699 10 -14c0 -1.33301 -1 -6 -3 -14s-3 -13.333 -3 -16c-2.66699 -66.667 -4 -133.334 -4 -200.001c0 -23.333 -0.333008 -48 -1 -74s-1 -41 -1 -45c0 -8 0.833008 -14.667 2.5 -20s3.16699 -9.5 4.5 -12.5s4.5 -5.33301 9.5 -7
s8.66699 -2.83398 11 -3.50098s7.5 -1.33398 15.5 -2.00098s13.667 -1 17 -1c8 -1.33301 12 -5.66602 12 -12.999c0 -8 -11.667 -12 -35 -12c-6 0 -15.667 0.166992 -29 0.5s-24.333 0.5 -33 0.5c-10 0 -23.5 -0.333008 -40.5 -1s-28.167 -1 -33.5 -1
c-12.667 0 -19 4 -19 12c0 9.33301 7.33301 14 22 14c12 0 20.5 1.33301 25.5 4s8.16699 9.33398 9.5 20.001c4 29.333 6 82.666 6 159.999v67c0 17.333 0.166992 28.5 0.5 33.5s0.5 9 0.5 12v7.5c0 24 -7 36 -21 36c-5.33301 0 -11.666 -2 -18.999 -6
s-13.666 -6 -18.999 -6c-0.666992 0 -1.5 0.333008 -2.5 1s-2.16699 2 -3.5 4s-2 4.33301 -2 7z" />
    <glyph glyph-name="onehalf" unicode="&#xbd;" horiz-adv-x="913" 
d="M618 18l-0.00195312 2c0 4 5.83301 12.5 17.5 25.5s28.667 35.667 51 68s43.833 70.166 64.5 113.499c18 38 27 74.667 27 110c0 16.667 -5.5 30.167 -16.5 40.5s-26.167 15.5 -45.5 15.5c-17.333 0 -32.333 -3 -45 -9s-22.334 -12 -29.001 -18s-11.334 -9 -14.001 -9
c-3.33301 0 -5 3 -5 9c0 2 1.33301 5.66699 4 11s7.33398 11.833 14.001 19.5s14.334 15 23.001 22s20 13 34 18s28.667 7.5 44 7.5c26 0 49 -7.16699 69 -21.5s30 -34.5 30 -60.5c0 -30.667 -12.667 -69 -38 -115s-50.666 -86 -75.999 -120s-38 -51.667 -38 -53
c0 -3.33301 8.66699 -5 26 -5h14h47.5c10.333 0 19.333 0.333008 27 1s12 1 13 1s3.33301 0.833008 7 2.5s5.83398 2.83398 6.50098 3.50098c6.66699 2.66699 14.667 8.5 24 17.5s15.333 13.5 18 13.5c4.66699 0 7 -2 7 -6l-43 -79c-6 -8.66699 -13 -13 -21 -13
c-28.667 0 -52 0.333008 -70 1s-30.333 1 -37 1c-4.66699 0 -16 -0.166992 -34 -0.5s-30 -0.5 -36 -0.5c-13.333 0 -20 2.33301 -20 7zM195.998 -72c0 3.33301 13.167 25.667 39.5 67l103.5 158l123 184l119.5 178.5l71.5 106.5c0 0.666992 1.5 3.16699 4.5 7.5
s6.66699 8.83301 11 13.5s7.83301 7 10.5 7c3.33301 0 7.16602 -1.5 11.499 -4.5s6.5 -5.83301 6.5 -8.5c0 -5.33301 -2.66699 -12.333 -8 -21l-435 -663c-17.333 -26.667 -27.666 -40.667 -30.999 -42c-4 -1.33301 -7.33301 -2 -10 -2c-11.333 0 -17 6.33301 -17 19z
M81.998 585.001c0 6.66699 2.49805 11.5 7.49805 14.5s15.167 7 30.5 12s29 10.5 41 16.5c6 2.66699 12.167 6.33398 18.5 11.001s11.5 8.33398 15.5 11.001s7.33301 4 10 4c6.66699 0 10 -4.66699 10 -14c0 -1.33301 -1 -6 -3 -14s-3 -13.333 -3 -16
c-2.66699 -66.667 -4 -133.334 -4 -200.001c0 -23.333 -0.333008 -48 -1 -74s-1 -41 -1 -45c0 -8 0.833008 -14.667 2.5 -20s3.16699 -9.5 4.5 -12.5s4.5 -5.33301 9.5 -7s8.66699 -2.83398 11 -3.50098s7.5 -1.33398 15.5 -2.00098s13.667 -1 17 -1
c8 -1.33301 12 -5.66602 12 -12.999c0 -8 -11.667 -12 -35 -12c-6 0 -15.667 0.166992 -29 0.5s-24.333 0.5 -33 0.5c-10 0 -23.5 -0.333008 -40.5 -1s-28.167 -1 -33.5 -1c-12.667 0 -19 4 -19 12c0 9.33301 7.33301 14 22 14c12 0 20.5 1.33301 25.5 4
s8.16699 9.33398 9.5 20.001c4 29.333 6 82.666 6 159.999v67c0 17.333 0.166992 28.5 0.5 33.5s0.5 9 0.5 12v7.5c0 24 -7 36 -21 36c-5.33301 0 -11.666 -2 -18.999 -6s-13.666 -6 -18.999 -6c-0.666992 0 -1.5 0.333008 -2.5 1s-2.16699 2 -3.5 4s-2 4.33301 -2 7z" />
    </font>
</defs>
</svg>
